433  3  0  0
   0    0.57617308870507078  0.025978339701142945  0.99999981514136638
   1    0.59213581578782137  0.019809514323712092  0.99923088022180984
   2    0.57051074297232007  0.020356896265702515  0.88933642329215112
   3    0.58747035100067446  0.015222395022800116  0.88707314964347472
   4    0.5754036542977865  0.053435253667351239  0.99829896658360495
   5    0.61184429060207712  0.039002017990933342  0.99846220398901997
   6    0.56977855234600594  0.047848419705138562  0.88831315620238749
   7    0.6057132619729837  0.035694714984419673  0.88473919284935143
   8    0.59789357611543337  0.0028485563749381026  0.99806189398464895
   9    0.59383617373542341  0.0020703494505373626  0.88552261758207984
  10    0.62539836285455197  0.0020509291000739959  0.99852830242936985
  11    0.62124681275757743  0.0015442427698243947  0.8831253024528376
  12    0.58923149934975971  -0.01686636847523626  0.99891685820588327
  13    0.58534171969720228  -0.013159359615311424  0.8868731574804356
  14    0.60892578373420791  -0.036083429091601962  0.99846212364293974
  15    0.60371160501871557  -0.033544781042636938  0.88478774476920097
  16    0.57047208484208933  -0.025978921844499191  0.99998861093406377
  17    0.56644395128277725  -0.020369904632597718  0.88955103173518935
  18    0.57124827687795121  -0.053436329964343887  0.99829884617674769
  19    0.56697186759768325  -0.047861415823728576  0.88840859728906441
  20    0.55452589937899077  -0.019802238123688816  0.9991430448094345
  21    0.54939566044205113  -0.01524150868759617  0.89077270354312466
  22    0.534815944125409  -0.03898217146123726  0.99813564184124581
  23    0.5310177147127505  -0.035698714452514047  0.89183142103797008
  24    0.54878928037119323  -0.0028345474564179024  0.99782950957759764
  25    0.54288273474822879  -0.0020649708465826006  0.89059973688343663
  26    0.521281999390383  -0.0020228366008525592  0.99806963079907529
  27    0.51550640352356125  -0.0015198386511033439  0.89335769976172064
  28    0.5574554650108815  0.016881032898442998  0.99881342764936343
  29    0.5514931518189774  0.013177248054151254  0.89039511048419118
  30    0.53777079485454471  0.036101379762312008  0.99813588286110655
  31    0.53306212891410387  0.033570060720886759  0.89173586620044976
  32    0.55452691272172772  0.017123564700644727  0.77960512126333847
  33    0.57189473370464716  0.012499398386133939  0.77556745337699506
  34    0.55395766537587721  0.044634772337670083  0.77918505997847953
  35    0.58910232541145358  0.033677195719873501  0.77199439762398014
  36    0.57853187276716789  0.0014229592620493105  0.77367851544114186
  37    0.60558972049428139  0.0011137014703757181  0.76866410863016521
  38    0.57043549748405431  -0.011109129139337075  0.77544560300601795
  39    0.58783205832827112  -0.03216027392512863  0.7720432488691964
  40    0.5518460015499026  -0.017132460018785801  0.77988671100226747
  41    0.55221611653938862  -0.044643791018614307  0.77928944959906665
  42    0.53439806373437204  -0.012520581544876229  0.78348233539259615
  43    0.5170327128384522  -0.033682625453544411  0.78630714079129727
  44    0.52760804623453694  -0.0014238258188276152  0.78447208984649197
  45    0.50055666760443596  -0.0010933439631525034  0.78951993449795732
  46    0.53579641011524537  0.011128440580013573  0.78312603694621197
  47    0.51834397247705277  0.032185537479504971  0.78618841026142705
  48    0.52930996632727667  0.016297192389816341  0.6714040035043628
  49    0.54628784706956934  0.011662673286805869  0.66554870281750733
  50    0.52905314450686647  0.043814844504120147  0.67168667706171836
  51    0.56312791970966714  0.032944616864903992  0.66098166103029254
  52    0.55298664816539345  0.00091605770140318636  0.66343785536467592
  53    0.5795099534350463  0.00074666019923918885  0.6560994208088432
  54    0.5453654366945957  -0.01077635100470648  0.66548618437336438
  55    0.56237472293688573  -0.031946343528781417  0.6610271892253663
  56    0.52768194688032344  -0.016295553255789789  0.67167250927983235
  57    0.52805103794689334  -0.04381314872839942  0.67178542899338856
  58    0.51081730861850172  -0.011652391989980831  0.67791780765768517
  59    0.4939295353689106  -0.032926690435673436  0.68234210195003764
  60    0.50418564940359656  -0.00092024488636504784  0.68027042907223678
  61    0.47753097189467802  -0.00073009255111263741  0.68711579602048689
  62    0.51167545288652605  0.010772854605136354  0.67761318300338136
  63    0.49471948900173957  0.031953550907142941  0.68222191738185833
  64    0.49615731907372917  0.018384697232169522  0.56557318250528277
  65    0.51170516790601916  0.013080260306456488  0.55817861143731673
  66    0.49626772023849092  0.045895044505714709  0.56630505964188516
  67    0.52892186107603278  0.033699530278811153  0.55219544991783831
  68    0.51814418644225968  0.000529136378911029  0.55579535814163261
  69    0.5439244442942629  0.00040855384348710251  0.54616567462618171
  70    0.51115775179842482  -0.012572949401995543  0.55818931253601944
  71    0.52844667156609848  -0.033153139050708109  0.55228032895496626
  72    0.49520868038043753  -0.018377793661530667  0.56583924682058639
  73    0.49563896673244395  -0.045887776986290506  0.56645788306105893
  74    0.48002637371139217  -0.013018335129590365  0.57413579226345768
  75    0.46292323424860077  -0.033644997650143303  0.58041197370210773
  76    0.47393221115709622  -0.00053136181078321406  0.57751477638835713
  77    0.44787193852030011  -0.00039251878220367852  0.58635841547985068
  78    0.48052182636967433  0.012525953299335833  0.57387990539531464
  79    0.46342969965101177  0.033129237971208973  0.5802619822229782
  80    0.45379670753588452  0.021283299836499042  0.46397098107410539
  81    0.46779093040505698  0.015186033646360765  0.45514643664977456
  82    0.45400258348854433  0.048796610785716232  0.46455610958573268
  83    0.48507088894999784  0.035036378134127841  0.44710069889159132
  84    0.47371409803086667  0.00031901254497460605  0.45206655295754772
  85    0.49845409368985821  0.00022088386508323921  0.44001292175253109
  86    0.46746821939934302  -0.014872223906734733  0.45525530022335392
  87    0.48475547775549355  -0.034728848531692572  0.44724080106853981
  88    0.45321805011395949  -0.021278150298176472  0.46427123922594266
  89    0.45357669256771344  -0.048791318287863449  0.46478505089664152
  90    0.43952418512588431  -0.015115974056208899  0.47363413007581945
  91    0.42243767965321544  -0.034971102366801371  0.48207168008596546
  92    0.43391840082629091  -0.00031235381723144562  0.47738609371935165
  93    0.40901020557333584  -0.00019841995692205825  0.48908805372558722
  94    0.43982706910783309  0.014825518454270928  0.47341814782385522
  95    0.42277736147676453  0.034702132051754792  0.48187951540023832
  96    0.40089302489230644  0.023055580967793199  0.36746666784574128
  97    0.41402043244251974  0.016567167080391833  0.35671818252723786
  98    0.40095010032323475  0.050572973011662532  0.36786279556567325
  99    0.43061329591435782  0.036230785109674618  0.34695160444304135
 100    0.41957634422935403  0.0004317315540852946  0.35264613973201492
 101    0.44317638346268845  0.00038315883283903827  0.33848976913262829
 102    0.41382936888334843  -0.016103916992904897  0.35701223181656144
 103    0.43045060594920315  -0.03568745901007863  0.34713364891548054
 104    0.40041199378962028  -0.023047978407828833  0.36791872111650381
 105    0.40074089696603554  -0.050565375463094996  0.36814614511413174
 106    0.38723209550772919  -0.016501209804512477  0.37848971193333442
 107    0.37102903791457953  -0.036162152840026579  0.38889525292161065
 108    0.38173874367837313  -0.00040444399905459582  0.38260019832495534
 109    0.35845525652872834  -0.00034212461056779496  0.39727133945703763
 110    0.38750539332935136  0.016088335202926903  0.37829450677849491
 111    0.37120254831848448  0.035683164068418149  0.38866884849038691
 112    0.33846240860687932  0.024395749676330063  0.27656043252977702
 113    0.35145877401824682  0.017745723945969575  0.26382040826099895
 114    0.33834849220462659  0.051911696788521096  0.27703658087191319
 115    0.3667822843969179  0.037610125815454219  0.25250835240391839
 116    0.35694722832007697  0.00085069608916400405  0.25885670646725062
 117    0.37899073626596858  0.00087248832519917709  0.24238095694836204
 118    0.35127592543631708  -0.016794576093864245  0.26427943038369328
 119    0.36677248702521209  -0.036376634295988385  0.25271367856370452
 120    0.33788224693821473  -0.024378581202176071  0.27733569340121472
 121    0.33836963702671885  -0.051894565382752153  0.27734594753332859
 122    0.32472870549279365  -0.017681813971303525  0.28978811388909703
 123    0.30990597128269542  -0.037545123331484104  0.3017506609201363
 124    0.31920259878200591  -0.00081785392080827273  0.29464719462900874
 125    0.29768634125599186  -0.00083079617235428673  0.31180579405447356
 126    0.32501574541940387  0.016796869081011186  0.28944878346307051
 127    0.30990723542864168  0.036387006610675336  0.30150392664344161
 128    0.26619850980766424  0.025578498555771954  0.19330366137376384
 129    0.27908564429351956  0.018688782128663525  0.17917973392715478
 130    0.26604714095950577  0.053092821039774959  0.19385700158503671
 131    0.2927295783787392  0.038668852980629949  0.16606459492293832
 132    0.28459150959986379  0.001068408926621283  0.17364135104444003
 133    0.30433234437476503  0.0011404278862937533  0.15446685508416153
 134    0.27892831343816976  -0.017477463456060216  0.17965250459201046
 135    0.29288722379322563  -0.037059863203135049  0.16627171681562544
 136    0.26574811836387002  -0.025554410903498668  0.19430832655627406
 137    0.26630455020164318  -0.053068728822818712  0.19416785337085657
 138    0.25296381897326148  -0.018650331034936511  0.20849427770833417
 139    0.23958793569485592  -0.038626935967066248  0.22188785981243947
 140    0.2475143198555628  -0.001050405838970217  0.21407218065846631
 141    0.22796029428429204  -0.001113874609720163  0.23343717731079275
 142    0.25307091377769114  0.017492689838234508  0.20794175505967205
 143    0.23942345874831003  0.037079148997821783  0.22163425769732523
 144    0.18444965368371735  0.026677148669961213  0.11931653268744749
 145    0.19642793800395877  0.019332302494123065  0.10422563216654752
 146    0.18440420221493439  0.054193508050534717  0.1197801492040079
 147    0.20850705750109866  0.039112480662417987  0.089386276942157214
 148    0.20162630780757834  0.00083431534373386144  0.098229338373999095
 149    0.2189064480527706  0.00090040595181057378  0.076810668368385709
 150    0.19643928495154508  -0.018383738423256326  0.10463715059536474
 151    0.20880064596422354  -0.037844329294278348  0.089608870702568413
 152    0.18440040309963357  -0.026657195955601214  0.12024889056789703
 153    0.18484418986162376  -0.054173581151398482  0.12011236680544909
 154    0.17272404915040568  -0.019308583769167654  0.13556871118267108
 155    0.16070877279250487  -0.039084503927725479  0.15046546101600383
 156    0.16766338532760808  -0.00082427490538238381  0.1416665574061505
 157    0.15028381077430131  -0.00088045131186083282  0.16300465179690379
 158    0.17255083597531135  0.018402648042009726  0.13498696396652796
 159    0.1604174964765771  0.037866491919574488  0.1501957737092261
 160    0.095051662360175038  0.027629837741790689  0.054749219643932187
 161    0.10564514949306551  0.019728372706142708  0.038983480311568688
 162    0.095157259994502322  0.055148880214258768  0.054990446113123599
 163    0.11620025369960361  0.039138685232636812  0.022576269016401484
 164    0.11028949633857663  0.00035880421789769409  0.03265055280998462
 165    0.12508957873783735  0.00035337155871219679  0.0094487302278552163
 166    0.10583007260318517  -0.019333063409122379  0.03932970398277981
 167    0.1165541096577576  -0.03864461266090706  0.02291549871967381
 168    0.09540864396185357  -0.027618877721495138  0.055483241462524424
 169    0.0956712793524616  -0.055137926474446167  0.05548749065185786
 170    0.085279441577199938  -0.019711411528556825  0.071545683753416606
 171    0.07460765592573447  -0.039116232563476336  0.087883766605551958
 172    0.080855385336925115  -0.00034948037713910174  0.078009338892538305
 173    0.065704516367540794  -0.00033341863675855684  0.1009836278078533
 174    0.084862247593270393  0.01935191427661969  0.071007033533400002
 175    0.074265927434545437  0.03866798012812616  0.087498687143191978
 176    -0.57049122453386714  0.025978065255824717  0.9999885183859567
 177    -0.55453392824690673  0.01981084597279829  0.99914424515101119
 178    -0.56645575499005696  0.020366041300766229  0.88946813377095524
 179    -0.54939978080671403  0.015247188062127262  0.89071518333985944
 180    -0.5712756089500941  0.053435253667351239  0.99829896658360495
 181    -0.53483497264580337  0.039002017990933356  0.99813572917819005
 182    -0.56699034760254563  0.047857419030156119  0.88832559232750818
 183    -0.53103356142318248  0.035714960482733586  0.89177316130070372
 184    -0.54878859135339464  0.0028486705993595934  0.99782965945385438
 185    -0.54288235880755231  0.0020742691061905404  0.89060028263682789
 186    -0.52128090039332897  0.0020509291000739859  0.99806963073783983
 187    -0.51550567773224465  0.0015463571404031404  0.89335812272075943
 188    -0.55744216149066939  -0.016867157559833722  0.99881238183922527
 189    -0.55148388823596084  -0.013166305906005116  0.89045412179109695
 190    -0.53775347951367281  -0.036083429091601962  0.9981358095242695
 191    -0.53304695078987241  -0.033553764688774836  0.89179498034486104
 192    -0.57619222721486518  -0.025979191603230888  1
 193    -0.57053776087036601  -0.020360739400627523  0.88941577718730847
 194    -0.5754309863699294  -0.053436329964343873  0.9982990869904621
 195    -0.5698121308377152  -0.047852393102502173  0.88839133711427076
 196    -0.59214385672963421  -0.019800909840913615  0.99922978416728747
 197    -0.58748484950105528  -0.015216634803928084  0.88712707788384793
 198    -0.61186331912247172  -0.038982171461237253  0.99846229132596442
 199    -0.60573963343270176  -0.035678403438890831  0.88479342675106232
 200    -0.59789288802131868  -0.0028344333013226122  0.99806176155609283
 201    -0.59383575347236339  -0.0020610571561186439  0.88552274971842093
 202    -0.62539726385749772  -0.0020228366008525843  0.99852830236813461
 203    -0.6212460715746595  -0.0015177345361151188  0.88312560522280914
 204    -0.58921818579634133  0.016880241806534642  0.99891775482305567
 205    -0.58532201707927467  0.013170363171925195  0.88682027258500162
 206    -0.60890846839333612  0.036101379762312008  0.99846205030610335
 207    -0.60368584540779024  0.033561162230610717  0.88473408885857074
 208    -0.55183554430036086  0.01712893596972128  0.7797227095362762
 209    -0.53438734341301264  0.012525484885093512  0.78336752662625109
 210    -0.55221133897608032  0.044640185561896785  0.77912524496825553
 211    -0.51703389433875546  0.033697367173310178  0.78619175134682784
 212    -0.52760793289751018  0.0014308641655309147  0.78447300475945525
 213    -0.50055631730245098  0.0011187442265424296  0.78952074826641094
 214    -0.535802287031099  -0.011118009266025478  0.78324344819861502
 215    -0.51834265416917391  -0.032169187773415112  0.78630549709571063
 216    -0.55457625353500839  -0.0171270661542747  0.77976145553161369
 217    -0.55401208510417954  -0.044638349512335113  0.77933950571767863
 218    -0.57192523775487292  -0.012494408655686488  0.77567513817414613
 219    -0.58914479977849954  -0.033662363814157645  0.77210142892538769
 220    -0.57853166845360671  -0.00141614522359599  0.7736789267109907
 221    -0.60558932825013723  -0.0010883189255081747  0.76866468540000743
 222    -0.5704000967498738  0.011119525995553986  0.77534002276891445
 223    -0.58778930677375352  0.032176710250151966  0.77193746407220154
 224    -0.52763704672103229  0.016297112398386625  0.67142986831544782
 225    -0.51078352122652204  0.011659170746095198  0.67774769880970709
 226    -0.52801194977663302  0.043814627798212678  0.67154315375384988
 227    -0.4939070146234481  0.032942437958871022  0.68217184859212798
 228    -0.50418577601101  0.00092875046134921913  0.68027169665449205
 229    -0.47753096717071869  0.0007548055457325401  0.68711698324638526
 230    -0.51170444401893644  -0.010759969871671301  0.67778687724178832
 231    -0.49474112680755156  -0.031934963903326993  0.68239475491123336
 232    -0.52939276743932329  -0.016295655010719667  0.67163467737542848
 233    -0.52913948693921165  -0.043813370113993076  0.67191439894173033
 234    -0.5463418877197368  -0.011655937178435816  0.66570839509685986
 235    -0.56319293032776208  -0.032928821790936424  0.66113961156541512
 236    -0.55298665522425405  -0.00090882209539338177  0.66343855655937856
 237    -0.57950987967119749  -0.00072196497120858042  0.65610025368859004
 238    -0.54530661259131763  0.010788939986434383  0.66532957335694842
 239    -0.56230862602477993  0.031964917575277377  0.66087126066753987
 240    -0.49511614834839635  0.018386269286166251  0.56552609184704639
 241    -0.47995892207514473  0.013028598619316949  0.57391403443673938
 242    -0.4955527662577221  0.045896189864747042  0.56614307987995283
 243    -0.46286627443444661  0.033663630922965697  0.58019128527844088
 244    -0.47393261855780383  0.00054363551237843124  0.57751638939085737
 245    -0.44787226055518542  0.00041697152965568008  0.58635995974915278
 246    -0.48058420169225913  -0.012508776770945626  0.57410627566082395
 247    -0.46348529803519622  -0.033107135686733326  0.58048609880682289
 248    -0.49628560687294954  -0.018376320089074881  0.56587044929498442
 249    -0.49639925659673978  -0.045886704481666984  0.56660043147519523
 250    -0.51179022731789792  -0.013070351078838477  0.55838509730403996
 251    -0.52901691234669335  -0.033681004375389824  0.55240100729140973
 252    -0.51814442959554208  -0.00051923822888092332  0.55579634288704527
 253    -0.54392465135544865  -0.00038410714372735609  0.54616675591400377
 254    -0.5110676780117096  0.012589410958641297  0.55798697510900297
 255    -0.52834999003057026  0.033175027931406122  0.55207756694873622
 256    -0.45305905334534008  0.021287147314714348  0.46389891924400128
 257    -0.4394070220618197  0.015127340773545217  0.47336908989513365
 258    -0.4534238323355525  0.048800322838787241  0.46440798558660501
 259    -0.42233155696627861  0.034991261389214795  0.48180829538004949
 260    -0.43391920140281892  0.00032569013954214776  0.47738800240445872
 261    -0.40901092839969133  0.00022299209943168108  0.48908990091647581
 262    -0.43993890064755881  -0.01480664193125396  0.47368906945863942
 263    -0.42288203822762549  -0.034678529758230547  0.48214711641114849
 264    -0.45398912639280359  -0.021274381554786982  0.46432401717998956
 265    -0.45419925404814238  -0.048787668096543481  0.46490878184288831
 266    -0.46791822604000249  -0.015175255679470681  0.45539234645155929
 267    -0.48520888801547912  -0.035016470411825748  0.44734708411490415
 268    -0.47371461743592436  -0.00030830740298033098  0.45206779009666359
 269    -0.4984545881019562  -0.00019629834781498831  0.44001422858619688
 270    -0.46733562757711122  0.014890112851924476  0.45501474374417855
 271    -0.48461563680765679  0.034752116551856303  0.44699794078492544
 272    -0.40017219291422157  0.023054447958541561  0.36749576445928972
 273    -0.38705548580900967  0.016504550641091915  0.37819566571166657
 274    -0.40049999092187549  0.050571856435147652  0.36772340204208676
 275    -0.37085836007579109  0.036170213656550439  0.38860152251521685
 276    -0.38173998655210639  0.00040380473742646105  0.38260227849277384
 277    -0.35845646595221348  0.0003494276762126542  0.39727339812560802
 278    -0.38767630258042918  -0.016077546910018763  0.37859616199715684
 279    -0.37137163494552061  -0.035672305635067743  0.388967771491041
 280    -0.40116410293029348  -0.023049023645368438  0.36786726499080463
 281    -0.40123297979771977  -0.050566489569054393  0.36825632126853236
 282    -0.41420098313879172  -0.01654815650003769  0.35700121545873209
 283    -0.43080860096056728  -0.036195985456940249  0.34722794132784318
 284    -0.41957718226760393  -0.00040891502544966493  0.35264760800435285
 285    -0.44317717902729603  -0.00033803831653753591  0.3384912606963083
 286    -0.41364289036590057  0.016130099756117667  0.35673624618795113
 287    -0.43025306492587306  0.035725103920779482  0.34686178658018302
 288    -0.3375493658706018  0.024384786425010078  0.27687624377972248
 289    -0.32448129974534545  0.017664949849065009  0.28946988028422582
 290    -0.3380180073746219  0.051901087653038559  0.27690035892898018
 291    -0.30965610265324345  0.037520687394535304  0.30144194181836004
 292    -0.31920438715071053  0.00078509445482909882  0.29464943562678447
 293    -0.29768805624813299  0.00079351682282744959  0.3118079458542416
 294    -0.32525810554612711  -0.016805198440286592  0.28977642380265117
 295    -0.31015503649162152  -0.036407261952875511  0.30181899208581114
 296    -0.3388257638506818  -0.024388714212467001  0.27699373860551407
 297    -0.33873987773751324  -0.051905129603639584  0.27744821332132602
 298    -0.35170113111649393  -0.017707153170065486  0.26412284618881832
 299    -0.36705172572281985  -0.037543453782324168  0.25279820655112289
 300    -0.356948398778138  -0.00079654341989981059  0.25885835012316627
 301    -0.37899185965777255  -0.00078184608042347994  0.24238252977613864
 302    -0.35102682201526181  0.016841451801472646  0.26398554030143118
 303    -0.36650016916058542  0.036447533557632812  0.25242941093375687
 304    -0.26530447537221491  0.025560853825777097  0.19382748997032404
 305    -0.25263404943168011  0.018652818382732493  0.2081508016415721
 306    -0.26585980634462825  0.053075196972450923  0.19368760291059914
 307    -0.23927440579894813  0.038633857600425814  0.22155397415626726
 308    -0.24751648418870281  0.0010509598818432271  0.21407439699493108
 309    -0.22796249086726114  0.0011232130044041399  0.23343939542877348
 310    -0.25339667536108401  -0.017479362346235663  0.20829492259164001
 311    -0.23973515484099442  -0.037064713608538698  0.22197497787963766
 312    -0.26667190485911013  -0.025571844923136321  0.19375331543034569
 313    -0.26652886714833085  -0.053086367699609165  0.19429885760797225
 314    -0.27939561678740477  -0.018672639100979913  0.17948548831605854
 315    -0.29306355176597448  -0.038639152796305781  0.16637469413922693
 316    -0.28459288940606697  -0.0010464242916810101  0.173642856602786
 317    -0.30433385674618857  -0.0010988609810313704  0.15446843357258305
 318    -0.27861235570610593  0.017504084274633291  0.17935447802402288
 319    -0.29255063919299545  0.037096992034674849  0.16596757178632437
 320    -0.18385540364494726  0.026663517558679312  0.11976372395576249
 321    -0.17232532562246225  0.019402077300086057  0.13520958194595287
 322    -0.18435966567626097  0.054178384543143041  0.11955193561245749
 323    -0.16036947920338068  0.039238253337654232  0.15007399906473906
 324    -0.16766568891159417  0.00096869515501406657  0.14166886531363235
 325    -0.15028625624418024  0.0010947291233702392  0.16300677700313243
 326    -0.17294514294468488  -0.018298846696486539  0.13535575965637517
 327    -0.16075622010862986  -0.037705379416997954  0.15059333451380447
 328    -0.18502108576362253  -0.026673865444119527  0.1197672858503632
 329    -0.18492214219541825  -0.054188861093965764  0.12029857130147736
 330    -0.19679806163107957  -0.019406622587929193  0.10453771989496531
 331    -0.20886817593995802  -0.039229726696565902  0.08974840200196918
 332    -0.2016279878175545  -0.00095446058962105626  0.098230517571236797
 333    -0.21890816773580157  -0.0010648330758482186  0.076812061987824878
 334    -0.19606629703981657  0.018319818875797034  0.1043309032118329
 335    -0.20843811499353165  0.037734419424356146  0.089251830105991609
 336    -0.094789912375135441  0.027623758584047944  0.054986990333190711
 337    -0.0848365105446474  0.019940508207475172  0.071164465794017029
 338    -0.095187426243127149  0.055140428500213015  0.054782297585672962
 339    -0.074270634685621881  0.039497924185354916  0.087389039356090867
 340    -0.080857594705917177  0.00070521614258047937  0.078011609496135711
 341    -0.065706447031205442  0.00086283419829047414  0.10098517953561791
 342    -0.085302087699611034  -0.019115718890886254  0.071397479243690734
 343    -0.074603687180858066  -0.038282497322377027  0.08799705365298717
 344    -0.095693025755854116  -0.027629914919314786  0.055209731214931557
 345    -0.095670887155442294  -0.055146685428741814  0.055650060960935777
 346    -0.10605710866293223  -0.019933810474041778  0.03931581677101538
 347    -0.11656008178431262  -0.039478301573186776  0.02303492419848337
 348    -0.11029128393519883  -0.00068691727042170109  0.032651164321409243
 349    -0.1250908436388698  -0.00083215216593618998  0.0094494622486318743
 350    -0.10541788526129557  0.019135812564433068  0.039000658727939758
 351    -0.11619421055077299  0.038309235567932788  0.022459265096943504
 352    0.053857503617599396  0.030316074944310031  -0.0093237839068031434
 353    0.072707116471975461  0.021391659680491948  -0.018263906796405358
 354    -1.7200425676318448e-05  0.056665314781266879  0.0016545821476326317
 355    0.066553684270628882  0.042885117041187241  -0.027101625704893495
 356    0.080563863893200804  7.4945670222118345e-05  -0.021788715639121971
 357    0.091509536172674225  -6.012292755607011e-06  -0.033745389253571616
 358    0.072737106996811352  -0.021350624525081199  -0.018045110931295714
 359    0.06671347069154708  -0.042890462795385068  -0.026882790111643486
 360    0.05391247758425162  -0.030313592847783611  -0.0088711069306357335
 361    -6.2422968072645821e-06  -0.056664684023504094  0.0021386812784827602
 362    0.035225379995026958  -0.021365994710176389  0.00024850636150359795
 363    5.8785615672533153e-06  -0.038792580872137931  0.058876848716177377
 364    0.02747210489355964  -4.9640813570650162e-06  0.0038175544986714643
 365    -7.0005347236572539e-07  0.00035633547985692345  0.07210083646235943
 366    0.035127737487255582  0.021411667592590701  -8.9583048593968394e-05
 367    -6.5372221032179628e-06  0.039307778976421508  0.058315108600472183
 368    -0.053702703656195623  0.030314758517386294  -0.0091854661829658263
 369    -0.035083609036106675  0.021544640319651587  4.8447270596435413e-06
 370    -0.027472470038506381  0.00027426942896881793  0.00381866757285857
 371    -0.035268713615128053  -0.021232623703669601  0.00015818025847098591
 372    -0.054099721042484415  -0.030317363882097506  -0.0090298398938135297
 373    -0.072864529649911178  -0.021527063250990807  -0.018057691638769947
 374    -0.066749628635481686  -0.04311083564264985  -0.02684118422485425
 375    -0.08056430147560413  -0.0002834840402724448  -0.021788417059746181
 376    -0.091509906421825341  -0.00030204580985579031  -0.033745254101602708
 377    -0.072580719296520629  0.021216787731661337  -0.018250172180988244
 378    -0.066517688959684171  0.042665722401305305  -0.027142995232256613
 379    0.046440510161539175  0.0326803590025646  -0.091734341059830457
 380    0.069549013623863523  0.023108503462324185  -0.091734341059830457
 381    1.9096045798770122e-17  0.05962732168888981  -0.091734341059830457
 382    0.065003886593244437  0.047269090705314779  -0.09173434105983054
 383    0.079120868073289649  -8.443718658147171e-06  -0.091734341059830457
 384    0.10664116523129352  -2.0415697317435003e-05  -0.091734341059830554
 385    0.069540290182177014  -0.023117223612160939  -0.091734341059830429
 386    0.064964513909760421  -0.047286010247877756  -0.091734341059830415
 387    0.046423622724786305  -0.032680354639308663  -0.09173434105983054
 388    -3.5927658297338214e-05  -0.059627318304944693  -0.091734341059830374
 389    0.023317320820119572  -0.023093808244145645  -0.091734341059830277
 390    -2.6945743722876351e-05  -0.029813658306486007  -0.091734341059830374
 391    0.013760160976300036  2.5331153719743381e-05  -0.091734341059830415
 392    -1.79638291485819e-05  1.69197266962989e-09  -0.091734341059830277
 393    0.023352676288706666  0.023129154580247679  -0.091734341059830499
 394    -8.9819145742861761e-06  0.029813661690431235  -0.09173434105983054
 395    -0.046440510161539175  0.0326803590025646  -0.091734341059830429
 396    -0.023332006699214973  0.023108503462324192  -0.091734341059830332
 397    -0.013760152249788469  -8.4437186581866359e-06  -0.091734341059830554
 398    -0.023340730140901461  -0.023117223612160939  -0.091734341059830457
 399    -0.046457397598291865  -0.032680354639308684  -0.091734341059830429
 400    -0.06956369950295882  -0.023093808244145475  -0.091734341059830499
 401    -0.065043725689693702  -0.047251954125842287  -0.091734341059830332
 402    -0.079120859346778233  2.5331153719720464e-05  -0.091734341059830624
 403    -0.10664110727710199  6.5430771340393212e-05  -0.091734341059830429
 404    -0.069528344034371414  0.023129154580247762  -0.091734341059830624
 405    -0.064924410139280991  0.047303227204734226  -0.091734341059830471
 406    0.046440510161539175  0.032680359002564607  -0.18346868211966091
 407    0.06954901362386337  0.023108503462324233  -0.18346868211966091
 408    1.0184557759344066e-17  0.059627321688889796  -0.18346868211966091
 409    0.065003886593244284  0.047269090705314799  -0.18346868211966091
 410    0.079120868073289802  -8.4437186581611758e-06  -0.18346868211966091
 411    0.10664116523129388  -2.041569731742991e-05  -0.18346868211966091
 412    0.069540290182176903  -0.02311722361216096  -0.18346868211966091
 413    0.064964513909760671  -0.047286010247877742  -0.18346868211966091
 414    0.046423622724786437  -0.032680354639308726  -0.18346868211966091
 415    -3.5927658297368768e-05  -0.059627318304944547  -0.18346868211966091
 416    0.023317320820119579  -0.023093808244145555  -0.18346868211966091
 417    -2.69457437228713e-05  -0.029813658306485972  -0.18346868211966091
 418    0.013760160976300095  2.5331153719749744e-05  -0.18346868211966091
 419    -1.7963829148581453e-05  1.6919726543530534e-09  -0.18346868211966091
 420    0.023352676288706683  0.023129154580247731  -0.18346868211966091
 421    -8.9819145742874449e-06  0.029813661690431214  -0.18346868211966091
 422    -0.046440510161539175  0.032680359002564607  -0.18346868211966091
 423    -0.023332006699214859  0.023108503462324327  -0.18346868211966091
 424    -0.013760152249788594  -8.4437186581586296e-06  -0.18346868211966091
 425    -0.02334073014090144  -0.023117223612160939  -0.18346868211966091
 426    -0.046457397598291927  -0.032680354639308726  -0.18346868211966091
 427    -0.069563699502958737  -0.023093808244145513  -0.18346868211966091
 428    -0.065043725689693785  -0.047251954125842259  -0.18346868211966091
 429    -0.079120859346778191  2.5331153719790483e-05  -0.18346868211966091
 430    -0.10664110727710199  6.5430771340398307e-05  -0.18346868211966091
 431    -0.069528344034371636  0.023129154580247752  -0.18346868211966091
 432    -0.064924410139280506  0.047303227204734212  -0.18346868211966091
# Generated by tetgen uterus_scaffold_1_norm.ele -k 
