1876  1
    0      1     0     6    1
    1      1     3     0    1
    2      3     2     0    1
    3      7     1     6    1
    4      3     5     2    1
    5      5     4     2    1
    6     12     1     7    1
    7     12    13     1    1
    8     13     3     1    1
    9     15    12     7    1
   10     13    14     3    1
   11     14     5     3    1
   12     18    12    15    1
   13     18    19    12    1
   14     19    13    12    1
   15     21    18    15    1
   16     19    20    13    1
   17     20    14    13    1
   18     24    18    21    1
   19     24    25    18    1
   20     25    19    18    1
   21     27    24    21    1
   22     25    26    19    1
   23     26    20    19    1
   24     30    24    27    1
   25     30    31    24    1
   26     31    25    24    1
   27     33    30    27    1
   28     31    32    25    1
   29     32    26    25    1
   30     36    30    33    1
   31     36    37    30    1
   32     37    31    30    1
   33     39    36    33    1
   34     37    38    31    1
   35     38    32    31    1
   36     42    36    39    1
   37     42    43    36    1
   38     43    37    36    1
   39     45    42    39    1
   40     43    44    37    1
   41     44    38    37    1
   42      0    42    45    1
   43      0     2    42    1
   44      2    43    42    1
   45      6     0    45    1
   46      2     4    43    1
   47      4    44    43    1
   48      7     6    48    1
   49     49     7    48    1
   50     51    49    48    1
   51     50    51    48    1
   52     53    51    50    1
   53     52    53    50    1
   54     15     7    49    1
   55     54    15    49    1
   56     55    54    49    1
   57     51    55    49    1
   58     56    55    51    1
   59     53    56    51    1
   60     21    15    54    1
   61     57    21    54    1
   62     58    57    54    1
   63     55    58    54    1
   64     59    58    55    1
   65     56    59    55    1
   66     27    21    57    1
   67     60    27    57    1
   68     61    60    57    1
   69     58    61    57    1
   70     62    61    58    1
   71     59    62    58    1
   72     33    27    60    1
   73     63    33    60    1
   74     64    63    60    1
   75     61    64    60    1
   76     65    64    61    1
   77     62    65    61    1
   78     39    33    63    1
   79     66    39    63    1
   80     67    66    63    1
   81     64    67    63    1
   82     68    67    64    1
   83     65    68    64    1
   84     45    39    66    1
   85     69    45    66    1
   86     70    69    66    1
   87     67    70    66    1
   88     71    70    67    1
   89     68    71    67    1
   90      6    45    69    1
   91     48     6    69    1
   92     50    48    69    1
   93     70    50    69    1
   94     52    50    70    1
   95     71    52    70    1
   96      5    73     4    1
   97     73    72     4    1
   98     73    75    72    1
   99     75    74    72    1
  100     14    80     5    1
  101     80    73     5    1
  102     80    81    73    1
  103     81    75    73    1
  104     20    84    14    1
  105     84    80    14    1
  106     84    85    80    1
  107     85    81    80    1
  108     26    88    20    1
  109     88    84    20    1
  110     88    89    84    1
  111     89    85    84    1
  112     32    92    26    1
  113     92    88    26    1
  114     92    93    88    1
  115     93    89    88    1
  116     38    96    32    1
  117     96    92    32    1
  118     96    97    92    1
  119     97    93    92    1
  120     44   100    38    1
  121    100    96    38    1
  122    100   101    96    1
  123    101    97    96    1
  124      4    72    44    1
  125     72   100    44    1
  126     72    74   100    1
  127     74   101   100    1
  128    105    53    52    1
  129    104   105    52    1
  130    107   105   104    1
  131    106   107   104    1
  132    108    56    53    1
  133    105   108    53    1
  134    109   108   105    1
  135    107   109   105    1
  136    110    59    56    1
  137    108   110    56    1
  138    111   110   108    1
  139    109   111   108    1
  140    112    62    59    1
  141    110   112    59    1
  142    113   112   110    1
  143    111   113   110    1
  144    114    65    62    1
  145    112   114    62    1
  146    115   114   112    1
  147    113   115   112    1
  148    116    68    65    1
  149    114   116    65    1
  150    117   116   114    1
  151    115   117   114    1
  152    118    71    68    1
  153    116   118    68    1
  154    119   118   116    1
  155    117   119   116    1
  156    104    52    71    1
  157    118   104    71    1
  158    106   104   118    1
  159    119   106   118    1
  160     75   121    74    1
  161    121   120    74    1
  162    121   123   120    1
  163    123   122   120    1
  164     81   128    75    1
  165    128   121    75    1
  166    128   129   121    1
  167    129   123   121    1
  168     85   132    81    1
  169    132   128    81    1
  170    132   133   128    1
  171    133   129   128    1
  172     89   136    85    1
  173    136   132    85    1
  174    136   137   132    1
  175    137   133   132    1
  176     93   140    89    1
  177    140   136    89    1
  178    140   141   136    1
  179    141   137   136    1
  180     97   144    93    1
  181    144   140    93    1
  182    144   145   140    1
  183    145   141   140    1
  184    101   148    97    1
  185    148   144    97    1
  186    148   149   144    1
  187    149   145   144    1
  188     74   120   101    1
  189    120   148   101    1
  190    120   122   148    1
  191    122   149   148    1
  192    153   107   106    1
  193    152   153   106    1
  194    155   153   152    1
  195    154   155   152    1
  196    156   109   107    1
  197    153   156   107    1
  198    157   156   153    1
  199    155   157   153    1
  200    158   111   109    1
  201    156   158   109    1
  202    159   158   156    1
  203    157   159   156    1
  204    160   113   111    1
  205    158   160   111    1
  206    161   160   158    1
  207    159   161   158    1
  208    162   115   113    1
  209    160   162   113    1
  210    163   162   160    1
  211    161   163   160    1
  212    164   117   115    1
  213    162   164   115    1
  214    165   164   162    1
  215    163   165   162    1
  216    166   119   117    1
  217    164   166   117    1
  218    167   166   164    1
  219    165   167   164    1
  220    152   106   119    1
  221    166   152   119    1
  222    154   152   166    1
  223    167   154   166    1
  224    123   169   122    1
  225    169   168   122    1
  226    169   171   168    1
  227    171   170   168    1
  228    129   176   123    1
  229    176   169   123    1
  230    176   177   169    1
  231    177   171   169    1
  232    133   180   129    1
  233    180   176   129    1
  234    180   181   176    1
  235    181   177   176    1
  236    137   184   133    1
  237    184   180   133    1
  238    184   185   180    1
  239    185   181   180    1
  240    141   188   137    1
  241    188   184   137    1
  242    188   189   184    1
  243    189   185   184    1
  244    145   192   141    1
  245    192   188   141    1
  246    192   193   188    1
  247    193   189   188    1
  248    149   196   145    1
  249    196   192   145    1
  250    196   197   192    1
  251    197   193   192    1
  252    122   168   149    1
  253    168   196   149    1
  254    168   170   196    1
  255    170   197   196    1
  256    201   155   154    1
  257    200   201   154    1
  258    203   201   200    1
  259    202   203   200    1
  260    204   157   155    1
  261    201   204   155    1
  262    205   204   201    1
  263    203   205   201    1
  264    206   159   157    1
  265    204   206   157    1
  266    207   206   204    1
  267    205   207   204    1
  268    208   161   159    1
  269    206   208   159    1
  270    209   208   206    1
  271    207   209   206    1
  272    210   163   161    1
  273    208   210   161    1
  274    211   210   208    1
  275    209   211   208    1
  276    212   165   163    1
  277    210   212   163    1
  278    213   212   210    1
  279    211   213   210    1
  280    214   167   165    1
  281    212   214   165    1
  282    215   214   212    1
  283    213   215   212    1
  284    200   154   167    1
  285    214   200   167    1
  286    202   200   214    1
  287    215   202   214    1
  288    171   217   170    1
  289    217   216   170    1
  290    217   219   216    1
  291    219   218   216    1
  292    177   224   171    1
  293    224   217   171    1
  294    224   225   217    1
  295    225   219   217    1
  296    181   228   177    1
  297    228   224   177    1
  298    228   229   224    1
  299    229   225   224    1
  300    185   232   181    1
  301    232   228   181    1
  302    232   233   228    1
  303    233   229   228    1
  304    189   236   185    1
  305    236   232   185    1
  306    236   237   232    1
  307    237   233   232    1
  308    193   240   189    1
  309    240   236   189    1
  310    240   241   236    1
  311    241   237   236    1
  312    197   244   193    1
  313    244   240   193    1
  314    244   245   240    1
  315    245   241   240    1
  316    170   216   197    1
  317    216   244   197    1
  318    216   218   244    1
  319    218   245   244    1
  320    249   203   202    1
  321    248   249   202    1
  322    251   249   248    1
  323    250   251   248    1
  324    252   205   203    1
  325    249   252   203    1
  326    253   252   249    1
  327    251   253   249    1
  328    254   207   205    1
  329    252   254   205    1
  330    255   254   252    1
  331    253   255   252    1
  332    256   209   207    1
  333    254   256   207    1
  334    257   256   254    1
  335    255   257   254    1
  336    258   211   209    1
  337    256   258   209    1
  338    259   258   256    1
  339    257   259   256    1
  340    260   213   211    1
  341    258   260   211    1
  342    261   260   258    1
  343    259   261   258    1
  344    262   215   213    1
  345    260   262   213    1
  346    263   262   260    1
  347    261   263   260    1
  348    248   202   215    1
  349    262   248   215    1
  350    250   248   262    1
  351    263   250   262    1
  352    219   265   218    1
  353    265   264   218    1
  354    265   267   264    1
  355    267   266   264    1
  356    225   272   219    1
  357    272   265   219    1
  358    272   273   265    1
  359    273   267   265    1
  360    229   276   225    1
  361    276   272   225    1
  362    276   277   272    1
  363    277   273   272    1
  364    233   280   229    1
  365    280   276   229    1
  366    280   281   276    1
  367    281   277   276    1
  368    237   284   233    1
  369    284   280   233    1
  370    284   285   280    1
  371    285   281   280    1
  372    241   288   237    1
  373    288   284   237    1
  374    288   289   284    1
  375    289   285   284    1
  376    245   292   241    1
  377    292   288   241    1
  378    292   293   288    1
  379    293   289   288    1
  380    218   264   245    1
  381    264   292   245    1
  382    264   266   292    1
  383    266   293   292    1
  384    297   251   250    1
  385    296   297   250    1
  386    299   297   296    1
  387    298   299   296    1
  388    300   253   251    1
  389    297   300   251    1
  390    301   300   297    1
  391    299   301   297    1
  392    302   255   253    1
  393    300   302   253    1
  394    303   302   300    1
  395    301   303   300    1
  396    304   257   255    1
  397    302   304   255    1
  398    305   304   302    1
  399    303   305   302    1
  400    306   259   257    1
  401    304   306   257    1
  402    307   306   304    1
  403    305   307   304    1
  404    308   261   259    1
  405    306   308   259    1
  406    309   308   306    1
  407    307   309   306    1
  408    310   263   261    1
  409    308   310   261    1
  410    311   310   308    1
  411    309   311   308    1
  412    296   250   263    1
  413    310   296   263    1
  414    298   296   310    1
  415    311   298   310    1
  416    267   313   266    1
  417    313   312   266    1
  418    313   315   312    1
  419    315   314   312    1
  420    273   320   267    1
  421    320   313   267    1
  422    320   321   313    1
  423    321   315   313    1
  424    277   324   273    1
  425    324   320   273    1
  426    324   325   320    1
  427    325   321   320    1
  428    281   328   277    1
  429    328   324   277    1
  430    328   329   324    1
  431    329   325   324    1
  432    285   332   281    1
  433    332   328   281    1
  434    332   333   328    1
  435    333   329   328    1
  436    289   336   285    1
  437    336   332   285    1
  438    336   337   332    1
  439    337   333   332    1
  440    293   340   289    1
  441    340   336   289    1
  442    340   341   336    1
  443    341   337   336    1
  444    266   312   293    1
  445    312   340   293    1
  446    312   314   340    1
  447    314   341   340    1
  448    345   299   298    1
  449    344   345   298    1
  450    347   345   344    1
  451    346   347   344    1
  452    348   301   299    1
  453    345   348   299    1
  454    349   348   345    1
  455    347   349   345    1
  456    350   303   301    1
  457    348   350   301    1
  458    351   350   348    1
  459    349   351   348    1
  460    352   305   303    1
  461    350   352   303    1
  462    353   352   350    1
  463    351   353   350    1
  464    354   307   305    1
  465    352   354   305    1
  466    355   354   352    1
  467    353   355   352    1
  468    356   309   307    1
  469    354   356   307    1
  470    357   356   354    1
  471    355   357   354    1
  472    358   311   309    1
  473    356   358   309    1
  474    359   358   356    1
  475    357   359   356    1
  476    344   298   311    1
  477    358   344   311    1
  478    346   344   358    1
  479    359   346   358    1
  480    315   361   314    1
  481    361   360   314    1
  482    361   363   360    1
  483    363   362   360    1
  484    321   368   315    1
  485    368   361   315    1
  486    368   369   361    1
  487    369   363   361    1
  488    325   372   321    1
  489    372   368   321    1
  490    372   373   368    1
  491    373   369   368    1
  492    329   376   325    1
  493    376   372   325    1
  494    376   377   372    1
  495    377   373   372    1
  496    333   380   329    1
  497    380   376   329    1
  498    380   381   376    1
  499    381   377   376    1
  500    337   384   333    1
  501    384   380   333    1
  502    384   385   380    1
  503    385   381   380    1
  504    341   388   337    1
  505    388   384   337    1
  506    388   389   384    1
  507    389   385   384    1
  508    314   360   341    1
  509    360   388   341    1
  510    360   362   388    1
  511    362   389   388    1
  512    393   347   346    1
  513    392   393   346    1
  514    395   393   392    1
  515    394   395   392    1
  516    396   349   347    1
  517    393   396   347    1
  518    397   396   393    1
  519    395   397   393    1
  520    398   351   349    1
  521    396   398   349    1
  522    399   398   396    1
  523    397   399   396    1
  524    400   353   351    1
  525    398   400   351    1
  526    401   400   398    1
  527    399   401   398    1
  528    402   355   353    1
  529    400   402   353    1
  530    403   402   400    1
  531    401   403   400    1
  532    404   357   355    1
  533    402   404   355    1
  534    405   404   402    1
  535    403   405   402    1
  536    406   359   357    1
  537    404   406   357    1
  538    407   406   404    1
  539    405   407   404    1
  540    392   346   359    1
  541    406   392   359    1
  542    394   392   406    1
  543    407   394   406    1
  544    363   409   362    1
  545    409   408   362    1
  546    409   411   408    1
  547    411   410   408    1
  548    369   416   363    1
  549    416   409   363    1
  550    416   417   409    1
  551    417   411   409    1
  552    373   420   369    1
  553    420   416   369    1
  554    420   421   416    1
  555    421   417   416    1
  556    377   424   373    1
  557    424   420   373    1
  558    424   425   420    1
  559    425   421   420    1
  560    381   428   377    1
  561    428   424   377    1
  562    428   429   424    1
  563    429   425   424    1
  564    385   432   381    1
  565    432   428   381    1
  566    432   433   428    1
  567    433   429   428    1
  568    389   436   385    1
  569    436   432   385    1
  570    436   437   432    1
  571    437   433   432    1
  572    362   408   389    1
  573    408   436   389    1
  574    408   410   436    1
  575    410   437   436    1
  576    441   395   394    1
  577    440   441   394    1
  578    443   441   440    1
  579    442   443   440    1
  580    444   397   395    1
  581    441   444   395    1
  582    445   444   441    1
  583    443   445   441    1
  584    446   399   397    1
  585    444   446   397    1
  586    447   446   444    1
  587    445   447   444    1
  588    448   401   399    1
  589    446   448   399    1
  590    449   448   446    1
  591    447   449   446    1
  592    450   403   401    1
  593    448   450   401    1
  594    451   450   448    1
  595    449   451   448    1
  596    452   405   403    1
  597    450   452   403    1
  598    453   452   450    1
  599    451   453   450    1
  600    454   407   405    1
  601    452   454   405    1
  602    455   454   452    1
  603    453   455   452    1
  604    440   394   407    1
  605    454   440   407    1
  606    442   440   454    1
  607    455   442   454    1
  608    411   457   410    1
  609    457   456   410    1
  610    457   459   456    1
  611    459   458   456    1
  612    417   464   411    1
  613    464   457   411    1
  614    464   465   457    1
  615    465   459   457    1
  616    421   468   417    1
  617    468   464   417    1
  618    468   469   464    1
  619    469   465   464    1
  620    425   472   421    1
  621    472   468   421    1
  622    472   473   468    1
  623    473   469   468    1
  624    429   476   425    1
  625    476   472   425    1
  626    476   477   472    1
  627    477   473   472    1
  628    433   480   429    1
  629    480   476   429    1
  630    480   481   476    1
  631    481   477   476    1
  632    437   484   433    1
  633    484   480   433    1
  634    484   485   480    1
  635    485   481   480    1
  636    410   456   437    1
  637    456   484   437    1
  638    456   458   484    1
  639    458   485   484    1
  640    489   443   442    1
  641    488   489   442    1
  642    491   489   488    1
  643    490   491   488    1
  644    492   445   443    1
  645    489   492   443    1
  646    493   492   489    1
  647    491   493   489    1
  648    494   447   445    1
  649    492   494   445    1
  650    495   494   492    1
  651    493   495   492    1
  652    496   449   447    1
  653    494   496   447    1
  654    497   496   494    1
  655    495   497   494    1
  656    498   451   449    1
  657    496   498   449    1
  658    499   498   496    1
  659    497   499   496    1
  660    500   453   451    1
  661    498   500   451    1
  662    501   500   498    1
  663    499   501   498    1
  664    502   455   453    1
  665    500   502   453    1
  666    503   502   500    1
  667    501   503   500    1
  668    488   442   455    1
  669    502   488   455    1
  670    490   488   502    1
  671    503   490   502    1
  672    505   504   510    1
  673    505   507   504    1
  674    507   506   504    1
  675    511   505   510    1
  676    507   509   506    1
  677    509   508   506    1
  678    516   505   511    1
  679    516   517   505    1
  680    517   507   505    1
  681    519   516   511    1
  682    517   518   507    1
  683    518   509   507    1
  684    522   516   519    1
  685    522   523   516    1
  686    523   517   516    1
  687    525   522   519    1
  688    523   524   517    1
  689    524   518   517    1
  690    528   522   525    1
  691    528   529   522    1
  692    529   523   522    1
  693    531   528   525    1
  694    529   530   523    1
  695    530   524   523    1
  696    534   528   531    1
  697    534   535   528    1
  698    535   529   528    1
  699    537   534   531    1
  700    535   536   529    1
  701    536   530   529    1
  702    540   534   537    1
  703    540   541   534    1
  704    541   535   534    1
  705    543   540   537    1
  706    541   542   535    1
  707    542   536   535    1
  708    546   540   543    1
  709    546   547   540    1
  710    547   541   540    1
  711    549   546   543    1
  712    547   548   541    1
  713    548   542   541    1
  714    504   546   549    1
  715    504   506   546    1
  716    506   547   546    1
  717    510   504   549    1
  718    506   508   547    1
  719    508   548   547    1
  720    511   510   552    1
  721    553   511   552    1
  722    555   553   552    1
  723    554   555   552    1
  724    557   555   554    1
  725    556   557   554    1
  726    519   511   553    1
  727    558   519   553    1
  728    559   558   553    1
  729    555   559   553    1
  730    560   559   555    1
  731    557   560   555    1
  732    525   519   558    1
  733    561   525   558    1
  734    562   561   558    1
  735    559   562   558    1
  736    563   562   559    1
  737    560   563   559    1
  738    531   525   561    1
  739    564   531   561    1
  740    565   564   561    1
  741    562   565   561    1
  742    566   565   562    1
  743    563   566   562    1
  744    537   531   564    1
  745    567   537   564    1
  746    568   567   564    1
  747    565   568   564    1
  748    569   568   565    1
  749    566   569   565    1
  750    543   537   567    1
  751    570   543   567    1
  752    571   570   567    1
  753    568   571   567    1
  754    572   571   568    1
  755    569   572   568    1
  756    549   543   570    1
  757    573   549   570    1
  758    574   573   570    1
  759    571   574   570    1
  760    575   574   571    1
  761    572   575   571    1
  762    510   549   573    1
  763    552   510   573    1
  764    554   552   573    1
  765    574   554   573    1
  766    556   554   574    1
  767    575   556   574    1
  768    509   577   508    1
  769    577   576   508    1
  770    577   579   576    1
  771    579   578   576    1
  772    518   584   509    1
  773    584   577   509    1
  774    584   585   577    1
  775    585   579   577    1
  776    524   588   518    1
  777    588   584   518    1
  778    588   589   584    1
  779    589   585   584    1
  780    530   592   524    1
  781    592   588   524    1
  782    592   593   588    1
  783    593   589   588    1
  784    536   596   530    1
  785    596   592   530    1
  786    596   597   592    1
  787    597   593   592    1
  788    542   600   536    1
  789    600   596   536    1
  790    600   601   596    1
  791    601   597   596    1
  792    548   604   542    1
  793    604   600   542    1
  794    604   605   600    1
  795    605   601   600    1
  796    508   576   548    1
  797    576   604   548    1
  798    576   578   604    1
  799    578   605   604    1
  800    609   557   556    1
  801    608   609   556    1
  802    611   609   608    1
  803    610   611   608    1
  804    612   560   557    1
  805    609   612   557    1
  806    613   612   609    1
  807    611   613   609    1
  808    614   563   560    1
  809    612   614   560    1
  810    615   614   612    1
  811    613   615   612    1
  812    616   566   563    1
  813    614   616   563    1
  814    617   616   614    1
  815    615   617   614    1
  816    618   569   566    1
  817    616   618   566    1
  818    619   618   616    1
  819    617   619   616    1
  820    620   572   569    1
  821    618   620   569    1
  822    621   620   618    1
  823    619   621   618    1
  824    622   575   572    1
  825    620   622   572    1
  826    623   622   620    1
  827    621   623   620    1
  828    608   556   575    1
  829    622   608   575    1
  830    610   608   622    1
  831    623   610   622    1
  832    579   625   578    1
  833    625   624   578    1
  834    625   627   624    1
  835    627   626   624    1
  836    585   632   579    1
  837    632   625   579    1
  838    632   633   625    1
  839    633   627   625    1
  840    589   636   585    1
  841    636   632   585    1
  842    636   637   632    1
  843    637   633   632    1
  844    593   640   589    1
  845    640   636   589    1
  846    640   641   636    1
  847    641   637   636    1
  848    597   644   593    1
  849    644   640   593    1
  850    644   645   640    1
  851    645   641   640    1
  852    601   648   597    1
  853    648   644   597    1
  854    648   649   644    1
  855    649   645   644    1
  856    605   652   601    1
  857    652   648   601    1
  858    652   653   648    1
  859    653   649   648    1
  860    578   624   605    1
  861    624   652   605    1
  862    624   626   652    1
  863    626   653   652    1
  864    657   611   610    1
  865    656   657   610    1
  866    659   657   656    1
  867    658   659   656    1
  868    660   613   611    1
  869    657   660   611    1
  870    661   660   657    1
  871    659   661   657    1
  872    662   615   613    1
  873    660   662   613    1
  874    663   662   660    1
  875    661   663   660    1
  876    664   617   615    1
  877    662   664   615    1
  878    665   664   662    1
  879    663   665   662    1
  880    666   619   617    1
  881    664   666   617    1
  882    667   666   664    1
  883    665   667   664    1
  884    668   621   619    1
  885    666   668   619    1
  886    669   668   666    1
  887    667   669   666    1
  888    670   623   621    1
  889    668   670   621    1
  890    671   670   668    1
  891    669   671   668    1
  892    656   610   623    1
  893    670   656   623    1
  894    658   656   670    1
  895    671   658   670    1
  896    627   673   626    1
  897    673   672   626    1
  898    673   675   672    1
  899    675   674   672    1
  900    633   680   627    1
  901    680   673   627    1
  902    680   681   673    1
  903    681   675   673    1
  904    637   684   633    1
  905    684   680   633    1
  906    684   685   680    1
  907    685   681   680    1
  908    641   688   637    1
  909    688   684   637    1
  910    688   689   684    1
  911    689   685   684    1
  912    645   692   641    1
  913    692   688   641    1
  914    692   693   688    1
  915    693   689   688    1
  916    649   696   645    1
  917    696   692   645    1
  918    696   697   692    1
  919    697   693   692    1
  920    653   700   649    1
  921    700   696   649    1
  922    700   701   696    1
  923    701   697   696    1
  924    626   672   653    1
  925    672   700   653    1
  926    672   674   700    1
  927    674   701   700    1
  928    705   659   658    1
  929    704   705   658    1
  930    707   705   704    1
  931    706   707   704    1
  932    708   661   659    1
  933    705   708   659    1
  934    709   708   705    1
  935    707   709   705    1
  936    710   663   661    1
  937    708   710   661    1
  938    711   710   708    1
  939    709   711   708    1
  940    712   665   663    1
  941    710   712   663    1
  942    713   712   710    1
  943    711   713   710    1
  944    714   667   665    1
  945    712   714   665    1
  946    715   714   712    1
  947    713   715   712    1
  948    716   669   667    1
  949    714   716   667    1
  950    717   716   714    1
  951    715   717   714    1
  952    718   671   669    1
  953    716   718   669    1
  954    719   718   716    1
  955    717   719   716    1
  956    704   658   671    1
  957    718   704   671    1
  958    706   704   718    1
  959    719   706   718    1
  960    675   721   674    1
  961    721   720   674    1
  962    721   723   720    1
  963    723   722   720    1
  964    681   728   675    1
  965    728   721   675    1
  966    728   729   721    1
  967    729   723   721    1
  968    685   732   681    1
  969    732   728   681    1
  970    732   733   728    1
  971    733   729   728    1
  972    689   736   685    1
  973    736   732   685    1
  974    736   737   732    1
  975    737   733   732    1
  976    693   740   689    1
  977    740   736   689    1
  978    740   741   736    1
  979    741   737   736    1
  980    697   744   693    1
  981    744   740   693    1
  982    744   745   740    1
  983    745   741   740    1
  984    701   748   697    1
  985    748   744   697    1
  986    748   749   744    1
  987    749   745   744    1
  988    674   720   701    1
  989    720   748   701    1
  990    720   722   748    1
  991    722   749   748    1
  992    753   707   706    1
  993    752   753   706    1
  994    755   753   752    1
  995    754   755   752    1
  996    756   709   707    1
  997    753   756   707    1
  998    757   756   753    1
  999    755   757   753    1
 1000    758   711   709    1
 1001    756   758   709    1
 1002    759   758   756    1
 1003    757   759   756    1
 1004    760   713   711    1
 1005    758   760   711    1
 1006    761   760   758    1
 1007    759   761   758    1
 1008    762   715   713    1
 1009    760   762   713    1
 1010    763   762   760    1
 1011    761   763   760    1
 1012    764   717   715    1
 1013    762   764   715    1
 1014    765   764   762    1
 1015    763   765   762    1
 1016    766   719   717    1
 1017    764   766   717    1
 1018    767   766   764    1
 1019    765   767   764    1
 1020    752   706   719    1
 1021    766   752   719    1
 1022    754   752   766    1
 1023    767   754   766    1
 1024    723   769   722    1
 1025    769   768   722    1
 1026    769   771   768    1
 1027    771   770   768    1
 1028    729   776   723    1
 1029    776   769   723    1
 1030    776   777   769    1
 1031    777   771   769    1
 1032    733   780   729    1
 1033    780   776   729    1
 1034    780   781   776    1
 1035    781   777   776    1
 1036    737   784   733    1
 1037    784   780   733    1
 1038    784   785   780    1
 1039    785   781   780    1
 1040    741   788   737    1
 1041    788   784   737    1
 1042    788   789   784    1
 1043    789   785   784    1
 1044    745   792   741    1
 1045    792   788   741    1
 1046    792   793   788    1
 1047    793   789   788    1
 1048    749   796   745    1
 1049    796   792   745    1
 1050    796   797   792    1
 1051    797   793   792    1
 1052    722   768   749    1
 1053    768   796   749    1
 1054    768   770   796    1
 1055    770   797   796    1
 1056    801   755   754    1
 1057    800   801   754    1
 1058    803   801   800    1
 1059    802   803   800    1
 1060    804   757   755    1
 1061    801   804   755    1
 1062    805   804   801    1
 1063    803   805   801    1
 1064    806   759   757    1
 1065    804   806   757    1
 1066    807   806   804    1
 1067    805   807   804    1
 1068    808   761   759    1
 1069    806   808   759    1
 1070    809   808   806    1
 1071    807   809   806    1
 1072    810   763   761    1
 1073    808   810   761    1
 1074    811   810   808    1
 1075    809   811   808    1
 1076    812   765   763    1
 1077    810   812   763    1
 1078    813   812   810    1
 1079    811   813   810    1
 1080    814   767   765    1
 1081    812   814   765    1
 1082    815   814   812    1
 1083    813   815   812    1
 1084    800   754   767    1
 1085    814   800   767    1
 1086    802   800   814    1
 1087    815   802   814    1
 1088    771   817   770    1
 1089    817   816   770    1
 1090    817   819   816    1
 1091    819   818   816    1
 1092    777   824   771    1
 1093    824   817   771    1
 1094    824   825   817    1
 1095    825   819   817    1
 1096    781   828   777    1
 1097    828   824   777    1
 1098    828   829   824    1
 1099    829   825   824    1
 1100    785   832   781    1
 1101    832   828   781    1
 1102    832   833   828    1
 1103    833   829   828    1
 1104    789   836   785    1
 1105    836   832   785    1
 1106    836   837   832    1
 1107    837   833   832    1
 1108    793   840   789    1
 1109    840   836   789    1
 1110    840   841   836    1
 1111    841   837   836    1
 1112    797   844   793    1
 1113    844   840   793    1
 1114    844   845   840    1
 1115    845   841   840    1
 1116    770   816   797    1
 1117    816   844   797    1
 1118    816   818   844    1
 1119    818   845   844    1
 1120    849   803   802    1
 1121    848   849   802    1
 1122    851   849   848    1
 1123    850   851   848    1
 1124    852   805   803    1
 1125    849   852   803    1
 1126    853   852   849    1
 1127    851   853   849    1
 1128    854   807   805    1
 1129    852   854   805    1
 1130    855   854   852    1
 1131    853   855   852    1
 1132    856   809   807    1
 1133    854   856   807    1
 1134    857   856   854    1
 1135    855   857   854    1
 1136    858   811   809    1
 1137    856   858   809    1
 1138    859   858   856    1
 1139    857   859   856    1
 1140    860   813   811    1
 1141    858   860   811    1
 1142    861   860   858    1
 1143    859   861   858    1
 1144    862   815   813    1
 1145    860   862   813    1
 1146    863   862   860    1
 1147    861   863   860    1
 1148    848   802   815    1
 1149    862   848   815    1
 1150    850   848   862    1
 1151    863   850   862    1
 1152    819   865   818    1
 1153    865   864   818    1
 1154    865   867   864    1
 1155    867   866   864    1
 1156    825   872   819    1
 1157    872   865   819    1
 1158    872   873   865    1
 1159    873   867   865    1
 1160    829   876   825    1
 1161    876   872   825    1
 1162    876   877   872    1
 1163    877   873   872    1
 1164    833   880   829    1
 1165    880   876   829    1
 1166    880   881   876    1
 1167    881   877   876    1
 1168    837   884   833    1
 1169    884   880   833    1
 1170    884   885   880    1
 1171    885   881   880    1
 1172    841   888   837    1
 1173    888   884   837    1
 1174    888   889   884    1
 1175    889   885   884    1
 1176    845   892   841    1
 1177    892   888   841    1
 1178    892   893   888    1
 1179    893   889   888    1
 1180    818   864   845    1
 1181    864   892   845    1
 1182    864   866   892    1
 1183    866   893   892    1
 1184    897   851   850    1
 1185    896   897   850    1
 1186    899   897   896    1
 1187    898   899   896    1
 1188    900   853   851    1
 1189    897   900   851    1
 1190    901   900   897    1
 1191    899   901   897    1
 1192    902   855   853    1
 1193    900   902   853    1
 1194    903   902   900    1
 1195    901   903   900    1
 1196    904   857   855    1
 1197    902   904   855    1
 1198    905   904   902    1
 1199    903   905   902    1
 1200    906   859   857    1
 1201    904   906   857    1
 1202    907   906   904    1
 1203    905   907   904    1
 1204    908   861   859    1
 1205    906   908   859    1
 1206    909   908   906    1
 1207    907   909   906    1
 1208    910   863   861    1
 1209    908   910   861    1
 1210    911   910   908    1
 1211    909   911   908    1
 1212    896   850   863    1
 1213    910   896   863    1
 1214    898   896   910    1
 1215    911   898   910    1
 1216    867   913   866    1
 1217    913   912   866    1
 1218    913   915   912    1
 1219    915   914   912    1
 1220    873   920   867    1
 1221    920   913   867    1
 1222    920   921   913    1
 1223    921   915   913    1
 1224    877   924   873    1
 1225    924   920   873    1
 1226    924   925   920    1
 1227    925   921   920    1
 1228    881   928   877    1
 1229    928   924   877    1
 1230    928   929   924    1
 1231    929   925   924    1
 1232    885   932   881    1
 1233    932   928   881    1
 1234    932   933   928    1
 1235    933   929   928    1
 1236    889   936   885    1
 1237    936   932   885    1
 1238    936   937   932    1
 1239    937   933   932    1
 1240    893   940   889    1
 1241    940   936   889    1
 1242    940   941   936    1
 1243    941   937   936    1
 1244    866   912   893    1
 1245    912   940   893    1
 1246    912   914   940    1
 1247    914   941   940    1
 1248    945   899   898    1
 1249    944   945   898    1
 1250    947   945   944    1
 1251    946   947   944    1
 1252    948   901   899    1
 1253    945   948   899    1
 1254    949   948   945    1
 1255    947   949   945    1
 1256    950   903   901    1
 1257    948   950   901    1
 1258    951   950   948    1
 1259    949   951   948    1
 1260    952   905   903    1
 1261    950   952   903    1
 1262    953   952   950    1
 1263    951   953   950    1
 1264    954   907   905    1
 1265    952   954   905    1
 1266    955   954   952    1
 1267    953   955   952    1
 1268    956   909   907    1
 1269    954   956   907    1
 1270    957   956   954    1
 1271    955   957   954    1
 1272    958   911   909    1
 1273    956   958   909    1
 1274    959   958   956    1
 1275    957   959   956    1
 1276    944   898   911    1
 1277    958   944   911    1
 1278    946   944   958    1
 1279    959   946   958    1
 1280    915   961   914    1
 1281    961   960   914    1
 1282    961   963   960    1
 1283    963   962   960    1
 1284    921   968   915    1
 1285    968   961   915    1
 1286    968   969   961    1
 1287    969   963   961    1
 1288    925   972   921    1
 1289    972   968   921    1
 1290    972   973   968    1
 1291    973   969   968    1
 1292    929   976   925    1
 1293    976   972   925    1
 1294    976   977   972    1
 1295    977   973   972    1
 1296    933   980   929    1
 1297    980   976   929    1
 1298    980   981   976    1
 1299    981   977   976    1
 1300    937   984   933    1
 1301    984   980   933    1
 1302    984   985   980    1
 1303    985   981   980    1
 1304    941   988   937    1
 1305    988   984   937    1
 1306    988   989   984    1
 1307    989   985   984    1
 1308    914   960   941    1
 1309    960   988   941    1
 1310    960   962   988    1
 1311    962   989   988    1
 1312    993   947   946    1
 1313    992   993   946    1
 1314    995   993   992    1
 1315    994   995   992    1
 1316    996   949   947    1
 1317    993   996   947    1
 1318    997   996   993    1
 1319    995   997   993    1
 1320    998   951   949    1
 1321    996   998   949    1
 1322    999   998   996    1
 1323    997   999   996    1
 1324   1000   953   951    1
 1325    998  1000   951    1
 1326   1001  1000   998    1
 1327    999  1001   998    1
 1328   1002   955   953    1
 1329   1000  1002   953    1
 1330   1003  1002  1000    1
 1331   1001  1003  1000    1
 1332   1004   957   955    1
 1333   1002  1004   955    1
 1334   1005  1004  1002    1
 1335   1003  1005  1002    1
 1336   1006   959   957    1
 1337   1004  1006   957    1
 1338   1007  1006  1004    1
 1339   1005  1007  1004    1
 1340    992   946   959    1
 1341   1006   992   959    1
 1342    994   992  1006    1
 1343   1007   994  1006    1
 1344    459  1009   458    1
 1345   1009  1008   458    1
 1346   1009  1011  1008    1
 1347   1011  1010  1008    1
 1348    465  1016   459    1
 1349   1016  1009   459    1
 1350   1016  1017  1009    1
 1351   1017  1011  1009    1
 1352    469  1020   465    1
 1353   1020  1016   465    1
 1354   1020  1021  1016    1
 1355   1021  1017  1016    1
 1356    473  1024   469    1
 1357   1024  1020   469    1
 1358   1024  1025  1020    1
 1359   1025  1021  1020    1
 1360    477  1028   473    1
 1361   1028  1024   473    1
 1362   1028  1029  1024    1
 1363   1029  1025  1024    1
 1364    481  1032   477    1
 1365   1032  1028   477    1
 1366   1032  1033  1028    1
 1367   1033  1029  1028    1
 1368    485  1036   481    1
 1369   1036  1032   481    1
 1370   1036  1037  1032    1
 1371   1037  1033  1032    1
 1372    458  1008   485    1
 1373   1008  1036   485    1
 1374   1008  1010  1036    1
 1375   1010  1037  1036    1
 1376   1041   491   490    1
 1377   1040  1041   490    1
 1378   1014  1015  1042    1
 1379   1043  1041  1040    1
 1380   1042  1043  1040    1
 1381   1044   493   491    1
 1382   1041  1044   491    1
 1383   1044  1041  1019    1
 1384   1015  1019  1043    1
 1385   1045  1041  1044    1
 1386   1019  1041  1045    1
 1387   1019  1044  1041    1
 1388   1043  1045  1041    1
 1389   1043  1019  1045    1
 1390   1041  1045  1019    1
 1391   1046   495   493    1
 1392   1044  1046   493    1
 1393   1044  1019  1023    1
 1394   1046  1044  1023    1
 1395   1023  1044  1019    1
 1396   1047  1046  1023    1
 1397   1047  1044  1046    1
 1398   1023  1046  1044    1
 1399   1045  1044  1047    1
 1400   1048   497   495    1
 1401   1046  1048   495    1
 1402   1047  1046  1023    1
 1403   1049  1048  1046    1
 1404   1047  1049  1046    1
 1405   1050   499   497    1
 1406   1048  1050   497    1
 1407   1051  1050  1048    1
 1408   1049  1051  1048    1
 1409   1052   501   499    1
 1410   1050  1052   499    1
 1411   1053  1052  1050    1
 1412   1051  1053  1050    1
 1413   1054   503   501    1
 1414   1052  1054   501    1
 1415   1055  1054  1052    1
 1416   1053  1055  1052    1
 1417   1040   490   503    1
 1418   1054  1040   503    1
 1419   1042  1040  1054    1
 1420   1055  1042  1054    1
 1421    963  1057   962    1
 1422   1057  1056   962    1
 1423   1057  1059  1056    1
 1424   1059  1058  1056    1
 1425    969  1064   963    1
 1426   1064  1057   963    1
 1427   1064  1065  1057    1
 1428   1065  1059  1057    1
 1429    973  1068   969    1
 1430   1068  1064   969    1
 1431   1068  1069  1064    1
 1432   1069  1065  1064    1
 1433    977  1072   973    1
 1434   1072  1068   973    1
 1435   1072  1073  1068    1
 1436   1073  1069  1068    1
 1437    981  1076   977    1
 1438   1076  1072   977    1
 1439   1076  1077  1072    1
 1440   1077  1073  1072    1
 1441    985  1080   981    1
 1442   1080  1076   981    1
 1443   1080  1081  1076    1
 1444   1081  1077  1076    1
 1445    989  1084   985    1
 1446   1084  1080   985    1
 1447   1084  1085  1080    1
 1448   1085  1081  1080    1
 1449    962  1056   989    1
 1450   1056  1084   989    1
 1451   1056  1058  1084    1
 1452   1058  1085  1084    1
 1453   1089   995   994    1
 1454   1088  1089   994    1
 1455   1055  1089  1088    1
 1456   1042  1055  1088    1
 1457   1090   997   995    1
 1458   1089  1090   995    1
 1459   1053  1090  1089    1
 1460   1055  1053  1089    1
 1461   1091   999   997    1
 1462   1090  1091   997    1
 1463   1051  1091  1090    1
 1464   1053  1051  1090    1
 1465   1092  1001   999    1
 1466   1091  1092   999    1
 1467   1049  1092  1091    1
 1468   1051  1049  1091    1
 1469   1093  1003  1001    1
 1470   1092  1093  1001    1
 1471   1075  1079  1049    1
 1472   1094  1093  1092    1
 1473   1049  1094  1092    1
 1474   1095  1005  1003    1
 1475   1093  1095  1003    1
 1476   1095  1093  1083    1
 1477   1079  1083  1094    1
 1478   1096  1093  1095    1
 1479   1083  1093  1096    1
 1480   1083  1095  1093    1
 1481   1094  1096  1093    1
 1482   1094  1083  1096    1
 1483   1093  1096  1083    1
 1484   1097  1007  1005    1
 1485   1095  1097  1005    1
 1486   1095  1083  1087    1
 1487   1097  1095  1087    1
 1488   1087  1095  1083    1
 1489   1098  1097  1087    1
 1490   1098  1095  1097    1
 1491   1087  1097  1095    1
 1492   1096  1095  1098    1
 1493   1088   994  1007    1
 1494   1097  1088  1007    1
 1495   1098  1097  1087    1
 1496   1042  1088  1097    1
 1497   1098  1042  1097    1
 1498   1011  1100  1010    1
 1499   1100  1099  1010    1
 1500   1104  1015  1014    1
 1501   1100  1102  1099    1
 1502   1102  1101  1099    1
 1503   1017  1107  1011    1
 1504   1107  1100  1011    1
 1505   1109  1019  1015    1
 1506   1104  1109  1015    1
 1507   1107  1108  1100    1
 1508   1108  1102  1100    1
 1509   1021  1111  1017    1
 1510   1111  1107  1017    1
 1511   1113  1023  1019    1
 1512   1109  1113  1019    1
 1513   1111  1112  1107    1
 1514   1112  1108  1107    1
 1515   1025  1115  1021    1
 1516   1115  1111  1021    1
 1517   1115  1116  1111    1
 1518   1116  1112  1111    1
 1519   1029  1119  1025    1
 1520   1119  1115  1025    1
 1521   1119  1120  1115    1
 1522   1120  1116  1115    1
 1523   1033  1123  1029    1
 1524   1123  1119  1029    1
 1525   1123  1124  1119    1
 1526   1124  1120  1119    1
 1527   1037  1127  1033    1
 1528   1127  1123  1033    1
 1529   1127  1128  1123    1
 1530   1128  1124  1123    1
 1531   1010  1099  1037    1
 1532   1099  1127  1037    1
 1533   1099  1101  1127    1
 1534   1101  1128  1127    1
 1535   1042  1104  1014    1
 1536   1042  1015  1104    1
 1537   1014  1015  1042    1
 1538   1014  1104  1015    1
 1539   1104  1014  1042    1
 1540   1104  1015  1043    1
 1541   1104  1042  1015    1
 1542   1132  1043  1042    1
 1543   1131  1132  1042    1
 1544   1134  1132  1131    1
 1545   1133  1134  1131    1
 1546   1015  1019  1043    1
 1547   1015  1109  1019    1
 1548   1043  1104  1015    1
 1549   1043  1109  1104    1
 1550   1015  1104  1109    1
 1551   1045  1043  1019    1
 1552   1045  1109  1043    1
 1553   1104  1043  1109    1
 1554   1135  1045  1043    1
 1555   1043  1045  1109    1
 1556   1132  1135  1043    1
 1557   1136  1135  1132    1
 1558   1134  1136  1132    1
 1559   1019  1113  1023    1
 1560   1045  1113  1109    1
 1561   1019  1109  1113    1
 1562   1047  1113  1045    1
 1563   1023  1113  1047    1
 1564   1109  1045  1113    1
 1565   1137  1047  1045    1
 1566   1045  1047  1113    1
 1567   1135  1137  1045    1
 1568   1138  1137  1135    1
 1569   1136  1138  1135    1
 1570   1047  1023  1113    1
 1571   1139  1049  1047    1
 1572   1137  1139  1047    1
 1573   1140  1139  1137    1
 1574   1138  1140  1137    1
 1575   1141  1051  1049    1
 1576   1139  1141  1049    1
 1577   1142  1141  1139    1
 1578   1140  1142  1139    1
 1579   1143  1053  1051    1
 1580   1141  1143  1051    1
 1581   1144  1143  1141    1
 1582   1142  1144  1141    1
 1583   1145  1055  1053    1
 1584   1143  1145  1053    1
 1585   1146  1145  1143    1
 1586   1144  1146  1143    1
 1587   1131  1042  1055    1
 1588   1145  1131  1055    1
 1589   1133  1131  1145    1
 1590   1146  1133  1145    1
 1591   1059  1148  1058    1
 1592   1148  1147  1058    1
 1593   1148  1150  1147    1
 1594   1150  1149  1147    1
 1595   1065  1155  1059    1
 1596   1155  1148  1059    1
 1597   1155  1156  1148    1
 1598   1156  1150  1148    1
 1599   1069  1159  1065    1
 1600   1159  1155  1065    1
 1601   1159  1160  1155    1
 1602   1160  1156  1155    1
 1603   1073  1163  1069    1
 1604   1163  1159  1069    1
 1605   1163  1164  1159    1
 1606   1164  1160  1159    1
 1607   1077  1167  1073    1
 1608   1167  1163  1073    1
 1609   1169  1079  1075    1
 1610   1167  1168  1163    1
 1611   1168  1164  1163    1
 1612   1081  1171  1077    1
 1613   1171  1167  1077    1
 1614   1173  1083  1079    1
 1615   1169  1173  1079    1
 1616   1171  1172  1167    1
 1617   1172  1168  1167    1
 1618   1085  1175  1081    1
 1619   1175  1171  1081    1
 1620   1177  1087  1083    1
 1621   1173  1177  1083    1
 1622   1175  1176  1171    1
 1623   1176  1172  1171    1
 1624   1058  1147  1085    1
 1625   1147  1175  1085    1
 1626   1147  1149  1175    1
 1627   1149  1176  1175    1
 1628   1145  1055  1042    1
 1629   1131  1145  1042    1
 1630   1146  1145  1131    1
 1631   1133  1146  1131    1
 1632   1143  1053  1055    1
 1633   1145  1143  1055    1
 1634   1144  1143  1145    1
 1635   1146  1144  1145    1
 1636   1141  1051  1053    1
 1637   1143  1141  1053    1
 1638   1142  1141  1143    1
 1639   1144  1142  1143    1
 1640   1139  1049  1051    1
 1641   1141  1139  1051    1
 1642   1140  1139  1141    1
 1643   1142  1140  1141    1
 1644   1049  1169  1075    1
 1645   1049  1079  1169    1
 1646   1075  1079  1049    1
 1647   1075  1169  1079    1
 1648   1169  1075  1049    1
 1649   1169  1079  1094    1
 1650   1169  1049  1079    1
 1651   1179  1094  1049    1
 1652   1139  1179  1049    1
 1653   1180  1179  1139    1
 1654   1140  1180  1139    1
 1655   1079  1083  1094    1
 1656   1079  1173  1083    1
 1657   1094  1169  1079    1
 1658   1094  1173  1169    1
 1659   1079  1169  1173    1
 1660   1096  1094  1083    1
 1661   1096  1173  1094    1
 1662   1169  1094  1173    1
 1663   1181  1096  1094    1
 1664   1094  1096  1173    1
 1665   1179  1181  1094    1
 1666   1182  1181  1179    1
 1667   1180  1182  1179    1
 1668   1083  1177  1087    1
 1669   1096  1177  1173    1
 1670   1083  1173  1177    1
 1671   1098  1177  1096    1
 1672   1087  1177  1098    1
 1673   1173  1096  1177    1
 1674   1183  1098  1096    1
 1675   1096  1098  1177    1
 1676   1181  1183  1096    1
 1677   1184  1183  1181    1
 1678   1182  1184  1181    1
 1679   1098  1087  1177    1
 1680   1131  1042  1098    1
 1681   1183  1131  1098    1
 1682   1133  1131  1183    1
 1683   1184  1133  1183    1
 1684   1102  1186  1101    1
 1685   1186  1185  1101    1
 1686   1186  1188  1185    1
 1687   1188  1187  1185    1
 1688   1187  1188  1191    1
 1689   1191  1188  1192    1
 1690   1108  1193  1102    1
 1691   1193  1186  1102    1
 1692   1193  1194  1186    1
 1693   1194  1188  1186    1
 1694   1188  1194  1192    1
 1695   1192  1194  1196    1
 1696   1112  1197  1108    1
 1697   1197  1193  1108    1
 1698   1197  1198  1193    1
 1699   1198  1194  1193    1
 1700   1194  1198  1196    1
 1701   1196  1198  1200    1
 1702   1116  1201  1112    1
 1703   1201  1197  1112    1
 1704   1201  1202  1197    1
 1705   1202  1198  1197    1
 1706   1198  1202  1200    1
 1707   1200  1202  1204    1
 1708   1120  1205  1116    1
 1709   1205  1201  1116    1
 1710   1205  1206  1201    1
 1711   1206  1202  1201    1
 1712   1202  1206  1204    1
 1713   1204  1206  1208    1
 1714   1124  1209  1120    1
 1715   1209  1205  1120    1
 1716   1209  1210  1205    1
 1717   1210  1206  1205    1
 1718   1206  1210  1208    1
 1719   1208  1210  1212    1
 1720   1128  1213  1124    1
 1721   1213  1209  1124    1
 1722   1213  1214  1209    1
 1723   1214  1210  1209    1
 1724   1210  1214  1212    1
 1725   1212  1214  1216    1
 1726   1101  1185  1128    1
 1727   1185  1213  1128    1
 1728   1185  1187  1213    1
 1729   1187  1214  1213    1
 1730   1214  1187  1216    1
 1731   1216  1187  1191    1
 1732   1150  1218  1149    1
 1733   1218  1217  1149    1
 1734   1218  1220  1217    1
 1735   1220  1219  1217    1
 1736   1219  1220  1223    1
 1737   1223  1220  1224    1
 1738   1156  1225  1150    1
 1739   1225  1218  1150    1
 1740   1225  1226  1218    1
 1741   1226  1220  1218    1
 1742   1220  1226  1224    1
 1743   1224  1226  1228    1
 1744   1160  1229  1156    1
 1745   1229  1225  1156    1
 1746   1229  1230  1225    1
 1747   1230  1226  1225    1
 1748   1226  1230  1228    1
 1749   1228  1230  1232    1
 1750   1164  1233  1160    1
 1751   1233  1229  1160    1
 1752   1233  1234  1229    1
 1753   1234  1230  1229    1
 1754   1230  1234  1232    1
 1755   1232  1234  1236    1
 1756   1168  1237  1164    1
 1757   1237  1233  1164    1
 1758   1237  1238  1233    1
 1759   1238  1234  1233    1
 1760   1234  1238  1236    1
 1761   1236  1238  1240    1
 1762   1172  1241  1168    1
 1763   1241  1237  1168    1
 1764   1241  1242  1237    1
 1765   1242  1238  1237    1
 1766   1238  1242  1240    1
 1767   1240  1242  1244    1
 1768   1176  1245  1172    1
 1769   1245  1241  1172    1
 1770   1245  1246  1241    1
 1771   1246  1242  1241    1
 1772   1242  1246  1244    1
 1773   1244  1246  1248    1
 1774   1149  1217  1176    1
 1775   1217  1245  1176    1
 1776   1217  1219  1245    1
 1777   1219  1246  1245    1
 1778   1246  1219  1248    1
 1779   1248  1219  1223    1
 1780   1250  1134  1133    1
 1781   1249  1250  1133    1
 1782   1191  1192  1251    1
 1783   1252  1250  1249    1
 1784   1251  1252  1249    1
 1785   1251  1192  1252    1
 1786   1253  1136  1134    1
 1787   1250  1253  1134    1
 1788   1192  1196  1252    1
 1789   1254  1253  1250    1
 1790   1252  1254  1250    1
 1791   1252  1196  1254    1
 1792   1255  1138  1136    1
 1793   1253  1255  1136    1
 1794   1196  1200  1254    1
 1795   1256  1255  1253    1
 1796   1254  1256  1253    1
 1797   1254  1200  1256    1
 1798   1257  1140  1138    1
 1799   1255  1257  1138    1
 1800   1200  1204  1256    1
 1801   1258  1257  1255    1
 1802   1256  1258  1255    1
 1803   1256  1204  1258    1
 1804   1259  1142  1140    1
 1805   1257  1259  1140    1
 1806   1204  1208  1258    1
 1807   1260  1259  1257    1
 1808   1258  1260  1257    1
 1809   1258  1208  1260    1
 1810   1261  1144  1142    1
 1811   1259  1261  1142    1
 1812   1208  1212  1260    1
 1813   1262  1261  1259    1
 1814   1260  1262  1259    1
 1815   1260  1212  1262    1
 1816   1263  1146  1144    1
 1817   1261  1263  1144    1
 1818   1212  1216  1262    1
 1819   1264  1263  1261    1
 1820   1262  1264  1261    1
 1821   1262  1216  1264    1
 1822   1249  1133  1146    1
 1823   1263  1249  1146    1
 1824   1216  1191  1264    1
 1825   1251  1249  1263    1
 1826   1264  1251  1263    1
 1827   1264  1191  1251    1
 1828   1263  1146  1133    1
 1829   1249  1263  1133    1
 1830   1223  1224  1251    1
 1831   1264  1263  1249    1
 1832   1251  1264  1249    1
 1833   1251  1224  1264    1
 1834   1261  1144  1146    1
 1835   1263  1261  1146    1
 1836   1224  1228  1264    1
 1837   1262  1261  1263    1
 1838   1264  1262  1263    1
 1839   1264  1228  1262    1
 1840   1259  1142  1144    1
 1841   1261  1259  1144    1
 1842   1228  1232  1262    1
 1843   1260  1259  1261    1
 1844   1262  1260  1261    1
 1845   1262  1232  1260    1
 1846   1257  1140  1142    1
 1847   1259  1257  1142    1
 1848   1232  1236  1260    1
 1849   1258  1257  1259    1
 1850   1260  1258  1259    1
 1851   1260  1236  1258    1
 1852   1265  1180  1140    1
 1853   1257  1265  1140    1
 1854   1236  1240  1258    1
 1855   1266  1265  1257    1
 1856   1258  1266  1257    1
 1857   1258  1240  1266    1
 1858   1267  1182  1180    1
 1859   1265  1267  1180    1
 1860   1240  1244  1266    1
 1861   1268  1267  1265    1
 1862   1266  1268  1265    1
 1863   1266  1244  1268    1
 1864   1269  1184  1182    1
 1865   1267  1269  1182    1
 1866   1244  1248  1268    1
 1867   1270  1269  1267    1
 1868   1268  1270  1267    1
 1869   1268  1248  1270    1
 1870   1249  1133  1184    1
 1871   1269  1249  1184    1
 1872   1248  1223  1270    1
 1873   1251  1249  1269    1
 1874   1270  1251  1269    1
 1875   1270  1223  1251    1
# Generated by tetgen rat_uterus_test_mesh_low_res.ele -k 
