2624  1
    0      1     0     8    1
    1      1     3     0    1
    2      0     3     2    1
    3      9     1     8    1
    4      3     5     2    1
    5      2     5     4    1
    6      5     7     4    1
    7      4     7     6    1
    8      9     8    16    1
    9     17     9    16    1
   10     19    17    16    1
   11     19    16    18    1
   12     21    19    18    1
   13     21    18    20    1
   14     23    21    20    1
   15     23    20    22    1
   16     24     1     9    1
   17     24    25     1    1
   18      1    25     3    1
   19     28    24     9    1
   20     25    26     3    1
   21      3    26     5    1
   22     26    27     5    1
   23      5    27     7    1
   24     28     9    17    1
   25     32    28    17    1
   26     33    32    17    1
   27     33    17    19    1
   28     34    33    19    1
   29     34    19    21    1
   30     35    34    21    1
   31     35    21    23    1
   32     36    24    28    1
   33     36    37    24    1
   34     24    37    25    1
   35     40    36    28    1
   36     37    38    25    1
   37     25    38    26    1
   38     38    39    26    1
   39     26    39    27    1
   40     40    28    32    1
   41     44    40    32    1
   42     45    44    32    1
   43     45    32    33    1
   44     46    45    33    1
   45     46    33    34    1
   46     47    46    34    1
   47     47    34    35    1
   48     48    36    40    1
   49     48    49    36    1
   50     36    49    37    1
   51     52    48    40    1
   52     49    50    37    1
   53     37    50    38    1
   54     50    51    38    1
   55     38    51    39    1
   56     52    40    44    1
   57     56    52    44    1
   58     57    56    44    1
   59     57    44    45    1
   60     58    57    45    1
   61     58    45    46    1
   62     59    58    46    1
   63     59    46    47    1
   64     60    48    52    1
   65     60    61    48    1
   66     48    61    49    1
   67     64    60    52    1
   68     61    62    49    1
   69     49    62    50    1
   70     62    63    50    1
   71     50    63    51    1
   72     64    52    56    1
   73     68    64    56    1
   74     69    68    56    1
   75     69    56    57    1
   76     70    69    57    1
   77     70    57    58    1
   78     71    70    58    1
   79     71    58    59    1
   80     72    60    64    1
   81     72    73    60    1
   82     60    73    61    1
   83     76    72    64    1
   84     73    74    61    1
   85     61    74    62    1
   86     74    75    62    1
   87     62    75    63    1
   88     76    64    68    1
   89     80    76    68    1
   90     81    80    68    1
   91     81    68    69    1
   92     82    81    69    1
   93     82    69    70    1
   94     83    82    70    1
   95     83    70    71    1
   96     84    72    76    1
   97     84    85    72    1
   98     72    85    73    1
   99     88    84    76    1
  100     85    86    73    1
  101     73    86    74    1
  102     86    87    74    1
  103     74    87    75    1
  104     88    76    80    1
  105     92    88    80    1
  106     93    92    80    1
  107     93    80    81    1
  108     94    93    81    1
  109     94    81    82    1
  110     95    94    82    1
  111     95    82    83    1
  112      0    84    88    1
  113      0     2    84    1
  114     84     2    85    1
  115      8     0    88    1
  116      2     4    85    1
  117     85     4    86    1
  118      4     6    86    1
  119     86     6    87    1
  120      8    88    92    1
  121     16     8    92    1
  122     18    16    92    1
  123     18    92    93    1
  124     20    18    93    1
  125     20    93    94    1
  126     22    20    94    1
  127     22    94    95    1
  128      7    97     6    1
  129      6    97    96    1
  130     97    99    96    1
  131     96    99    98    1
  132     99   101    98    1
  133     98   101   100    1
  134    109    23    22    1
  135    109    22   108    1
  136    111   109   108    1
  137    111   108   110    1
  138    113   111   110    1
  139    113   110   112    1
  140     27   114     7    1
  141      7   114    97    1
  142    114   115    97    1
  143     97   115    99    1
  144    115   116    99    1
  145     99   116   101    1
  146    120    35    23    1
  147    120    23   109    1
  148    121   120   109    1
  149    121   109   111    1
  150    122   121   111    1
  151    122   111   113    1
  152     39   123    27    1
  153     27   123   114    1
  154    123   124   114    1
  155    114   124   115    1
  156    124   125   115    1
  157    115   125   116    1
  158    129    47    35    1
  159    129    35   120    1
  160    130   129   120    1
  161    130   120   121    1
  162    131   130   121    1
  163    131   121   122    1
  164     51   132    39    1
  165     39   132   123    1
  166    132   133   123    1
  167    123   133   124    1
  168    133   134   124    1
  169    124   134   125    1
  170    138    59    47    1
  171    138    47   129    1
  172    139   138   129    1
  173    139   129   130    1
  174    140   139   130    1
  175    140   130   131    1
  176     63   141    51    1
  177     51   141   132    1
  178    141   142   132    1
  179    132   142   133    1
  180    142   143   133    1
  181    133   143   134    1
  182    147    71    59    1
  183    147    59   138    1
  184    148   147   138    1
  185    148   138   139    1
  186    149   148   139    1
  187    149   139   140    1
  188     75   150    63    1
  189     63   150   141    1
  190    150   151   141    1
  191    141   151   142    1
  192    151   152   142    1
  193    142   152   143    1
  194    156    83    71    1
  195    156    71   147    1
  196    157   156   147    1
  197    157   147   148    1
  198    158   157   148    1
  199    158   148   149    1
  200     87   159    75    1
  201     75   159   150    1
  202    159   160   150    1
  203    150   160   151    1
  204    160   161   151    1
  205    151   161   152    1
  206    165    95    83    1
  207    165    83   156    1
  208    166   165   156    1
  209    166   156   157    1
  210    167   166   157    1
  211    167   157   158    1
  212      6    96    87    1
  213     87    96   159    1
  214     96    98   159    1
  215    159    98   160    1
  216     98   100   160    1
  217    160   100   161    1
  218    108    22    95    1
  219    108    95   165    1
  220    110   108   165    1
  221    110   165   166    1
  222    112   110   166    1
  223    112   166   167    1
  224    101   169   100    1
  225    100   169   168    1
  226    169   171   168    1
  227    168   171   170    1
  228    171   173   170    1
  229    170   173   172    1
  230    181   113   112    1
  231    181   112   180    1
  232    183   181   180    1
  233    183   180   182    1
  234    185   183   182    1
  235    185   182   184    1
  236    116   186   101    1
  237    101   186   169    1
  238    186   187   169    1
  239    169   187   171    1
  240    187   188   171    1
  241    171   188   173    1
  242    192   122   113    1
  243    192   113   181    1
  244    193   192   181    1
  245    193   181   183    1
  246    194   193   183    1
  247    194   183   185    1
  248    125   195   116    1
  249    116   195   186    1
  250    195   196   186    1
  251    186   196   187    1
  252    196   197   187    1
  253    187   197   188    1
  254    201   131   122    1
  255    201   122   192    1
  256    202   201   192    1
  257    202   192   193    1
  258    203   202   193    1
  259    203   193   194    1
  260    134   204   125    1
  261    125   204   195    1
  262    204   205   195    1
  263    195   205   196    1
  264    205   206   196    1
  265    196   206   197    1
  266    210   140   131    1
  267    210   131   201    1
  268    211   210   201    1
  269    211   201   202    1
  270    212   211   202    1
  271    212   202   203    1
  272    143   213   134    1
  273    134   213   204    1
  274    213   214   204    1
  275    204   214   205    1
  276    214   215   205    1
  277    205   215   206    1
  278    219   149   140    1
  279    219   140   210    1
  280    220   219   210    1
  281    220   210   211    1
  282    221   220   211    1
  283    221   211   212    1
  284    152   222   143    1
  285    143   222   213    1
  286    222   223   213    1
  287    213   223   214    1
  288    223   224   214    1
  289    214   224   215    1
  290    228   158   149    1
  291    228   149   219    1
  292    229   228   219    1
  293    229   219   220    1
  294    230   229   220    1
  295    230   220   221    1
  296    161   231   152    1
  297    152   231   222    1
  298    231   232   222    1
  299    222   232   223    1
  300    232   233   223    1
  301    223   233   224    1
  302    237   167   158    1
  303    237   158   228    1
  304    238   237   228    1
  305    238   228   229    1
  306    239   238   229    1
  307    239   229   230    1
  308    100   168   161    1
  309    161   168   231    1
  310    168   170   231    1
  311    231   170   232    1
  312    170   172   232    1
  313    232   172   233    1
  314    180   112   167    1
  315    180   167   237    1
  316    182   180   237    1
  317    182   237   238    1
  318    184   182   238    1
  319    184   238   239    1
  320    173   241   172    1
  321    172   241   240    1
  322    241   243   240    1
  323    240   243   242    1
  324    243   245   242    1
  325    242   245   244    1
  326    253   185   184    1
  327    253   184   252    1
  328    255   253   252    1
  329    255   252   254    1
  330    257   255   254    1
  331    257   254   256    1
  332    188   258   173    1
  333    173   258   241    1
  334    258   259   241    1
  335    241   259   243    1
  336    259   260   243    1
  337    243   260   245    1
  338    264   194   185    1
  339    264   185   253    1
  340    265   264   253    1
  341    265   253   255    1
  342    266   265   255    1
  343    266   255   257    1
  344    197   267   188    1
  345    188   267   258    1
  346    267   268   258    1
  347    258   268   259    1
  348    268   269   259    1
  349    259   269   260    1
  350    273   203   194    1
  351    273   194   264    1
  352    274   273   264    1
  353    274   264   265    1
  354    275   274   265    1
  355    275   265   266    1
  356    206   276   197    1
  357    197   276   267    1
  358    276   277   267    1
  359    267   277   268    1
  360    277   278   268    1
  361    268   278   269    1
  362    282   212   203    1
  363    282   203   273    1
  364    283   282   273    1
  365    283   273   274    1
  366    284   283   274    1
  367    284   274   275    1
  368    215   285   206    1
  369    206   285   276    1
  370    285   286   276    1
  371    276   286   277    1
  372    286   287   277    1
  373    277   287   278    1
  374    291   221   212    1
  375    291   212   282    1
  376    292   291   282    1
  377    292   282   283    1
  378    293   292   283    1
  379    293   283   284    1
  380    224   294   215    1
  381    215   294   285    1
  382    294   295   285    1
  383    285   295   286    1
  384    295   296   286    1
  385    286   296   287    1
  386    300   230   221    1
  387    300   221   291    1
  388    301   300   291    1
  389    301   291   292    1
  390    302   301   292    1
  391    302   292   293    1
  392    233   303   224    1
  393    224   303   294    1
  394    303   304   294    1
  395    294   304   295    1
  396    304   305   295    1
  397    295   305   296    1
  398    309   239   230    1
  399    309   230   300    1
  400    310   309   300    1
  401    310   300   301    1
  402    311   310   301    1
  403    311   301   302    1
  404    172   240   233    1
  405    233   240   303    1
  406    240   242   303    1
  407    303   242   304    1
  408    242   244   304    1
  409    304   244   305    1
  410    252   184   239    1
  411    252   239   309    1
  412    254   252   309    1
  413    254   309   310    1
  414    256   254   310    1
  415    256   310   311    1
  416    245   313   244    1
  417    244   313   312    1
  418    313   315   312    1
  419    312   315   314    1
  420    315   317   314    1
  421    314   317   316    1
  422    325   257   256    1
  423    325   256   324    1
  424    327   325   324    1
  425    327   324   326    1
  426    329   327   326    1
  427    329   326   328    1
  428    260   330   245    1
  429    245   330   313    1
  430    330   331   313    1
  431    313   331   315    1
  432    331   332   315    1
  433    315   332   317    1
  434    336   266   257    1
  435    336   257   325    1
  436    337   336   325    1
  437    337   325   327    1
  438    338   337   327    1
  439    338   327   329    1
  440    269   339   260    1
  441    260   339   330    1
  442    339   340   330    1
  443    330   340   331    1
  444    340   341   331    1
  445    331   341   332    1
  446    345   275   266    1
  447    345   266   336    1
  448    346   345   336    1
  449    346   336   337    1
  450    347   346   337    1
  451    347   337   338    1
  452    278   348   269    1
  453    269   348   339    1
  454    348   349   339    1
  455    339   349   340    1
  456    349   350   340    1
  457    340   350   341    1
  458    354   284   275    1
  459    354   275   345    1
  460    355   354   345    1
  461    355   345   346    1
  462    356   355   346    1
  463    356   346   347    1
  464    287   357   278    1
  465    278   357   348    1
  466    357   358   348    1
  467    348   358   349    1
  468    358   359   349    1
  469    349   359   350    1
  470    363   293   284    1
  471    363   284   354    1
  472    364   363   354    1
  473    364   354   355    1
  474    365   364   355    1
  475    365   355   356    1
  476    296   366   287    1
  477    287   366   357    1
  478    366   367   357    1
  479    357   367   358    1
  480    367   368   358    1
  481    358   368   359    1
  482    372   302   293    1
  483    372   293   363    1
  484    373   372   363    1
  485    373   363   364    1
  486    374   373   364    1
  487    374   364   365    1
  488    305   375   296    1
  489    296   375   366    1
  490    375   376   366    1
  491    366   376   367    1
  492    376   377   367    1
  493    367   377   368    1
  494    381   311   302    1
  495    381   302   372    1
  496    382   381   372    1
  497    382   372   373    1
  498    383   382   373    1
  499    383   373   374    1
  500    244   312   305    1
  501    305   312   375    1
  502    312   314   375    1
  503    375   314   376    1
  504    314   316   376    1
  505    376   316   377    1
  506    324   256   311    1
  507    324   311   381    1
  508    326   324   381    1
  509    326   381   382    1
  510    328   326   382    1
  511    328   382   383    1
  512    317   385   316    1
  513    316   385   384    1
  514    385   387   384    1
  515    384   387   386    1
  516    387   389   386    1
  517    386   389   388    1
  518    397   329   328    1
  519    397   328   396    1
  520    399   397   396    1
  521    399   396   398    1
  522    401   399   398    1
  523    401   398   400    1
  524    332   402   317    1
  525    317   402   385    1
  526    402   403   385    1
  527    385   403   387    1
  528    403   404   387    1
  529    387   404   389    1
  530    408   338   329    1
  531    408   329   397    1
  532    409   408   397    1
  533    409   397   399    1
  534    410   409   399    1
  535    410   399   401    1
  536    341   411   332    1
  537    332   411   402    1
  538    411   412   402    1
  539    402   412   403    1
  540    412   413   403    1
  541    403   413   404    1
  542    417   347   338    1
  543    417   338   408    1
  544    418   417   408    1
  545    418   408   409    1
  546    419   418   409    1
  547    419   409   410    1
  548    350   420   341    1
  549    341   420   411    1
  550    420   421   411    1
  551    411   421   412    1
  552    421   422   412    1
  553    412   422   413    1
  554    426   356   347    1
  555    426   347   417    1
  556    427   426   417    1
  557    427   417   418    1
  558    428   427   418    1
  559    428   418   419    1
  560    359   429   350    1
  561    350   429   420    1
  562    429   430   420    1
  563    420   430   421    1
  564    430   431   421    1
  565    421   431   422    1
  566    435   365   356    1
  567    435   356   426    1
  568    436   435   426    1
  569    436   426   427    1
  570    437   436   427    1
  571    437   427   428    1
  572    368   438   359    1
  573    359   438   429    1
  574    438   439   429    1
  575    429   439   430    1
  576    439   440   430    1
  577    430   440   431    1
  578    444   374   365    1
  579    444   365   435    1
  580    445   444   435    1
  581    445   435   436    1
  582    446   445   436    1
  583    446   436   437    1
  584    377   447   368    1
  585    368   447   438    1
  586    447   448   438    1
  587    438   448   439    1
  588    448   449   439    1
  589    439   449   440    1
  590    453   383   374    1
  591    453   374   444    1
  592    454   453   444    1
  593    454   444   445    1
  594    455   454   445    1
  595    455   445   446    1
  596    316   384   377    1
  597    377   384   447    1
  598    384   386   447    1
  599    447   386   448    1
  600    386   388   448    1
  601    448   388   449    1
  602    396   328   383    1
  603    396   383   453    1
  604    398   396   453    1
  605    398   453   454    1
  606    400   398   454    1
  607    400   454   455    1
  608    389   457   388    1
  609    388   457   456    1
  610    457   459   456    1
  611    456   459   458    1
  612    459   461   458    1
  613    458   461   460    1
  614    469   401   400    1
  615    469   400   468    1
  616    471   469   468    1
  617    471   468   470    1
  618    473   471   470    1
  619    473   470   472    1
  620    404   474   389    1
  621    389   474   457    1
  622    474   475   457    1
  623    457   475   459    1
  624    475   476   459    1
  625    459   476   461    1
  626    480   410   401    1
  627    480   401   469    1
  628    481   480   469    1
  629    481   469   471    1
  630    482   481   471    1
  631    482   471   473    1
  632    413   483   404    1
  633    404   483   474    1
  634    483   484   474    1
  635    474   484   475    1
  636    484   485   475    1
  637    475   485   476    1
  638    489   419   410    1
  639    489   410   480    1
  640    490   489   480    1
  641    490   480   481    1
  642    491   490   481    1
  643    491   481   482    1
  644    422   492   413    1
  645    413   492   483    1
  646    492   493   483    1
  647    483   493   484    1
  648    493   494   484    1
  649    484   494   485    1
  650    498   428   419    1
  651    498   419   489    1
  652    499   498   489    1
  653    499   489   490    1
  654    500   499   490    1
  655    500   490   491    1
  656    431   501   422    1
  657    422   501   492    1
  658    501   502   492    1
  659    492   502   493    1
  660    502   503   493    1
  661    493   503   494    1
  662    507   437   428    1
  663    507   428   498    1
  664    508   507   498    1
  665    508   498   499    1
  666    509   508   499    1
  667    509   499   500    1
  668    440   510   431    1
  669    431   510   501    1
  670    510   511   501    1
  671    501   511   502    1
  672    511   512   502    1
  673    502   512   503    1
  674    516   446   437    1
  675    516   437   507    1
  676    517   516   507    1
  677    517   507   508    1
  678    518   517   508    1
  679    518   508   509    1
  680    449   519   440    1
  681    440   519   510    1
  682    519   520   510    1
  683    510   520   511    1
  684    520   521   511    1
  685    511   521   512    1
  686    525   455   446    1
  687    525   446   516    1
  688    526   525   516    1
  689    526   516   517    1
  690    527   526   517    1
  691    527   517   518    1
  692    388   456   449    1
  693    449   456   519    1
  694    456   458   519    1
  695    519   458   520    1
  696    458   460   520    1
  697    520   460   521    1
  698    468   400   455    1
  699    468   455   525    1
  700    470   468   525    1
  701    470   525   526    1
  702    472   470   526    1
  703    472   526   527    1
  704    461   529   460    1
  705    460   529   528    1
  706    529   531   528    1
  707    528   531   530    1
  708    531   533   530    1
  709    530   533   532    1
  710    541   473   472    1
  711    541   472   540    1
  712    543   541   540    1
  713    543   540   542    1
  714    545   543   542    1
  715    545   542   544    1
  716    476   546   461    1
  717    461   546   529    1
  718    546   547   529    1
  719    529   547   531    1
  720    547   548   531    1
  721    531   548   533    1
  722    552   482   473    1
  723    552   473   541    1
  724    553   552   541    1
  725    553   541   543    1
  726    554   553   543    1
  727    554   543   545    1
  728    485   555   476    1
  729    476   555   546    1
  730    555   556   546    1
  731    546   556   547    1
  732    556   557   547    1
  733    547   557   548    1
  734    561   491   482    1
  735    561   482   552    1
  736    562   561   552    1
  737    562   552   553    1
  738    563   562   553    1
  739    563   553   554    1
  740    494   564   485    1
  741    485   564   555    1
  742    564   565   555    1
  743    555   565   556    1
  744    565   566   556    1
  745    556   566   557    1
  746    570   500   491    1
  747    570   491   561    1
  748    571   570   561    1
  749    571   561   562    1
  750    572   571   562    1
  751    572   562   563    1
  752    503   573   494    1
  753    494   573   564    1
  754    573   574   564    1
  755    564   574   565    1
  756    574   575   565    1
  757    565   575   566    1
  758    579   509   500    1
  759    579   500   570    1
  760    580   579   570    1
  761    580   570   571    1
  762    581   580   571    1
  763    581   571   572    1
  764    512   582   503    1
  765    503   582   573    1
  766    582   583   573    1
  767    573   583   574    1
  768    583   584   574    1
  769    574   584   575    1
  770    588   518   509    1
  771    588   509   579    1
  772    589   588   579    1
  773    589   579   580    1
  774    590   589   580    1
  775    590   580   581    1
  776    521   591   512    1
  777    512   591   582    1
  778    591   592   582    1
  779    582   592   583    1
  780    592   593   583    1
  781    583   593   584    1
  782    597   527   518    1
  783    597   518   588    1
  784    598   597   588    1
  785    598   588   589    1
  786    599   598   589    1
  787    599   589   590    1
  788    460   528   521    1
  789    521   528   591    1
  790    528   530   591    1
  791    591   530   592    1
  792    530   532   592    1
  793    592   532   593    1
  794    540   472   527    1
  795    540   527   597    1
  796    542   540   597    1
  797    542   597   598    1
  798    544   542   598    1
  799    544   598   599    1
  800    533   601   532    1
  801    532   601   600    1
  802    601   603   600    1
  803    600   603   602    1
  804    603   605   602    1
  805    602   605   604    1
  806    613   545   544    1
  807    613   544   612    1
  808    615   613   612    1
  809    615   612   614    1
  810    617   615   614    1
  811    617   614   616    1
  812    548   618   533    1
  813    533   618   601    1
  814    618   619   601    1
  815    601   619   603    1
  816    619   620   603    1
  817    603   620   605    1
  818    624   554   545    1
  819    624   545   613    1
  820    625   624   613    1
  821    625   613   615    1
  822    626   625   615    1
  823    626   615   617    1
  824    557   627   548    1
  825    548   627   618    1
  826    627   628   618    1
  827    618   628   619    1
  828    628   629   619    1
  829    619   629   620    1
  830    633   563   554    1
  831    633   554   624    1
  832    634   633   624    1
  833    634   624   625    1
  834    635   634   625    1
  835    635   625   626    1
  836    566   636   557    1
  837    557   636   627    1
  838    636   637   627    1
  839    627   637   628    1
  840    637   638   628    1
  841    628   638   629    1
  842    642   572   563    1
  843    642   563   633    1
  844    643   642   633    1
  845    643   633   634    1
  846    644   643   634    1
  847    644   634   635    1
  848    575   645   566    1
  849    566   645   636    1
  850    645   646   636    1
  851    636   646   637    1
  852    646   647   637    1
  853    637   647   638    1
  854    651   581   572    1
  855    651   572   642    1
  856    652   651   642    1
  857    652   642   643    1
  858    653   652   643    1
  859    653   643   644    1
  860    584   654   575    1
  861    575   654   645    1
  862    654   655   645    1
  863    645   655   646    1
  864    655   656   646    1
  865    646   656   647    1
  866    660   590   581    1
  867    660   581   651    1
  868    661   660   651    1
  869    661   651   652    1
  870    662   661   652    1
  871    662   652   653    1
  872    593   663   584    1
  873    584   663   654    1
  874    663   664   654    1
  875    654   664   655    1
  876    664   665   655    1
  877    655   665   656    1
  878    669   599   590    1
  879    669   590   660    1
  880    670   669   660    1
  881    670   660   661    1
  882    671   670   661    1
  883    671   661   662    1
  884    532   600   593    1
  885    593   600   663    1
  886    600   602   663    1
  887    663   602   664    1
  888    602   604   664    1
  889    664   604   665    1
  890    612   544   599    1
  891    612   599   669    1
  892    614   612   669    1
  893    614   669   670    1
  894    616   614   670    1
  895    616   670   671    1
  896    605   673   604    1
  897    604   673   672    1
  898    673   675   672    1
  899    672   675   674    1
  900    675   677   674    1
  901    674   677   676    1
  902    685   617   616    1
  903    685   616   684    1
  904    687   685   684    1
  905    687   684   686    1
  906    689   687   686    1
  907    689   686   688    1
  908    620   690   605    1
  909    605   690   673    1
  910    690   691   673    1
  911    673   691   675    1
  912    691   692   675    1
  913    675   692   677    1
  914    696   626   617    1
  915    696   617   685    1
  916    697   696   685    1
  917    697   685   687    1
  918    698   697   687    1
  919    698   687   689    1
  920    629   699   620    1
  921    620   699   690    1
  922    699   700   690    1
  923    690   700   691    1
  924    700   701   691    1
  925    691   701   692    1
  926    705   635   626    1
  927    705   626   696    1
  928    706   705   696    1
  929    706   696   697    1
  930    707   706   697    1
  931    707   697   698    1
  932    638   708   629    1
  933    629   708   699    1
  934    708   709   699    1
  935    699   709   700    1
  936    709   710   700    1
  937    700   710   701    1
  938    714   644   635    1
  939    714   635   705    1
  940    715   714   705    1
  941    715   705   706    1
  942    716   715   706    1
  943    716   706   707    1
  944    647   717   638    1
  945    638   717   708    1
  946    717   718   708    1
  947    708   718   709    1
  948    718   719   709    1
  949    709   719   710    1
  950    723   653   644    1
  951    723   644   714    1
  952    724   723   714    1
  953    724   714   715    1
  954    725   724   715    1
  955    725   715   716    1
  956    656   726   647    1
  957    647   726   717    1
  958    726   727   717    1
  959    717   727   718    1
  960    727   728   718    1
  961    718   728   719    1
  962    732   662   653    1
  963    732   653   723    1
  964    733   732   723    1
  965    733   723   724    1
  966    734   733   724    1
  967    734   724   725    1
  968    665   735   656    1
  969    656   735   726    1
  970    735   736   726    1
  971    726   736   727    1
  972    736   737   727    1
  973    727   737   728    1
  974    741   671   662    1
  975    741   662   732    1
  976    742   741   732    1
  977    742   732   733    1
  978    743   742   733    1
  979    743   733   734    1
  980    604   672   665    1
  981    665   672   735    1
  982    672   674   735    1
  983    735   674   736    1
  984    674   676   736    1
  985    736   676   737    1
  986    684   616   671    1
  987    684   671   741    1
  988    686   684   741    1
  989    686   741   742    1
  990    688   686   742    1
  991    688   742   743    1
  992    745   744   752    1
  993    745   747   744    1
  994    744   747   746    1
  995    753   745   752    1
  996    747   749   746    1
  997    746   749   748    1
  998    749   751   748    1
  999    748   751   750    1
 1000    753   752   760    1
 1001    761   753   760    1
 1002    763   761   760    1
 1003    763   760   762    1
 1004    765   763   762    1
 1005    765   762   764    1
 1006    767   765   764    1
 1007    767   764   766    1
 1008    768   745   753    1
 1009    768   769   745    1
 1010    745   769   747    1
 1011    772   768   753    1
 1012    769   770   747    1
 1013    747   770   749    1
 1014    770   771   749    1
 1015    749   771   751    1
 1016    772   753   761    1
 1017    776   772   761    1
 1018    777   776   761    1
 1019    777   761   763    1
 1020    778   777   763    1
 1021    778   763   765    1
 1022    779   778   765    1
 1023    779   765   767    1
 1024    780   768   772    1
 1025    780   781   768    1
 1026    768   781   769    1
 1027    784   780   772    1
 1028    781   782   769    1
 1029    769   782   770    1
 1030    782   783   770    1
 1031    770   783   771    1
 1032    784   772   776    1
 1033    788   784   776    1
 1034    789   788   776    1
 1035    789   776   777    1
 1036    790   789   777    1
 1037    790   777   778    1
 1038    791   790   778    1
 1039    791   778   779    1
 1040    792   780   784    1
 1041    792   793   780    1
 1042    780   793   781    1
 1043    796   792   784    1
 1044    793   794   781    1
 1045    781   794   782    1
 1046    794   795   782    1
 1047    782   795   783    1
 1048    796   784   788    1
 1049    800   796   788    1
 1050    801   800   788    1
 1051    801   788   789    1
 1052    802   801   789    1
 1053    802   789   790    1
 1054    803   802   790    1
 1055    803   790   791    1
 1056    804   792   796    1
 1057    804   805   792    1
 1058    792   805   793    1
 1059    808   804   796    1
 1060    805   806   793    1
 1061    793   806   794    1
 1062    806   807   794    1
 1063    794   807   795    1
 1064    808   796   800    1
 1065    812   808   800    1
 1066    813   812   800    1
 1067    813   800   801    1
 1068    814   813   801    1
 1069    814   801   802    1
 1070    815   814   802    1
 1071    815   802   803    1
 1072    816   804   808    1
 1073    816   817   804    1
 1074    804   817   805    1
 1075    820   816   808    1
 1076    817   818   805    1
 1077    805   818   806    1
 1078    818   819   806    1
 1079    806   819   807    1
 1080    820   808   812    1
 1081    824   820   812    1
 1082    825   824   812    1
 1083    825   812   813    1
 1084    826   825   813    1
 1085    826   813   814    1
 1086    827   826   814    1
 1087    827   814   815    1
 1088    828   816   820    1
 1089    828   829   816    1
 1090    816   829   817    1
 1091    832   828   820    1
 1092    829   830   817    1
 1093    817   830   818    1
 1094    830   831   818    1
 1095    818   831   819    1
 1096    832   820   824    1
 1097    836   832   824    1
 1098    837   836   824    1
 1099    837   824   825    1
 1100    838   837   825    1
 1101    838   825   826    1
 1102    839   838   826    1
 1103    839   826   827    1
 1104    744   828   832    1
 1105    744   746   828    1
 1106    828   746   829    1
 1107    752   744   832    1
 1108    746   748   829    1
 1109    829   748   830    1
 1110    748   750   830    1
 1111    830   750   831    1
 1112    752   832   836    1
 1113    760   752   836    1
 1114    762   760   836    1
 1115    762   836   837    1
 1116    764   762   837    1
 1117    764   837   838    1
 1118    766   764   838    1
 1119    766   838   839    1
 1120    751   841   750    1
 1121    750   841   840    1
 1122    841   843   840    1
 1123    840   843   842    1
 1124    843   845   842    1
 1125    842   845   844    1
 1126    853   767   766    1
 1127    853   766   852    1
 1128    855   853   852    1
 1129    855   852   854    1
 1130    857   855   854    1
 1131    857   854   856    1
 1132    771   858   751    1
 1133    751   858   841    1
 1134    858   859   841    1
 1135    841   859   843    1
 1136    859   860   843    1
 1137    843   860   845    1
 1138    864   779   767    1
 1139    864   767   853    1
 1140    865   864   853    1
 1141    865   853   855    1
 1142    866   865   855    1
 1143    866   855   857    1
 1144    783   867   771    1
 1145    771   867   858    1
 1146    867   868   858    1
 1147    858   868   859    1
 1148    868   869   859    1
 1149    859   869   860    1
 1150    873   791   779    1
 1151    873   779   864    1
 1152    874   873   864    1
 1153    874   864   865    1
 1154    875   874   865    1
 1155    875   865   866    1
 1156    795   876   783    1
 1157    783   876   867    1
 1158    876   877   867    1
 1159    867   877   868    1
 1160    877   878   868    1
 1161    868   878   869    1
 1162    882   803   791    1
 1163    882   791   873    1
 1164    883   882   873    1
 1165    883   873   874    1
 1166    884   883   874    1
 1167    884   874   875    1
 1168    807   885   795    1
 1169    795   885   876    1
 1170    885   886   876    1
 1171    876   886   877    1
 1172    886   887   877    1
 1173    877   887   878    1
 1174    891   815   803    1
 1175    891   803   882    1
 1176    892   891   882    1
 1177    892   882   883    1
 1178    893   892   883    1
 1179    893   883   884    1
 1180    819   894   807    1
 1181    807   894   885    1
 1182    894   895   885    1
 1183    885   895   886    1
 1184    895   896   886    1
 1185    886   896   887    1
 1186    900   827   815    1
 1187    900   815   891    1
 1188    901   900   891    1
 1189    901   891   892    1
 1190    902   901   892    1
 1191    902   892   893    1
 1192    831   903   819    1
 1193    819   903   894    1
 1194    903   904   894    1
 1195    894   904   895    1
 1196    904   905   895    1
 1197    895   905   896    1
 1198    909   839   827    1
 1199    909   827   900    1
 1200    910   909   900    1
 1201    910   900   901    1
 1202    911   910   901    1
 1203    911   901   902    1
 1204    750   840   831    1
 1205    831   840   903    1
 1206    840   842   903    1
 1207    903   842   904    1
 1208    842   844   904    1
 1209    904   844   905    1
 1210    852   766   839    1
 1211    852   839   909    1
 1212    854   852   909    1
 1213    854   909   910    1
 1214    856   854   910    1
 1215    856   910   911    1
 1216    845   913   844    1
 1217    844   913   912    1
 1218    913   915   912    1
 1219    912   915   914    1
 1220    915   917   914    1
 1221    914   917   916    1
 1222    925   857   856    1
 1223    925   856   924    1
 1224    927   925   924    1
 1225    927   924   926    1
 1226    929   927   926    1
 1227    929   926   928    1
 1228    860   930   845    1
 1229    845   930   913    1
 1230    930   931   913    1
 1231    913   931   915    1
 1232    931   932   915    1
 1233    915   932   917    1
 1234    936   866   857    1
 1235    936   857   925    1
 1236    937   936   925    1
 1237    937   925   927    1
 1238    938   937   927    1
 1239    938   927   929    1
 1240    869   939   860    1
 1241    860   939   930    1
 1242    939   940   930    1
 1243    930   940   931    1
 1244    940   941   931    1
 1245    931   941   932    1
 1246    945   875   866    1
 1247    945   866   936    1
 1248    946   945   936    1
 1249    946   936   937    1
 1250    947   946   937    1
 1251    947   937   938    1
 1252    878   948   869    1
 1253    869   948   939    1
 1254    948   949   939    1
 1255    939   949   940    1
 1256    949   950   940    1
 1257    940   950   941    1
 1258    954   884   875    1
 1259    954   875   945    1
 1260    955   954   945    1
 1261    955   945   946    1
 1262    956   955   946    1
 1263    956   946   947    1
 1264    887   957   878    1
 1265    878   957   948    1
 1266    957   958   948    1
 1267    948   958   949    1
 1268    958   959   949    1
 1269    949   959   950    1
 1270    963   893   884    1
 1271    963   884   954    1
 1272    964   963   954    1
 1273    964   954   955    1
 1274    965   964   955    1
 1275    965   955   956    1
 1276    896   966   887    1
 1277    887   966   957    1
 1278    966   967   957    1
 1279    957   967   958    1
 1280    967   968   958    1
 1281    958   968   959    1
 1282    972   902   893    1
 1283    972   893   963    1
 1284    973   972   963    1
 1285    973   963   964    1
 1286    974   973   964    1
 1287    974   964   965    1
 1288    905   975   896    1
 1289    896   975   966    1
 1290    975   976   966    1
 1291    966   976   967    1
 1292    976   977   967    1
 1293    967   977   968    1
 1294    981   911   902    1
 1295    981   902   972    1
 1296    982   981   972    1
 1297    982   972   973    1
 1298    983   982   973    1
 1299    983   973   974    1
 1300    844   912   905    1
 1301    905   912   975    1
 1302    912   914   975    1
 1303    975   914   976    1
 1304    914   916   976    1
 1305    976   916   977    1
 1306    924   856   911    1
 1307    924   911   981    1
 1308    926   924   981    1
 1309    926   981   982    1
 1310    928   926   982    1
 1311    928   982   983    1
 1312    917   985   916    1
 1313    916   985   984    1
 1314    985   987   984    1
 1315    984   987   986    1
 1316    987   989   986    1
 1317    986   989   988    1
 1318    997   929   928    1
 1319    997   928   996    1
 1320    999   997   996    1
 1321    999   996   998    1
 1322   1001   999   998    1
 1323   1001   998  1000    1
 1324    932  1002   917    1
 1325    917  1002   985    1
 1326   1002  1003   985    1
 1327    985  1003   987    1
 1328   1003  1004   987    1
 1329    987  1004   989    1
 1330   1008   938   929    1
 1331   1008   929   997    1
 1332   1009  1008   997    1
 1333   1009   997   999    1
 1334   1010  1009   999    1
 1335   1010   999  1001    1
 1336    941  1011   932    1
 1337    932  1011  1002    1
 1338   1011  1012  1002    1
 1339   1002  1012  1003    1
 1340   1012  1013  1003    1
 1341   1003  1013  1004    1
 1342   1017   947   938    1
 1343   1017   938  1008    1
 1344   1018  1017  1008    1
 1345   1018  1008  1009    1
 1346   1019  1018  1009    1
 1347   1019  1009  1010    1
 1348    950  1020   941    1
 1349    941  1020  1011    1
 1350   1020  1021  1011    1
 1351   1011  1021  1012    1
 1352   1021  1022  1012    1
 1353   1012  1022  1013    1
 1354   1026   956   947    1
 1355   1026   947  1017    1
 1356   1027  1026  1017    1
 1357   1027  1017  1018    1
 1358   1028  1027  1018    1
 1359   1028  1018  1019    1
 1360    959  1029   950    1
 1361    950  1029  1020    1
 1362   1029  1030  1020    1
 1363   1020  1030  1021    1
 1364   1030  1031  1021    1
 1365   1021  1031  1022    1
 1366   1035   965   956    1
 1367   1035   956  1026    1
 1368   1036  1035  1026    1
 1369   1036  1026  1027    1
 1370   1037  1036  1027    1
 1371   1037  1027  1028    1
 1372    968  1038   959    1
 1373    959  1038  1029    1
 1374   1038  1039  1029    1
 1375   1029  1039  1030    1
 1376   1039  1040  1030    1
 1377   1030  1040  1031    1
 1378   1044   974   965    1
 1379   1044   965  1035    1
 1380   1045  1044  1035    1
 1381   1045  1035  1036    1
 1382   1046  1045  1036    1
 1383   1046  1036  1037    1
 1384    977  1047   968    1
 1385    968  1047  1038    1
 1386   1047  1048  1038    1
 1387   1038  1048  1039    1
 1388   1048  1049  1039    1
 1389   1039  1049  1040    1
 1390   1053   983   974    1
 1391   1053   974  1044    1
 1392   1054  1053  1044    1
 1393   1054  1044  1045    1
 1394   1055  1054  1045    1
 1395   1055  1045  1046    1
 1396    916   984   977    1
 1397    977   984  1047    1
 1398    984   986  1047    1
 1399   1047   986  1048    1
 1400    986   988  1048    1
 1401   1048   988  1049    1
 1402    996   928   983    1
 1403    996   983  1053    1
 1404    998   996  1053    1
 1405    998  1053  1054    1
 1406   1000   998  1054    1
 1407   1000  1054  1055    1
 1408    989  1057   988    1
 1409    988  1057  1056    1
 1410   1057  1059  1056    1
 1411   1056  1059  1058    1
 1412   1059  1061  1058    1
 1413   1058  1061  1060    1
 1414   1069  1001  1000    1
 1415   1069  1000  1068    1
 1416   1071  1069  1068    1
 1417   1071  1068  1070    1
 1418   1073  1071  1070    1
 1419   1073  1070  1072    1
 1420   1004  1074   989    1
 1421    989  1074  1057    1
 1422   1074  1075  1057    1
 1423   1057  1075  1059    1
 1424   1075  1076  1059    1
 1425   1059  1076  1061    1
 1426   1080  1010  1001    1
 1427   1080  1001  1069    1
 1428   1081  1080  1069    1
 1429   1081  1069  1071    1
 1430   1082  1081  1071    1
 1431   1082  1071  1073    1
 1432   1013  1083  1004    1
 1433   1004  1083  1074    1
 1434   1083  1084  1074    1
 1435   1074  1084  1075    1
 1436   1084  1085  1075    1
 1437   1075  1085  1076    1
 1438   1089  1019  1010    1
 1439   1089  1010  1080    1
 1440   1090  1089  1080    1
 1441   1090  1080  1081    1
 1442   1091  1090  1081    1
 1443   1091  1081  1082    1
 1444   1022  1092  1013    1
 1445   1013  1092  1083    1
 1446   1092  1093  1083    1
 1447   1083  1093  1084    1
 1448   1093  1094  1084    1
 1449   1084  1094  1085    1
 1450   1098  1028  1019    1
 1451   1098  1019  1089    1
 1452   1099  1098  1089    1
 1453   1099  1089  1090    1
 1454   1100  1099  1090    1
 1455   1100  1090  1091    1
 1456   1031  1101  1022    1
 1457   1022  1101  1092    1
 1458   1101  1102  1092    1
 1459   1092  1102  1093    1
 1460   1102  1103  1093    1
 1461   1093  1103  1094    1
 1462   1107  1037  1028    1
 1463   1107  1028  1098    1
 1464   1108  1107  1098    1
 1465   1108  1098  1099    1
 1466   1109  1108  1099    1
 1467   1109  1099  1100    1
 1468   1040  1110  1031    1
 1469   1031  1110  1101    1
 1470   1110  1111  1101    1
 1471   1101  1111  1102    1
 1472   1111  1112  1102    1
 1473   1102  1112  1103    1
 1474   1116  1046  1037    1
 1475   1116  1037  1107    1
 1476   1117  1116  1107    1
 1477   1117  1107  1108    1
 1478   1118  1117  1108    1
 1479   1118  1108  1109    1
 1480   1049  1119  1040    1
 1481   1040  1119  1110    1
 1482   1119  1120  1110    1
 1483   1110  1120  1111    1
 1484   1120  1121  1111    1
 1485   1111  1121  1112    1
 1486   1125  1055  1046    1
 1487   1125  1046  1116    1
 1488   1126  1125  1116    1
 1489   1126  1116  1117    1
 1490   1127  1126  1117    1
 1491   1127  1117  1118    1
 1492    988  1056  1049    1
 1493   1049  1056  1119    1
 1494   1056  1058  1119    1
 1495   1119  1058  1120    1
 1496   1058  1060  1120    1
 1497   1120  1060  1121    1
 1498   1068  1000  1055    1
 1499   1068  1055  1125    1
 1500   1070  1068  1125    1
 1501   1070  1125  1126    1
 1502   1072  1070  1126    1
 1503   1072  1126  1127    1
 1504   1061  1129  1060    1
 1505   1060  1129  1128    1
 1506   1129  1131  1128    1
 1507   1128  1131  1130    1
 1508   1131  1133  1130    1
 1509   1130  1133  1132    1
 1510   1141  1073  1072    1
 1511   1141  1072  1140    1
 1512   1143  1141  1140    1
 1513   1143  1140  1142    1
 1514   1145  1143  1142    1
 1515   1145  1142  1144    1
 1516   1076  1146  1061    1
 1517   1061  1146  1129    1
 1518   1146  1147  1129    1
 1519   1129  1147  1131    1
 1520   1147  1148  1131    1
 1521   1131  1148  1133    1
 1522   1152  1082  1073    1
 1523   1152  1073  1141    1
 1524   1153  1152  1141    1
 1525   1153  1141  1143    1
 1526   1154  1153  1143    1
 1527   1154  1143  1145    1
 1528   1085  1155  1076    1
 1529   1076  1155  1146    1
 1530   1155  1156  1146    1
 1531   1146  1156  1147    1
 1532   1156  1157  1147    1
 1533   1147  1157  1148    1
 1534   1161  1091  1082    1
 1535   1161  1082  1152    1
 1536   1162  1161  1152    1
 1537   1162  1152  1153    1
 1538   1163  1162  1153    1
 1539   1163  1153  1154    1
 1540   1094  1164  1085    1
 1541   1085  1164  1155    1
 1542   1164  1165  1155    1
 1543   1155  1165  1156    1
 1544   1165  1166  1156    1
 1545   1156  1166  1157    1
 1546   1170  1100  1091    1
 1547   1170  1091  1161    1
 1548   1171  1170  1161    1
 1549   1171  1161  1162    1
 1550   1172  1171  1162    1
 1551   1172  1162  1163    1
 1552   1103  1173  1094    1
 1553   1094  1173  1164    1
 1554   1173  1174  1164    1
 1555   1164  1174  1165    1
 1556   1174  1175  1165    1
 1557   1165  1175  1166    1
 1558   1179  1109  1100    1
 1559   1179  1100  1170    1
 1560   1180  1179  1170    1
 1561   1180  1170  1171    1
 1562   1181  1180  1171    1
 1563   1181  1171  1172    1
 1564   1112  1182  1103    1
 1565   1103  1182  1173    1
 1566   1182  1183  1173    1
 1567   1173  1183  1174    1
 1568   1183  1184  1174    1
 1569   1174  1184  1175    1
 1570   1188  1118  1109    1
 1571   1188  1109  1179    1
 1572   1189  1188  1179    1
 1573   1189  1179  1180    1
 1574   1190  1189  1180    1
 1575   1190  1180  1181    1
 1576   1121  1191  1112    1
 1577   1112  1191  1182    1
 1578   1191  1192  1182    1
 1579   1182  1192  1183    1
 1580   1192  1193  1183    1
 1581   1183  1193  1184    1
 1582   1197  1127  1118    1
 1583   1197  1118  1188    1
 1584   1198  1197  1188    1
 1585   1198  1188  1189    1
 1586   1199  1198  1189    1
 1587   1199  1189  1190    1
 1588   1060  1128  1121    1
 1589   1121  1128  1191    1
 1590   1128  1130  1191    1
 1591   1191  1130  1192    1
 1592   1130  1132  1192    1
 1593   1192  1132  1193    1
 1594   1140  1072  1127    1
 1595   1140  1127  1197    1
 1596   1142  1140  1197    1
 1597   1142  1197  1198    1
 1598   1144  1142  1198    1
 1599   1144  1198  1199    1
 1600   1133  1201  1132    1
 1601   1132  1201  1200    1
 1602   1201  1203  1200    1
 1603   1200  1203  1202    1
 1604   1203  1205  1202    1
 1605   1202  1205  1204    1
 1606   1213  1145  1144    1
 1607   1213  1144  1212    1
 1608   1215  1213  1212    1
 1609   1215  1212  1214    1
 1610   1217  1215  1214    1
 1611   1217  1214  1216    1
 1612   1148  1218  1133    1
 1613   1133  1218  1201    1
 1614   1218  1219  1201    1
 1615   1201  1219  1203    1
 1616   1219  1220  1203    1
 1617   1203  1220  1205    1
 1618   1224  1154  1145    1
 1619   1224  1145  1213    1
 1620   1225  1224  1213    1
 1621   1225  1213  1215    1
 1622   1226  1225  1215    1
 1623   1226  1215  1217    1
 1624   1157  1227  1148    1
 1625   1148  1227  1218    1
 1626   1227  1228  1218    1
 1627   1218  1228  1219    1
 1628   1228  1229  1219    1
 1629   1219  1229  1220    1
 1630   1233  1163  1154    1
 1631   1233  1154  1224    1
 1632   1234  1233  1224    1
 1633   1234  1224  1225    1
 1634   1235  1234  1225    1
 1635   1235  1225  1226    1
 1636   1166  1236  1157    1
 1637   1157  1236  1227    1
 1638   1236  1237  1227    1
 1639   1227  1237  1228    1
 1640   1237  1238  1228    1
 1641   1228  1238  1229    1
 1642   1242  1172  1163    1
 1643   1242  1163  1233    1
 1644   1243  1242  1233    1
 1645   1243  1233  1234    1
 1646   1244  1243  1234    1
 1647   1244  1234  1235    1
 1648   1175  1245  1166    1
 1649   1166  1245  1236    1
 1650   1245  1246  1236    1
 1651   1236  1246  1237    1
 1652   1246  1247  1237    1
 1653   1237  1247  1238    1
 1654   1251  1181  1172    1
 1655   1251  1172  1242    1
 1656   1252  1251  1242    1
 1657   1252  1242  1243    1
 1658   1253  1252  1243    1
 1659   1253  1243  1244    1
 1660   1184  1254  1175    1
 1661   1175  1254  1245    1
 1662   1254  1255  1245    1
 1663   1245  1255  1246    1
 1664   1255  1256  1246    1
 1665   1246  1256  1247    1
 1666   1260  1190  1181    1
 1667   1260  1181  1251    1
 1668   1261  1260  1251    1
 1669   1261  1251  1252    1
 1670   1262  1261  1252    1
 1671   1262  1252  1253    1
 1672   1193  1263  1184    1
 1673   1184  1263  1254    1
 1674   1263  1264  1254    1
 1675   1254  1264  1255    1
 1676   1264  1265  1255    1
 1677   1255  1265  1256    1
 1678   1269  1199  1190    1
 1679   1269  1190  1260    1
 1680   1270  1269  1260    1
 1681   1270  1260  1261    1
 1682   1271  1270  1261    1
 1683   1271  1261  1262    1
 1684   1132  1200  1193    1
 1685   1193  1200  1263    1
 1686   1200  1202  1263    1
 1687   1263  1202  1264    1
 1688   1202  1204  1264    1
 1689   1264  1204  1265    1
 1690   1212  1144  1199    1
 1691   1212  1199  1269    1
 1692   1214  1212  1269    1
 1693   1214  1269  1270    1
 1694   1216  1214  1270    1
 1695   1216  1270  1271    1
 1696   1205  1273  1204    1
 1697   1204  1273  1272    1
 1698   1273  1275  1272    1
 1699   1272  1275  1274    1
 1700   1275  1277  1274    1
 1701   1274  1277  1276    1
 1702   1285  1217  1216    1
 1703   1285  1216  1284    1
 1704   1287  1285  1284    1
 1705   1287  1284  1286    1
 1706   1289  1287  1286    1
 1707   1289  1286  1288    1
 1708   1220  1290  1205    1
 1709   1205  1290  1273    1
 1710   1290  1291  1273    1
 1711   1273  1291  1275    1
 1712   1291  1292  1275    1
 1713   1275  1292  1277    1
 1714   1296  1226  1217    1
 1715   1296  1217  1285    1
 1716   1297  1296  1285    1
 1717   1297  1285  1287    1
 1718   1298  1297  1287    1
 1719   1298  1287  1289    1
 1720   1229  1299  1220    1
 1721   1220  1299  1290    1
 1722   1299  1300  1290    1
 1723   1290  1300  1291    1
 1724   1300  1301  1291    1
 1725   1291  1301  1292    1
 1726   1305  1235  1226    1
 1727   1305  1226  1296    1
 1728   1306  1305  1296    1
 1729   1306  1296  1297    1
 1730   1307  1306  1297    1
 1731   1307  1297  1298    1
 1732   1238  1308  1229    1
 1733   1229  1308  1299    1
 1734   1308  1309  1299    1
 1735   1299  1309  1300    1
 1736   1309  1310  1300    1
 1737   1300  1310  1301    1
 1738   1314  1244  1235    1
 1739   1314  1235  1305    1
 1740   1315  1314  1305    1
 1741   1315  1305  1306    1
 1742   1316  1315  1306    1
 1743   1316  1306  1307    1
 1744   1247  1317  1238    1
 1745   1238  1317  1308    1
 1746   1317  1318  1308    1
 1747   1308  1318  1309    1
 1748   1318  1319  1309    1
 1749   1309  1319  1310    1
 1750   1323  1253  1244    1
 1751   1323  1244  1314    1
 1752   1324  1323  1314    1
 1753   1324  1314  1315    1
 1754   1325  1324  1315    1
 1755   1325  1315  1316    1
 1756   1256  1326  1247    1
 1757   1247  1326  1317    1
 1758   1326  1327  1317    1
 1759   1317  1327  1318    1
 1760   1327  1328  1318    1
 1761   1318  1328  1319    1
 1762   1332  1262  1253    1
 1763   1332  1253  1323    1
 1764   1333  1332  1323    1
 1765   1333  1323  1324    1
 1766   1334  1333  1324    1
 1767   1334  1324  1325    1
 1768   1265  1335  1256    1
 1769   1256  1335  1326    1
 1770   1335  1336  1326    1
 1771   1326  1336  1327    1
 1772   1336  1337  1327    1
 1773   1327  1337  1328    1
 1774   1341  1271  1262    1
 1775   1341  1262  1332    1
 1776   1342  1341  1332    1
 1777   1342  1332  1333    1
 1778   1343  1342  1333    1
 1779   1343  1333  1334    1
 1780   1204  1272  1265    1
 1781   1265  1272  1335    1
 1782   1272  1274  1335    1
 1783   1335  1274  1336    1
 1784   1274  1276  1336    1
 1785   1336  1276  1337    1
 1786   1284  1216  1271    1
 1787   1284  1271  1341    1
 1788   1286  1284  1341    1
 1789   1286  1341  1342    1
 1790   1288  1286  1342    1
 1791   1288  1342  1343    1
 1792   1277  1345  1276    1
 1793   1276  1345  1344    1
 1794   1345  1347  1344    1
 1795   1344  1347  1346    1
 1796   1347  1349  1346    1
 1797   1346  1349  1348    1
 1798   1357  1289  1288    1
 1799   1357  1288  1356    1
 1800   1359  1357  1356    1
 1801   1359  1356  1358    1
 1802   1361  1359  1358    1
 1803   1361  1358  1360    1
 1804   1292  1362  1277    1
 1805   1277  1362  1345    1
 1806   1362  1363  1345    1
 1807   1345  1363  1347    1
 1808   1363  1364  1347    1
 1809   1347  1364  1349    1
 1810   1368  1298  1289    1
 1811   1368  1289  1357    1
 1812   1369  1368  1357    1
 1813   1369  1357  1359    1
 1814   1370  1369  1359    1
 1815   1370  1359  1361    1
 1816   1301  1371  1292    1
 1817   1292  1371  1362    1
 1818   1371  1372  1362    1
 1819   1362  1372  1363    1
 1820   1372  1373  1363    1
 1821   1363  1373  1364    1
 1822   1377  1307  1298    1
 1823   1377  1298  1368    1
 1824   1378  1377  1368    1
 1825   1378  1368  1369    1
 1826   1379  1378  1369    1
 1827   1379  1369  1370    1
 1828   1310  1380  1301    1
 1829   1301  1380  1371    1
 1830   1380  1381  1371    1
 1831   1371  1381  1372    1
 1832   1381  1382  1372    1
 1833   1372  1382  1373    1
 1834   1386  1316  1307    1
 1835   1386  1307  1377    1
 1836   1387  1386  1377    1
 1837   1387  1377  1378    1
 1838   1388  1387  1378    1
 1839   1388  1378  1379    1
 1840   1319  1389  1310    1
 1841   1310  1389  1380    1
 1842   1389  1390  1380    1
 1843   1380  1390  1381    1
 1844   1390  1391  1381    1
 1845   1381  1391  1382    1
 1846   1395  1325  1316    1
 1847   1395  1316  1386    1
 1848   1396  1395  1386    1
 1849   1396  1386  1387    1
 1850   1397  1396  1387    1
 1851   1397  1387  1388    1
 1852   1328  1398  1319    1
 1853   1319  1398  1389    1
 1854   1398  1399  1389    1
 1855   1389  1399  1390    1
 1856   1399  1400  1390    1
 1857   1390  1400  1391    1
 1858   1404  1334  1325    1
 1859   1404  1325  1395    1
 1860   1405  1404  1395    1
 1861   1405  1395  1396    1
 1862   1406  1405  1396    1
 1863   1406  1396  1397    1
 1864   1337  1407  1328    1
 1865   1328  1407  1398    1
 1866   1407  1408  1398    1
 1867   1398  1408  1399    1
 1868   1408  1409  1399    1
 1869   1399  1409  1400    1
 1870   1413  1343  1334    1
 1871   1413  1334  1404    1
 1872   1414  1413  1404    1
 1873   1414  1404  1405    1
 1874   1415  1414  1405    1
 1875   1415  1405  1406    1
 1876   1276  1344  1337    1
 1877   1337  1344  1407    1
 1878   1344  1346  1407    1
 1879   1407  1346  1408    1
 1880   1346  1348  1408    1
 1881   1408  1348  1409    1
 1882   1356  1288  1343    1
 1883   1356  1343  1413    1
 1884   1358  1356  1413    1
 1885   1358  1413  1414    1
 1886   1360  1358  1414    1
 1887   1360  1414  1415    1
 1888   1349  1417  1348    1
 1889   1348  1417  1416    1
 1890   1417  1419  1416    1
 1891   1416  1419  1418    1
 1892   1419  1421  1418    1
 1893   1418  1421  1420    1
 1894   1429  1361  1360    1
 1895   1429  1360  1428    1
 1896   1431  1429  1428    1
 1897   1431  1428  1430    1
 1898   1433  1431  1430    1
 1899   1433  1430  1432    1
 1900   1364  1434  1349    1
 1901   1349  1434  1417    1
 1902   1434  1435  1417    1
 1903   1417  1435  1419    1
 1904   1435  1436  1419    1
 1905   1419  1436  1421    1
 1906   1440  1370  1361    1
 1907   1440  1361  1429    1
 1908   1441  1440  1429    1
 1909   1441  1429  1431    1
 1910   1442  1441  1431    1
 1911   1442  1431  1433    1
 1912   1373  1443  1364    1
 1913   1364  1443  1434    1
 1914   1443  1444  1434    1
 1915   1434  1444  1435    1
 1916   1444  1445  1435    1
 1917   1435  1445  1436    1
 1918   1449  1379  1370    1
 1919   1449  1370  1440    1
 1920   1450  1449  1440    1
 1921   1450  1440  1441    1
 1922   1451  1450  1441    1
 1923   1451  1441  1442    1
 1924   1382  1452  1373    1
 1925   1373  1452  1443    1
 1926   1452  1453  1443    1
 1927   1443  1453  1444    1
 1928   1453  1454  1444    1
 1929   1444  1454  1445    1
 1930   1458  1388  1379    1
 1931   1458  1379  1449    1
 1932   1459  1458  1449    1
 1933   1459  1449  1450    1
 1934   1460  1459  1450    1
 1935   1460  1450  1451    1
 1936   1391  1461  1382    1
 1937   1382  1461  1452    1
 1938   1461  1462  1452    1
 1939   1452  1462  1453    1
 1940   1462  1463  1453    1
 1941   1453  1463  1454    1
 1942   1467  1397  1388    1
 1943   1467  1388  1458    1
 1944   1468  1467  1458    1
 1945   1468  1458  1459    1
 1946   1469  1468  1459    1
 1947   1469  1459  1460    1
 1948   1400  1470  1391    1
 1949   1391  1470  1461    1
 1950   1470  1471  1461    1
 1951   1461  1471  1462    1
 1952   1471  1472  1462    1
 1953   1462  1472  1463    1
 1954   1476  1406  1397    1
 1955   1476  1397  1467    1
 1956   1477  1476  1467    1
 1957   1477  1467  1468    1
 1958   1478  1477  1468    1
 1959   1478  1468  1469    1
 1960   1409  1479  1400    1
 1961   1400  1479  1470    1
 1962   1479  1480  1470    1
 1963   1470  1480  1471    1
 1964   1480  1481  1471    1
 1965   1471  1481  1472    1
 1966   1485  1415  1406    1
 1967   1485  1406  1476    1
 1968   1486  1485  1476    1
 1969   1486  1476  1477    1
 1970   1487  1486  1477    1
 1971   1487  1477  1478    1
 1972   1348  1416  1409    1
 1973   1409  1416  1479    1
 1974   1416  1418  1479    1
 1975   1479  1418  1480    1
 1976   1418  1420  1480    1
 1977   1480  1420  1481    1
 1978   1428  1360  1415    1
 1979   1428  1415  1485    1
 1980   1430  1428  1485    1
 1981   1430  1485  1486    1
 1982   1432  1430  1486    1
 1983   1432  1486  1487    1
 1984    677  1489   676    1
 1985    676  1489  1488    1
 1986   1489  1491  1488    1
 1987   1488  1491  1490    1
 1988   1491  1493  1490    1
 1989   1490  1493  1492    1
 1990   1501   689   688    1
 1991   1501   688  1500    1
 1992   1503  1501  1500    1
 1993   1503  1500  1502    1
 1994   1505  1503  1502    1
 1995   1505  1502  1504    1
 1996    692  1506   677    1
 1997    677  1506  1489    1
 1998   1506  1507  1489    1
 1999   1489  1507  1491    1
 2000   1507  1508  1491    1
 2001   1491  1508  1493    1
 2002   1512   698   689    1
 2003   1512   689  1501    1
 2004   1513  1512  1501    1
 2005   1513  1501  1503    1
 2006   1514  1513  1503    1
 2007   1514  1503  1505    1
 2008    701  1515   692    1
 2009    692  1515  1506    1
 2010   1515  1516  1506    1
 2011   1506  1516  1507    1
 2012   1516  1517  1507    1
 2013   1507  1517  1508    1
 2014   1521   707   698    1
 2015   1521   698  1512    1
 2016   1522  1521  1512    1
 2017   1522  1512  1513    1
 2018   1523  1522  1513    1
 2019   1523  1513  1514    1
 2020    710  1524   701    1
 2021    701  1524  1515    1
 2022   1524  1525  1515    1
 2023   1515  1525  1516    1
 2024   1525  1526  1516    1
 2025   1516  1526  1517    1
 2026   1530   716   707    1
 2027   1530   707  1521    1
 2028   1531  1530  1521    1
 2029   1531  1521  1522    1
 2030   1532  1531  1522    1
 2031   1532  1522  1523    1
 2032    719  1533   710    1
 2033    710  1533  1524    1
 2034   1533  1534  1524    1
 2035   1524  1534  1525    1
 2036   1534  1535  1525    1
 2037   1525  1535  1526    1
 2038   1539   725   716    1
 2039   1539   716  1530    1
 2040   1540  1539  1530    1
 2041   1540  1530  1531    1
 2042   1541  1540  1531    1
 2043   1541  1531  1532    1
 2044    728  1542   719    1
 2045    719  1542  1533    1
 2046   1542  1543  1533    1
 2047   1533  1543  1534    1
 2048   1543  1544  1534    1
 2049   1534  1544  1535    1
 2050   1548   734   725    1
 2051   1548   725  1539    1
 2052   1549  1548  1539    1
 2053   1549  1539  1540    1
 2054   1550  1549  1540    1
 2055   1550  1540  1541    1
 2056    737  1551   728    1
 2057    728  1551  1542    1
 2058   1551  1552  1542    1
 2059   1542  1552  1543    1
 2060   1552  1553  1543    1
 2061   1543  1553  1544    1
 2062   1557   743   734    1
 2063   1557   734  1548    1
 2064   1558  1557  1548    1
 2065   1558  1548  1549    1
 2066   1559  1558  1549    1
 2067   1559  1549  1550    1
 2068    676  1488   737    1
 2069    737  1488  1551    1
 2070   1488  1490  1551    1
 2071   1551  1490  1552    1
 2072   1490  1492  1552    1
 2073   1552  1492  1553    1
 2074   1500   688   743    1
 2075   1500   743  1557    1
 2076   1502  1500  1557    1
 2077   1502  1557  1558    1
 2078   1504  1502  1558    1
 2079   1504  1558  1559    1
 2080   1421  1561  1420    1
 2081   1420  1561  1560    1
 2082   1561  1563  1560    1
 2083   1560  1563  1562    1
 2084   1563  1565  1562    1
 2085   1562  1565  1564    1
 2086   1573  1433  1432    1
 2087   1573  1432  1572    1
 2088   1575  1573  1572    1
 2089   1575  1572  1574    1
 2090   1559  1575  1574    1
 2091   1559  1574  1504    1
 2092   1436  1576  1421    1
 2093   1421  1576  1561    1
 2094   1576  1577  1561    1
 2095   1561  1577  1563    1
 2096   1577  1578  1563    1
 2097   1563  1578  1565    1
 2098   1582  1442  1433    1
 2099   1582  1433  1573    1
 2100   1583  1582  1573    1
 2101   1583  1573  1575    1
 2102   1550  1583  1575    1
 2103   1550  1575  1559    1
 2104   1445  1584  1436    1
 2105   1436  1584  1576    1
 2106   1584  1585  1576    1
 2107   1576  1585  1577    1
 2108   1585  1586  1577    1
 2109   1577  1586  1578    1
 2110   1590  1451  1442    1
 2111   1590  1442  1582    1
 2112   1591  1590  1582    1
 2113   1591  1582  1583    1
 2114   1541  1591  1583    1
 2115   1541  1583  1550    1
 2116   1454  1592  1445    1
 2117   1445  1592  1584    1
 2118   1592  1593  1584    1
 2119   1584  1593  1585    1
 2120   1593  1594  1585    1
 2121   1585  1594  1586    1
 2122   1598  1460  1451    1
 2123   1598  1451  1590    1
 2124   1599  1598  1590    1
 2125   1599  1590  1591    1
 2126   1532  1599  1591    1
 2127   1532  1591  1541    1
 2128   1463  1600  1454    1
 2129   1454  1600  1592    1
 2130   1600  1601  1592    1
 2131   1592  1601  1593    1
 2132   1601  1602  1593    1
 2133   1593  1602  1594    1
 2134   1606  1469  1460    1
 2135   1606  1460  1598    1
 2136   1607  1606  1598    1
 2137   1607  1598  1599    1
 2138   1608  1607  1599    1
 2139   1608  1599  1532    1
 2140   1472  1609  1463    1
 2141   1463  1609  1600    1
 2142   1609  1610  1600    1
 2143   1600  1610  1601    1
 2144   1610  1611  1601    1
 2145   1601  1611  1602    1
 2146   1615  1478  1469    1
 2147   1615  1469  1606    1
 2148   1616  1615  1606    1
 2149   1616  1606  1607    1
 2150   1617  1616  1607    1
 2151   1617  1607  1608    1
 2152   1481  1618  1472    1
 2153   1472  1618  1609    1
 2154   1618  1619  1609    1
 2155   1609  1619  1610    1
 2156   1619  1620  1610    1
 2157   1610  1620  1611    1
 2158   1624  1487  1478    1
 2159   1624  1478  1615    1
 2160   1625  1624  1615    1
 2161   1625  1615  1616    1
 2162   1626  1625  1616    1
 2163   1626  1616  1617    1
 2164   1420  1560  1481    1
 2165   1481  1560  1618    1
 2166   1560  1562  1618    1
 2167   1618  1562  1619    1
 2168   1562  1564  1619    1
 2169   1619  1564  1620    1
 2170   1572  1432  1487    1
 2171   1572  1487  1624    1
 2172   1574  1572  1624    1
 2173   1574  1624  1625    1
 2174   1504  1574  1625    1
 2175   1504  1625  1626    1
 2176   1493  1628  1492    1
 2177   1492  1628  1627    1
 2178   1628  1630  1627    1
 2179   1627  1630  1629    1
 2180   1630  1632  1629    1
 2181   1629  1632  1631    1
 2182   1640  1505  1504    1
 2183   1640  1504  1639    1
 2184   1642  1640  1639    1
 2185   1642  1639  1641    1
 2186   1644  1642  1641    1
 2187   1644  1641  1643    1
 2188   1508  1645  1493    1
 2189   1493  1645  1628    1
 2190   1645  1646  1628    1
 2191   1628  1646  1630    1
 2192   1646  1647  1630    1
 2193   1630  1647  1632    1
 2194   1651  1514  1505    1
 2195   1651  1505  1640    1
 2196   1652  1651  1640    1
 2197   1652  1640  1642    1
 2198   1653  1652  1642    1
 2199   1653  1642  1644    1
 2200   1517  1654  1508    1
 2201   1508  1654  1645    1
 2202   1654  1655  1645    1
 2203   1645  1655  1646    1
 2204   1655  1656  1646    1
 2205   1646  1656  1647    1
 2206   1660  1523  1514    1
 2207   1660  1514  1651    1
 2208   1661  1660  1651    1
 2209   1661  1651  1652    1
 2210   1662  1661  1652    1
 2211   1662  1652  1653    1
 2212   1526  1663  1517    1
 2213   1517  1663  1654    1
 2214   1663  1664  1654    1
 2215   1654  1664  1655    1
 2216   1664  1665  1655    1
 2217   1655  1665  1656    1
 2218   1669  1532  1523    1
 2219   1669  1523  1660    1
 2220   1670  1669  1660    1
 2221   1670  1660  1661    1
 2222   1671  1670  1661    1
 2223   1671  1661  1662    1
 2224   1535  1672  1526    1
 2225   1526  1672  1663    1
 2226   1672  1673  1663    1
 2227   1663  1673  1664    1
 2228   1673  1674  1664    1
 2229   1664  1674  1665    1
 2230   1678  1541  1532    1
 2231   1678  1532  1669    1
 2232   1679  1678  1669    1
 2233   1679  1669  1670    1
 2234   1680  1679  1670    1
 2235   1680  1670  1671    1
 2236   1544  1681  1535    1
 2237   1535  1681  1672    1
 2238   1681  1682  1672    1
 2239   1672  1682  1673    1
 2240   1682  1683  1673    1
 2241   1673  1683  1674    1
 2242   1687  1550  1541    1
 2243   1687  1541  1678    1
 2244   1688  1687  1678    1
 2245   1688  1678  1679    1
 2246   1689  1688  1679    1
 2247   1689  1679  1680    1
 2248   1553  1690  1544    1
 2249   1544  1690  1681    1
 2250   1690  1691  1681    1
 2251   1681  1691  1682    1
 2252   1691  1692  1682    1
 2253   1682  1692  1683    1
 2254   1696  1559  1550    1
 2255   1696  1550  1687    1
 2256   1697  1696  1687    1
 2257   1697  1687  1688    1
 2258   1698  1697  1688    1
 2259   1698  1688  1689    1
 2260   1492  1627  1553    1
 2261   1553  1627  1690    1
 2262   1627  1629  1690    1
 2263   1690  1629  1691    1
 2264   1629  1631  1691    1
 2265   1691  1631  1692    1
 2266   1639  1504  1559    1
 2267   1639  1559  1696    1
 2268   1641  1639  1696    1
 2269   1641  1696  1697    1
 2270   1643  1641  1697    1
 2271   1643  1697  1698    1
 2272   1565  1700  1564    1
 2273   1564  1700  1699    1
 2274   1700  1702  1699    1
 2275   1699  1702  1701    1
 2276   1702  1704  1701    1
 2277   1701  1704  1703    1
 2278   1696  1559  1504    1
 2279   1696  1504  1639    1
 2280   1697  1696  1639    1
 2281   1697  1639  1641    1
 2282   1698  1697  1641    1
 2283   1698  1641  1643    1
 2284   1578  1711  1565    1
 2285   1565  1711  1700    1
 2286   1711  1712  1700    1
 2287   1700  1712  1702    1
 2288   1712  1713  1702    1
 2289   1702  1713  1704    1
 2290   1687  1550  1559    1
 2291   1687  1559  1696    1
 2292   1688  1687  1696    1
 2293   1688  1696  1697    1
 2294   1689  1688  1697    1
 2295   1689  1697  1698    1
 2296   1586  1717  1578    1
 2297   1578  1717  1711    1
 2298   1717  1718  1711    1
 2299   1711  1718  1712    1
 2300   1718  1719  1712    1
 2301   1712  1719  1713    1
 2302   1678  1541  1550    1
 2303   1678  1550  1687    1
 2304   1679  1678  1687    1
 2305   1679  1687  1688    1
 2306   1680  1679  1688    1
 2307   1680  1688  1689    1
 2308   1594  1723  1586    1
 2309   1586  1723  1717    1
 2310   1723  1724  1717    1
 2311   1717  1724  1718    1
 2312   1724  1725  1718    1
 2313   1718  1725  1719    1
 2314   1669  1532  1541    1
 2315   1669  1541  1678    1
 2316   1670  1669  1678    1
 2317   1670  1678  1679    1
 2318   1671  1670  1679    1
 2319   1671  1679  1680    1
 2320   1602  1729  1594    1
 2321   1594  1729  1723    1
 2322   1729  1730  1723    1
 2323   1723  1730  1724    1
 2324   1730  1731  1724    1
 2325   1724  1731  1725    1
 2326   1735  1608  1532    1
 2327   1735  1532  1669    1
 2328   1736  1735  1669    1
 2329   1736  1669  1670    1
 2330   1737  1736  1670    1
 2331   1737  1670  1671    1
 2332   1611  1738  1602    1
 2333   1602  1738  1729    1
 2334   1738  1739  1729    1
 2335   1729  1739  1730    1
 2336   1739  1740  1730    1
 2337   1730  1740  1731    1
 2338   1744  1617  1608    1
 2339   1744  1608  1735    1
 2340   1745  1744  1735    1
 2341   1745  1735  1736    1
 2342   1746  1745  1736    1
 2343   1746  1736  1737    1
 2344   1620  1747  1611    1
 2345   1611  1747  1738    1
 2346   1747  1748  1738    1
 2347   1738  1748  1739    1
 2348   1748  1749  1739    1
 2349   1739  1749  1740    1
 2350   1753  1626  1617    1
 2351   1753  1617  1744    1
 2352   1754  1753  1744    1
 2353   1754  1744  1745    1
 2354   1755  1754  1745    1
 2355   1755  1745  1746    1
 2356   1564  1699  1620    1
 2357   1620  1699  1747    1
 2358   1699  1701  1747    1
 2359   1747  1701  1748    1
 2360   1701  1703  1748    1
 2361   1748  1703  1749    1
 2362   1639  1504  1626    1
 2363   1639  1626  1753    1
 2364   1641  1639  1753    1
 2365   1641  1753  1754    1
 2366   1643  1641  1754    1
 2367   1643  1754  1755    1
 2368   1632  1757  1631    1
 2369   1631  1757  1756    1
 2370   1757  1759  1756    1
 2371   1756  1759  1758    1
 2372   1759  1761  1758    1
 2373   1758  1761  1760    1
 2374   1760  1761  1766    1
 2375   1767  1766  1761    1
 2376   1769  1644  1643    1
 2377   1769  1643  1768    1
 2378   1771  1769  1768    1
 2379   1771  1768  1770    1
 2380   1766  1767  1772    1
 2381   1773  1771  1770    1
 2382   1773  1772  1767    1
 2383   1773  1770  1772    1
 2384   1647  1774  1632    1
 2385   1632  1774  1757    1
 2386   1774  1775  1757    1
 2387   1757  1775  1759    1
 2388   1775  1776  1759    1
 2389   1759  1776  1761    1
 2390   1761  1776  1767    1
 2391   1779  1767  1776    1
 2392   1780  1653  1644    1
 2393   1780  1644  1769    1
 2394   1781  1780  1769    1
 2395   1781  1769  1771    1
 2396   1767  1779  1773    1
 2397   1782  1781  1771    1
 2398   1782  1773  1779    1
 2399   1782  1771  1773    1
 2400   1656  1783  1647    1
 2401   1647  1783  1774    1
 2402   1783  1784  1774    1
 2403   1774  1784  1775    1
 2404   1784  1785  1775    1
 2405   1775  1785  1776    1
 2406   1776  1785  1779    1
 2407   1788  1779  1785    1
 2408   1789  1662  1653    1
 2409   1789  1653  1780    1
 2410   1790  1789  1780    1
 2411   1790  1780  1781    1
 2412   1779  1788  1782    1
 2413   1791  1790  1781    1
 2414   1791  1782  1788    1
 2415   1791  1781  1782    1
 2416   1665  1792  1656    1
 2417   1656  1792  1783    1
 2418   1792  1793  1783    1
 2419   1783  1793  1784    1
 2420   1793  1794  1784    1
 2421   1784  1794  1785    1
 2422   1785  1794  1788    1
 2423   1797  1788  1794    1
 2424   1798  1671  1662    1
 2425   1798  1662  1789    1
 2426   1799  1798  1789    1
 2427   1799  1789  1790    1
 2428   1788  1797  1791    1
 2429   1800  1799  1790    1
 2430   1800  1791  1797    1
 2431   1800  1790  1791    1
 2432   1674  1801  1665    1
 2433   1665  1801  1792    1
 2434   1801  1802  1792    1
 2435   1792  1802  1793    1
 2436   1802  1803  1793    1
 2437   1793  1803  1794    1
 2438   1794  1803  1797    1
 2439   1806  1797  1803    1
 2440   1807  1680  1671    1
 2441   1807  1671  1798    1
 2442   1808  1807  1798    1
 2443   1808  1798  1799    1
 2444   1797  1806  1800    1
 2445   1809  1808  1799    1
 2446   1809  1800  1806    1
 2447   1809  1799  1800    1
 2448   1683  1810  1674    1
 2449   1674  1810  1801    1
 2450   1810  1811  1801    1
 2451   1801  1811  1802    1
 2452   1811  1812  1802    1
 2453   1802  1812  1803    1
 2454   1803  1812  1806    1
 2455   1815  1806  1812    1
 2456   1816  1689  1680    1
 2457   1816  1680  1807    1
 2458   1817  1816  1807    1
 2459   1817  1807  1808    1
 2460   1806  1815  1809    1
 2461   1818  1817  1808    1
 2462   1818  1809  1815    1
 2463   1818  1808  1809    1
 2464   1692  1819  1683    1
 2465   1683  1819  1810    1
 2466   1819  1820  1810    1
 2467   1810  1820  1811    1
 2468   1820  1821  1811    1
 2469   1811  1821  1812    1
 2470   1812  1821  1815    1
 2471   1824  1815  1821    1
 2472   1825  1698  1689    1
 2473   1825  1689  1816    1
 2474   1826  1825  1816    1
 2475   1826  1816  1817    1
 2476   1815  1824  1818    1
 2477   1827  1826  1817    1
 2478   1827  1818  1824    1
 2479   1827  1817  1818    1
 2480   1631  1756  1692    1
 2481   1692  1756  1819    1
 2482   1756  1758  1819    1
 2483   1819  1758  1820    1
 2484   1758  1760  1820    1
 2485   1820  1760  1821    1
 2486   1821  1760  1824    1
 2487   1766  1824  1760    1
 2488   1768  1643  1698    1
 2489   1768  1698  1825    1
 2490   1770  1768  1825    1
 2491   1770  1825  1826    1
 2492   1824  1766  1827    1
 2493   1772  1770  1826    1
 2494   1772  1827  1766    1
 2495   1772  1826  1827    1
 2496   1704  1829  1703    1
 2497   1703  1829  1828    1
 2498   1829  1831  1828    1
 2499   1828  1831  1830    1
 2500   1831  1833  1830    1
 2501   1830  1833  1832    1
 2502   1832  1833  1838    1
 2503   1839  1838  1833    1
 2504   1825  1698  1643    1
 2505   1825  1643  1768    1
 2506   1826  1825  1768    1
 2507   1826  1768  1770    1
 2508   1838  1839  1772    1
 2509   1827  1826  1770    1
 2510   1827  1772  1839    1
 2511   1827  1770  1772    1
 2512   1713  1840  1704    1
 2513   1704  1840  1829    1
 2514   1840  1841  1829    1
 2515   1829  1841  1831    1
 2516   1841  1842  1831    1
 2517   1831  1842  1833    1
 2518   1833  1842  1839    1
 2519   1845  1839  1842    1
 2520   1816  1689  1698    1
 2521   1816  1698  1825    1
 2522   1817  1816  1825    1
 2523   1817  1825  1826    1
 2524   1839  1845  1827    1
 2525   1818  1817  1826    1
 2526   1818  1827  1845    1
 2527   1818  1826  1827    1
 2528   1719  1846  1713    1
 2529   1713  1846  1840    1
 2530   1846  1847  1840    1
 2531   1840  1847  1841    1
 2532   1847  1848  1841    1
 2533   1841  1848  1842    1
 2534   1842  1848  1845    1
 2535   1851  1845  1848    1
 2536   1807  1680  1689    1
 2537   1807  1689  1816    1
 2538   1808  1807  1816    1
 2539   1808  1816  1817    1
 2540   1845  1851  1818    1
 2541   1809  1808  1817    1
 2542   1809  1818  1851    1
 2543   1809  1817  1818    1
 2544   1725  1852  1719    1
 2545   1719  1852  1846    1
 2546   1852  1853  1846    1
 2547   1846  1853  1847    1
 2548   1853  1854  1847    1
 2549   1847  1854  1848    1
 2550   1848  1854  1851    1
 2551   1857  1851  1854    1
 2552   1798  1671  1680    1
 2553   1798  1680  1807    1
 2554   1799  1798  1807    1
 2555   1799  1807  1808    1
 2556   1851  1857  1809    1
 2557   1800  1799  1808    1
 2558   1800  1809  1857    1
 2559   1800  1808  1809    1
 2560   1731  1858  1725    1
 2561   1725  1858  1852    1
 2562   1858  1859  1852    1
 2563   1852  1859  1853    1
 2564   1859  1860  1853    1
 2565   1853  1860  1854    1
 2566   1854  1860  1857    1
 2567   1863  1857  1860    1
 2568   1864  1737  1671    1
 2569   1864  1671  1798    1
 2570   1865  1864  1798    1
 2571   1865  1798  1799    1
 2572   1857  1863  1800    1
 2573   1866  1865  1799    1
 2574   1866  1800  1863    1
 2575   1866  1799  1800    1
 2576   1740  1867  1731    1
 2577   1731  1867  1858    1
 2578   1867  1868  1858    1
 2579   1858  1868  1859    1
 2580   1868  1869  1859    1
 2581   1859  1869  1860    1
 2582   1860  1869  1863    1
 2583   1872  1863  1869    1
 2584   1873  1746  1737    1
 2585   1873  1737  1864    1
 2586   1874  1873  1864    1
 2587   1874  1864  1865    1
 2588   1863  1872  1866    1
 2589   1875  1874  1865    1
 2590   1875  1866  1872    1
 2591   1875  1865  1866    1
 2592   1749  1876  1740    1
 2593   1740  1876  1867    1
 2594   1876  1877  1867    1
 2595   1867  1877  1868    1
 2596   1877  1878  1868    1
 2597   1868  1878  1869    1
 2598   1869  1878  1872    1
 2599   1881  1872  1878    1
 2600   1882  1755  1746    1
 2601   1882  1746  1873    1
 2602   1883  1882  1873    1
 2603   1883  1873  1874    1
 2604   1872  1881  1875    1
 2605   1884  1883  1874    1
 2606   1884  1875  1881    1
 2607   1884  1874  1875    1
 2608   1703  1828  1749    1
 2609   1749  1828  1876    1
 2610   1828  1830  1876    1
 2611   1876  1830  1877    1
 2612   1830  1832  1877    1
 2613   1877  1832  1878    1
 2614   1878  1832  1881    1
 2615   1838  1881  1832    1
 2616   1768  1643  1755    1
 2617   1768  1755  1882    1
 2618   1770  1768  1882    1
 2619   1770  1882  1883    1
 2620   1881  1838  1884    1
 2621   1772  1770  1883    1
 2622   1772  1884  1838    1
 2623   1772  1883  1884    1
# Generated by tetgen rat_uterus_test_mesh_mid_res.ele 
