657  3  0  0
   0    25.123550550356381  1.1327639966018614  43.604164093320392
   1    25.819592050118807  0.86377747285684636  43.570635322712903
   2    26.070654422665047  0.12420894256297034  43.519662645582123
   3    25.692951736164087  -0.735444034605787  43.556942652670315
   4    24.874962996464717  -1.1327893804809854  43.603675543136312
   5    24.17964278033331  -0.86346020017840519  43.566805332270441
   6    23.929502257535813  -0.12359809526812503  43.509529715891183
   7    24.307384064482502  0.73608346463983187  43.552432648877833
   8    25.10677527517819  1.7313819983009306  43.567082046660197
   9    26.249277914464891  1.2822140898420522  43.553876577320295
  10    26.670316150679852  0.10681900405904909  43.529831322640952
  11    26.122328219538026  -1.1544160443100275  43.547028490586854
  12    24.891885602042844  -1.7314181557601704  43.566835146447488
  13    23.749924639321609  -1.2816227577540684  43.544841846043802
  14    23.329786149848943  -0.10590110532548358  43.514764859430755
  15    23.878217191337399  1.1551271213950098  43.537660759083266
  16    25.09  2.3300000000000001  43.530000000000001
  17    26.678963778810978  1.7006507068272581  43.537117831927695
  18    27.269977878694657  0.089429065555127848  43.539999999699788
  19    26.551704702911969  -1.5733880540142684  43.537114328503399
  20    24.908808207620972  -2.3300469310393557  43.529994749758664
  21    23.320206498309908  -1.6997853153297313  43.522878359817163
  22    22.730070042162072  -0.088204115382842119  43.520000002970313
  23    23.449050318192295  1.5741707781501877  43.522888869288685
  24    24.876648652230458  0.88764560928934855  38.778778503989606
  25    25.616158320362022  0.66375993316927695  38.680090330181493
  26    25.893734750789292  0.090275873860021796  38.612480663245769
  27    25.523341114553094  -0.57380298210148695  38.671369837474842
  28    24.699319567285404  -0.88821282835888926  38.788136327485589
  29    23.955942958536241  -0.66459336869953511  38.841406315314273
  30    23.671952225357  -0.09004134428722943  38.833864247308313
  31    24.047402333627137  0.57458299266822377  38.824941682568557
  32    24.86068536917081  1.4870181697028075  38.756469146818858
  33    26.013891835674666  1.1100992151676552  38.629205203256028
  34    26.491343862174933  0.078805650721454401  38.560214192444533
  35    25.923842935556642  -1.018247694775225  38.62590349003851
  36    24.710829244224474  -1.4875851217337424  38.763228873353796
  37    23.555265403828194  -1.1106031296804406  38.864488565268189
  38    23.075091095525298  -0.078156325238067897  38.893993591377807
  39    23.645567585768525  1.0191888497797943  38.854172954102566
  40    24.844722086111158  2.0863907301162667  38.734159789648118
  41    26.411625350987308  1.5564384971660334  38.57832007633057
  42    27.088952973560573  0.067335427582887006  38.507947721643312
  43    26.32434475656019  -1.4626924074489633  38.580437142602179
  44    24.722338921163544  -2.0869574151085954  38.738321419222011
  45    23.154587849120144  -1.5566128906613459  38.887570815222098
  46    22.4782299656936  -0.066271306188906351  38.954122935447295
  47    23.243732837909921  1.4637947068913648  38.883404225636575
  48    24.179686966304462  0.7466588630958384  33.994035919650578
  49    24.936996422382204  0.54502591904951181  33.817976754034035
  50    25.226403376674018  0.062046960630426473  33.735611179091151
  51    24.873367635006339  -0.48440437947187176  33.812663569480975
  52    24.062788054038805  -0.74704673607942729  34.006314407103567
  53    23.301985169799366  -0.54594959315007907  34.163098632020223
  54    23.005912077808421  -0.062084746121365914  34.206256055618248
  55    23.36295890612174  0.48524643885567098  34.147562533226065
  56    24.167276186671145  1.3464605800794953  33.984877707360489
  57    25.312157817951295  1.0067460794402026  33.740076684949024
  58    25.816320901877912  0.055304495636385523  33.626286650173263
  59    25.252648951975136  -0.94336325011033351  33.738485151725669
  60    24.070857332897923  -1.3468511426295369  33.993292862580567
  61    22.923384294809868  -1.0073262960113571  34.22468528247343
  62    22.416135592414417  -0.054879552257062855  34.316309599212588
  63    22.982459358481034  0.94433507798935579  34.21432865984427
  64    24.154865407037832  1.9462622970631522  33.975719495070393
  65    25.687319213520379  1.4684662398308934  33.662176615864006
  66    26.406238427081806  0.048562030642344559  33.516962121255382
  67    25.631930268943936  -1.402322120748795  33.664306733970349
  68    24.078926611757037  -1.9466555491796464  33.980271318057561
  69    22.544783419820376  -1.468702998872635  34.286271932926638
  70    21.826359107020412  -0.047674358392759797  34.426363142806935
  71    22.601959810840327  1.4034237171230408  34.281094786462475
  72    23.080122894524447  0.71062558259123798  29.276015753640774
  73    23.820429329220211  0.50854121377290062  29.020700214478186
  74    24.112525005427436  0.039943937714915362  28.9286584587542
  75    23.78020838843339  -0.46989386440037806  29.017974149476913
  76    23.009134454289548  -0.71055410950896225  29.287723725698633
  77    22.27376586420738  -0.50809290633617521  29.56004479131936
  78    21.984597854134439  -0.040126516448834887  29.662628900492319
  79    22.311184534603221  0.4697414067916017  29.546761885450696
  80    23.074523643089421  1.3105678026232415  29.282178626869918
  81    24.187578042461951  0.97253197954768933  28.921129176316185
  82    24.690788389962041  0.036250718791513731  28.768665276897686
  83    24.151046311195444  -0.93144386365894438  28.920758753443465
  84    23.01718140949319  -1.3104950946338725  29.290185611013378
  85    21.905577178171541  -0.97191699227618811  29.656503636310969
  86    21.403470280731252  -0.035980798867926059  29.811872179926493
  87    21.941509150469226  0.93152477073798423  29.647241909076016
  88    23.068924391654395  1.9105100226552449  29.288341500099058
  89    24.554726755703694  1.436522745322478  28.821558138154188
  90    25.269051774496639  0.032557499868112107  28.608672095041165
  91    24.521884233957504  -1.3929938629175105  28.823543357410017
  92    23.025228364696829  -1.9104360797587825  29.292647496328122
  93    21.537388492135705  -1.435741078216201  29.752962481302571
  94    20.822342707328072  -0.031835081287017224  29.961115459360663
  95    21.571833766335228  1.3933081346843668  29.747721932701335
  96    21.634529156322312  0.80164950310936511  24.661350415605327
  97    22.312480233428825  0.57035392222092374  24.338916265753241
  98    22.593248306185316  0.023072553758942179  24.234996478761808
  99    22.288610607233295  -0.54823305020723978  24.339382878303471
 100    21.593164551428178  -0.80134847862675107  24.672951929813866
 101    20.931152637737284  -0.56765372614818832  25.034715925587687
 102    20.665421724585812  -0.02316959187341398  25.182053731075225
 103    20.95275644074329  0.54618382405630395  25.023558190537283
 104    21.636936132019443  1.4014324623743699  24.677306863935293
 105    22.687840059882099  1.0198970210023559  24.208470863293222
 106    23.155311706961001  0.020443602942254807  24.025049289864043
 107    22.665545124185911  -0.99692411640871581  24.210554709641958
 108    21.602545691512326  -1.4011235030490123  24.686439490378973
 109    20.558268518983191  -1.0173579979017708  25.171549773547774
 110    20.097253417369238  -0.020142524213136424  25.374863511781587
 111    20.580112422784602  0.99537840994067495  25.162700778883817
 112    21.639343107716574  2.0012154216393747  24.693263312265266
 113    23.063199886335372  1.4694401197837883  24.078025460833206
 114    23.717375107736689  0.017814652125567432  23.815102100966282
 115    23.042479641138527  -1.445615182610192  24.081726540980441
 116    21.61192683159647  -2.0008985274712736  24.69992705094408
 117    20.185384400229097  -1.4670622696553537  25.308383621507854
 118    19.529085110152668  -0.017115456552858861  25.567673292487946
 119    20.207468404825914  1.4445729958250459  25.301843367230351
 120    19.787429758280464  0.92804067007437352  20.231070533182198
 121    20.397636261428246  0.66217442545125793  19.846283578923657
 122    20.655911082280646  0.01391027793033656  19.71198780019375
 123    20.383564715179162  -0.64849101154102706  19.851030484927264
 124    19.762197880436666  -0.92781612871884156  20.244163041325542
 125    19.165088234044031  -0.65911953502124432  20.652424145802009
 126    18.920652650386767  -0.01361992961949585  20.816025414429895
 127    19.178295239335554  0.64645445895126719  20.643006418505095
 128    19.791918283521525  1.5278882436514836  20.243827555358784
 129    20.774375405031414  1.0949533446309452  19.670869711767107
 130    21.195294597181714  0.011770868004723659  19.44919349512201
 131    20.7604630098947  -1.0814068508123211  19.676297684490283
 132    19.770017034084276  -1.5276605854799683  20.255365207597457
 133    18.792566770974403  -1.0920027515179516  20.836380337401877
 134    18.377602033460011  -0.011135933789951509  21.07115255375496
 135    18.806576045975937  1.0798060995221652  20.827481882734311
 136    19.796406808762587  2.1277358172285936  20.256584577535371
 137    21.151114548634578  1.5277322638106323  19.495455844610557
 138    21.734678112082786  0.0096314580791107603  19.186399190050274
 139    21.137361304610238  -1.5143226900836151  19.501564884053298
 140    19.777836187731886  -2.1275050422410953  20.266567373869368
 141    18.420045307904772  -1.5248859680146587  21.020336529001746
 142    17.834551416533259  -0.0086519379604071654  21.326279693080025
 143    18.434856852616317  1.5131577400930631  21.011957346963531
 144    17.480608472713101  1.0053195216284823  16.023079845576017
 145    18.053018211467432  0.72239760547629572  15.554401041354032
 146    18.295279145492515  0.018825297008617545  15.376842986292978
 147    18.044687043140865  -0.70219796891119313  15.567222817187357
 148    17.459633509700243  -1.0049880182949866  16.042791254217111
 149    16.884934956045317  -0.71952159306404828  16.503730557631705
 150    16.645401897176004  -0.0176354457614003  16.682964913888473
 151    16.896851881308621  0.70151853785852569  16.49521879845479
 152    17.481852836171075  1.6052560715824866  16.031716256223437
 153    18.414777249143768  1.1511054983352604  15.341469265284987
 154    18.809809232277388  0.01776631035901419  15.06820457594775
 155    18.407064684356282  -1.1291600376614574  15.351849102459571
 156    17.466804285063375  -1.604924677507894  16.047749571789367
 157    16.531674499689515  -1.1481711654786122  16.730593057935533
 158    16.137773306167546  -0.016276753089345845  17.00282639569738
 159    16.541415851082306  1.1287266834473466  16.721401089449284
 160    17.483097199629057  2.205192621536491  16.040352666870859
 161    18.7765362868201  1.5798133911942254  15.128537489215939
 162    19.324339319062258  0.016707323709410835  14.759566165602523
 163    18.769442325571696  -1.5561221064117214  15.136475387731783
 164    17.473975060426508  -2.2048613367208012  16.052707889361624
 165    16.178414043333717  -1.576820737893176  16.95745555823936
 166    15.630144715159087  -0.014918060417291394  17.322687877506286
 167    16.185979820855991  1.5559348290361672  16.947583380443781
 168    14.75837313252751  1.0637564687108312  12.059188710993208
 169    15.325068887300136  0.77378760193614338  11.503670499532223
 170    15.564388393536063  0.037093898722579004  11.287232391996792
 171    15.317095926255631  -0.73231358724910056  11.523685779192617
 172    14.733075663249879  -1.0630078516082018  12.092993319495578
 173    14.15952637763  -0.77100086039844895  12.635970806182314
 174    13.918565069271843  -0.035661843159688879  12.847846999275173
 175    14.172042516004934  0.73241357105540439  12.62117458386879
 176    14.755889517320018  1.6636615161400106  12.069569738133866
 177    15.659153379577154  1.2068730013620483  11.257044084028713
 178    16.044982851210648  0.037569014928429983  10.928026682803488
 179    15.654953295913662  -1.1592433057359295  11.271528262468422
 180    14.743701783912556  -1.6629137072055038  12.093216880966567
 181    13.836359850485438  -1.2040624408424669  12.896779286252755
 182    13.449465770635536  -0.035944011241927323  13.221940260909353
 183    13.842645480691701  1.1595194357367065  12.884001853157365
 184    14.753405902112526  2.2635665635691899  12.079950765274525
 185    15.993237871854175  1.6399584007879531  11.010417668525202
 186    16.525577308885229  0.038044131134280977  10.568820973610183
 187    15.992810665571694  -1.5861730242227587  11.019370745744226
 188    14.754327904575234  -2.2628195628028056  12.093440442437556
 189    13.513193323340879  -1.6371240212864853  13.157587766323195
 190    12.980366471999229  -0.036226179324165768  13.596033522543532
 191    13.513248445378467  1.5866253004180089  13.146829122445942
 192    11.607365648772502  1.1153292544648805  8.4288461285262155
 193    12.169298479464539  0.81490887328549411  7.8129839646546566
 194    12.409377178138723  0.046587086767189895  7.5714873639824347
 195    12.162438197762818  -0.76209032535203769  7.8335987381143797
 196    11.58772670272066  -1.1142789323283708  8.4726537221014198
 197    11.030277911225184  -0.81323224517511894  9.0912203783030989
 198    10.792657013544339  -0.045802077033949985  9.3344402187985747
 199    11.034947691514361  0.76275425914164607  9.0671280856118912
 200    11.604065492115575  1.7151988816104606  8.4409100994422328
 201    12.466764704818907  1.2505160978239094  7.5270465751733893
 202    12.839768557132281  0.048157250325140781  7.1534433525740386
 203    12.466771562864327  -1.1890274902312805  7.5418696512360484
 204    11.599858077543734  -1.7141484599543377  8.4695911136214512
 205    10.738655752633976  -1.2487639054309165  9.3832284082156896
 206    10.366338464888372  -0.047185828637036374  9.7566375426927081
 207    10.73740470223226  1.1897799276819074  9.365653206727039
 208    11.60076533545865  2.3150685087560405  8.4529740703582501
 209    12.764230930173277  1.6861233223623247  7.241109185692121
 210    13.270159936125841  0.049727413883091667  6.7353993411656425
 211    12.771104927965837  -1.6159646551105231  7.2501405643577153
 212    11.61198945236681  -2.3140179875803044  8.4665285051414809
 213    10.447033594042768  -1.6842955656867142  9.6752364381282803
 214    9.9400199162324014  -0.048569580240122763  10.178834866586845
 215    10.439861712950158  1.6168055962221686  9.6641783278421887
 216    8.0427744529572269  1.1632349831809223  5.2026986321132442
 217    8.5650776245657152  0.842969046085558  4.5446724078420955
 218    8.7917482364025723  0.036379629878835792  4.283208981026319
 219    8.5655723988216614  -0.80160769504045037  4.5626163282567758
 220    8.0406269220101656  -1.1623649615890317  5.2433533256414684
 221    7.5314891742778425  -0.84193481071932819  5.9113614210953305
 222    7.3108231177354224  -0.035941824876457154  6.1772529575921267
 223    7.5239363571716664  0.80243223331194058  5.8859948153325821
 224    8.0417835161224982  1.7631490189208623  5.2128064393139946
 225    8.8284276275763176  1.2742181931284076  4.2211435079133084
 226    9.1684913414502436  0.037820543005003551  3.8162372939098486
 227    8.8350758556485189  -1.2258891723190548  4.2349684764453226
 228    8.0503023991948837  -1.7622795601547008  5.2403768228210241
 229    7.2695310848843473  -1.2730911242673772  6.2361416432286463
 230    6.9319121373432138  -0.037166587725994404  6.6424679282177266
 231    7.2594042450192511  1.2267846329191969  6.2175785944710453
 232    8.0407925792877677  2.3630630546608025  5.222914246514744
 233    9.0917776305869182  1.7054673401712568  3.8976146079845222
 234    9.5452344464979149  0.03926145613117131  3.3492656067933786
 235    9.1045793124753747  -1.6501706495976589  3.9073206246338699
 236    8.0599778763796035  -2.3621941587203699  5.2374003200005816
 237    7.007572995490853  -1.7042474378154262  6.560921865361963
 238    6.5530011569510052  -0.038391350575531655  7.1076828988433265
 239    6.9948721328668348  1.6511370325264532  6.5491623736095086
 240    4.1446490490701198  1.20477620147814  2.3872943986472417
 241    4.6065692857231175  0.86023935979549948  1.6998423866649111
 242    4.8090821851173029  0.015645360886767073  1.4237003256474989
 243    4.6146327048519957  -0.84300222515417944  1.7149391832281577
 244    4.1602149362854961  -1.2042982988663633  2.4193008123898632
 245    3.7185394517230819  -0.85949978168811514  3.1196903112544705
 246    3.5256321418034924  -0.015238802529191443  3.4015326426843773
 247    3.7003480534262332  0.84382420162578275  3.096202914330096
 248    4.1469512977832457  1.8047487342185187  2.3925536388925939
 249    4.8366925761853752  1.2834246642789013  1.3421309537247355
 250    5.1317548555321482  0.015526917583577658  0.91785219256946093
 251    4.8484390838083335  -1.2640342842211179  1.3570752671969659
 252    4.1659409356783961  -1.8042709685343759  2.4193934535814727
 253    3.4858722623549232  -1.2825653601995102  3.4758945999292981
 254    3.1953115923921627  -0.014888623082871151  3.9024200671731069
 255    3.4693261692266386  1.2649547319886325  3.4557553658822635
 256    4.1492535464963716  2.4047212669588971  2.3978128791379456
 257    5.0668158666476328  1.7066099687623033  0.98441952078455985
 258    5.4544275259469934  0.015408474280388239  0.41200405949142282
 259    5.0822454627646705  -1.6850663432880562  0.99921135116577431
 260    4.1716669350712969  -2.4042436382023884  2.4194860947730819
 261    3.2532050729867641  -1.7056309387109052  3.8320988886041256
 262    2.864991042980833  -0.014538443636550857  4.4033074916618364
 263    3.238304285027044  1.6860852623514824  3.815307817434431
 264    -24.875797566879978  1.1327520296409586  43.603671507652727
 265    -24.179992872472106  0.8638355383128492  43.566857672171196
 266    -23.929472213485113  0.12421392322430896  43.509536251121297
 267    -24.306803975496926  -0.73547844198641898  43.552387047192546
 268    -25.124385069232208  -1.1328011430871621  43.604172153928083
 269    -25.819942668729894  -0.86340228150760578  43.570587530162783
 270    -26.070624418890826  -0.12359311762969781  43.519656871144598
 271    -25.692371209688844  0.73604896973207068  43.556981748919839
 272    -24.892898783439989  1.7313760148204793  43.566835753826361
 273    -23.750514546830562  1.2822431225700535  43.544869920121755
 274    -23.329747167395229  0.10682149438971841  43.514768125710752
 275    -23.877549636292478  -1.1544332480003439  43.537636359344575
 276    -25.10778843080562  -1.731424037063259  43.567088702084718
 277    -26.249868085209993  -1.2815937984186687  43.553854585172807
 278    -26.670277188364377  -0.10589861650626997  43.529828434087136
 279    -26.121660445748272  1.1551098739411292  43.547046439815574
 280    -24.91  2.3300000000000001  43.530000000000001
 281    -23.321036221189022  1.7006507068272581  43.522882168072307
 282    -22.730022121305343  0.089429065555127848  43.520000000300215
 283    -23.448295297088031  -1.5733880540142684  43.522885671496603
 284    -25.091191792379028  -2.3300469310393557  43.530005250241338
 285    -26.679793501690092  -1.6997853153297313  43.537121640182839
 286    -27.269929957837928  -0.088204115382842119  43.539999997029689
 287    -26.550949681807705  1.5741707781501877  43.537111130711317
 288    -24.699834258169744  0.88804437097262023  38.784521630381867
 289    -23.956122623626243  0.66484101312431598  38.838898194468712
 290    -23.671935832775088  0.090446787199905426  38.833888044433309
 291    -24.04699840275855  -0.57410586935672869  38.827514821754036
 292    -24.877826745307996  -0.88781318600622683  38.782238664895161
 293    -25.616790515468573  -0.6635087635939334  38.682441826458479
 294    -25.893716425566613  -0.089870691054483295  38.612486424941821
 295    -25.522481998209123  0.57428278307838043  38.669063835389807
 296    -24.711489492323338  1.487413754603111  38.759611843485338
 297    -23.555700727718119  1.1110811492420836  38.861964321038634
 298    -23.075067075469615  0.078937205080752193  38.89401471132966
 299    -23.645034705563319  -1.0185950006292308  38.856748335360123
 300    -24.862006496876138  -1.4871885864125809  38.759903734242101
 301    -26.014782886062662  -1.1096180046603139  38.631563363587894
 302    -26.491318540229837  -0.078025124525604284  38.560223674309555
 303    -25.922851764130023  1.0188447393339188  38.623580678213841
 304    -24.723144726476932  2.086783138233602  38.734702056588816
 305    -23.155278831809994  1.557321285359851  38.885030447608557
 306    -22.478198318164143  0.067427622961598946  38.954141378226005
 307    -23.243071008368087  -1.4630841319017329  38.885981848966203
 308    -24.846186248444276  -2.086563986818935  38.737568803589042
 309    -26.412775256656754  -1.5557272457266942  38.580684900717308
 310    -27.088920654893066  -0.066179557996725272  38.507960923677295
 311    -26.323221530050922  1.4634066955894569  38.578097521037883
 312    -24.062332074329543  0.7468930728373373  33.999163258947043
 313    -23.301517719061302  0.54616339924103907  34.158092490807874
 314    -23.005907135841319  0.062391647402698258  34.206295949640499
 315    -23.363215164172317  -0.48479159004474182  34.152682153688616
 316    -24.18183843162095  -0.74681154108271008  34.000852745997975
 317    -24.938326526239731  -0.54480834598408179  33.822672260467414
 318    -25.226394467750247  -0.061749840124644489  33.73562911217244
 319    -24.871824015298699  0.48485772578021424  33.808059830646265
 320    -24.070525182196842  1.3466957045307895  33.986137285007118
 321    -22.923176328612094  1.0077545993000929  34.219666481266529
 322    -22.416125484116851  0.055586781626531578  34.316347288073644
 323    -22.982558745644486  -0.94375119588438461  34.219441207314951
 324    -24.169538382930085  -1.346614908942892  33.991653359834451
 325    -25.313748899686505  -1.0063139264223855  33.744757943811905
 326    -25.816307895675429  -0.054602542955439731  33.626308191499696
 327    -25.250945069049756  0.94394826943745302  33.733876953058591
 328    -24.078718290064142  1.9464983362242421  33.973111311067193
 329    -22.544834938162889  1.469345799359147  34.281240471725198
 330    -21.826343832392386  0.048781915850364906  34.426398626506796
 331    -22.601902327116651  -1.4027108017240275  34.286200260941278
 332    -24.157238334239221  -1.9464182768030738  33.982453973670914
 333    -25.68917127313328  -1.4678195068606892  33.666843627156389
 334    -26.406221323600612  -0.04745524578623498  33.516987270826952
 335    -25.630066122800816  1.4030388130946918  33.65969407547091
 336    -23.007176620014071  0.71062209463116655  29.277143567316035
 337    -22.272292592950862  0.50838848838478146  29.552627335826937
 338    -21.984603374745802  0.040497395004712167  29.662684172367168
 339    -22.31244866893184  -0.46917957865543514  29.554335678924325
 340    -23.083733368468611  -0.71055854644844185  29.286074096826177
 341    -23.822785727033537  -0.50824749134388569  29.027663464118657
 342    -24.112525313223237  -0.039628435104825804  28.928689033768702
 343    -23.777643412107199  0.47044279652688392  29.011145255755952
 344    -23.015350288702798  1.3105613340023576  29.27961342619535
 345    -21.904349543312208  0.97240811215674261  29.64908303020076
 346    -21.403472938044739  0.036705032981789627  29.811925699865114
 347    -21.942612966938349  -0.93083862121279104  29.654797024505648
 348    -23.078211325203601  -1.3105021397713847  29.292172610492209
 349    -24.19017360846021  -0.97204075277094781  28.92805445229909
 350    -24.69078693565417  -0.035554559999256725  28.76869872292092
 351    -24.148322772465207  0.93212328268269984  28.913944738743382
 352    -23.023523957391529  1.9105005733735483  29.282083285074663
 353    -21.536406493673557  1.4364277359287037  29.74553872457458
 354    -20.82234250134368  0.032912670958867088  29.96116722736306
 355    -21.572777264944865  -1.3924976637701469  29.755258370086967
 356    -23.072689281938594  -1.9104457330943274  29.298271124158241
 357    -24.557561489886879  -1.4358340141980099  28.828445440479523
 358    -25.269048558085103  -0.031480684893687647  28.608708412073138
 359    -24.519002132823207  1.3938037688385159  28.816744221730811
 360    -21.589129768773272  0.80171805122247308  24.659297066436761
 361    -20.928211464978403  0.56810125712112292  25.025046359135107
 362    -20.665439488956387  0.023704776470738993  25.182124064713843
 363    -20.955476265047373  -0.54543485575536998  25.033428878565122
 364    -21.640123039604831  -0.80128422471970806  24.67431248787911
 365    -22.316189178667514  -0.56992183855395329  24.347919911033244
 366    -22.593258908682941  -0.022640953121023995  24.235039417770302
 367    -22.28468301433082  0.54895084275714379  24.330560122302622
 368    -21.598648950015136  1.4014917076471358  24.672748692638638
 369    -20.555556089832667  1.0179880076062098  25.161903522312496
 370    -20.097269320586804  0.020943237416563652  25.374932346893129
 371    -20.58268449569438  -0.99452204988157344  25.172522331949946
 372    -21.64260084066553  -1.4010679932573677  24.690227622206745
 373    -22.691766848486104  -1.0192770758278278  24.217454265485536
 374    -23.15532152257558  -0.019694813570834309  24.02509433369849
 375    -22.661473468574989  0.99776023594477325  24.201722696928535
 376    -21.608168131256999  2.0012653640717986  24.68620031884052
 377    -20.182900714686937  1.4678747580912967  25.298760685489885
 378    -19.529099152217213  0.018181698362388303  25.567740629072418
 379    -20.209892726341383  -1.4436092440077768  25.311615785334773
 380    -21.645078641726236  -2.0008517617950274  24.706142756534376
 381    -23.06734451830469  -1.4686323131017023  24.086988619937831
 382    -23.717384136468226  -0.01674867402064462  23.815149249626675
 383    -23.038263922819162  1.4465696291324031  24.072885271554451
 384    -19.755264957965881  0.92820843617683213  20.227928336736621
 385    -19.159979435628451  0.65961517132080105  20.64086728813567
 386    -18.92068755886352  0.014201448913432531  20.816108641063863
 387    -19.183171561045999  -0.64563136379196717  20.654819732108479
 388    -19.79582002324322  -0.92765179578328438  20.246464380319772
 389    -20.403186882208885  -0.6617044611275148  19.857006272255092
 390    -20.655933730508238  -0.013443489075884255  19.712041744620787
 391    -20.37778315853641  0.64927104418673176  19.840541218796606
 392    -19.763217900909567  1.5280530572032898  20.239027044956941
 393    -18.787698675811235  1.092690078409609  20.824859572538948
 394    -18.377635246820816  0.011962417403008893  21.071234439686755
 395    -18.811296378363679  -1.0788799727074845  20.839222799810081
 396    -19.800401244472035  -1.5274988372268383  20.259213469835029
 397    -20.780159382925969  -1.0942843325938449  19.681602770279557
 398    -21.195316700510666  -0.01100145801376811  19.44924895903555
 399    -20.754523407191506  1.0823041585136253  19.665758190616952
 400    -19.771170843853252  2.1278976782297474  20.250125753177262
 401    -18.415417915994016  1.5257649854984168  21.008851856942226
 402    -17.834582934778112  0.0097233858925852568  21.32636023830965
 403    -18.439421195681359  -1.5121285816230017  21.023625867511676
 404    -19.804982465700853  -2.127345878670392  20.271962559350285
 405    -21.157131883643054  -1.5268642040601754  19.50619926830402
 406    -21.734699670513102  -0.0085594269516519658  19.186456173450313
 407    -21.131263655846599  1.515337272840519  19.490975162437305
 408    -17.44917719104664  1.0052701176980221  16.024348579322275
 409    -16.877234036338397  0.71966726747739784  16.490908915560908
 410    -16.645456091656232  0.017607571287314872  16.683055617884097
 411    -16.904304237715277  -0.70104812327731103  16.50837222454042
 412    -17.492428606148668  -1.0050335950126064  16.040547552453738
 413    -18.060890975110183  -0.72156866485778426  15.566742458024184
 414    -18.295315687456625  -0.017830401166036569  15.376907009092736
 415    -18.036555801763093  0.70333964662578774  15.555188692325446
 416    -17.456323871425365  1.6052070259199682  16.029311553496772
 417    -16.524102906903334  1.1484197453009943  16.717778301296494
 418    -16.137826771362608  0.01642203791811854  17.002916630964567
 419    -16.548828470482739  -1.1282547396581721  16.734494947482748
 420    -17.493930265541  -1.6049717557007293  16.049029790909564
 421    -18.422971688393805  -1.1499323230016398  15.353664694168733
 422    -18.809844848227517  -0.016285141057481235  15.068269106547373
 423    -18.398692257273041  1.1305516141022136  15.339904873993431
 424    -17.46347055180409  2.2051439341419141  16.034274527671261
 425    -16.170971777468267  1.5771722231245906  16.944647687032081
 426    -15.630197451068984  0.015236504548922208  17.322777644045036
 427    -16.193352703250195  -1.5554613560390333  16.960617670425073
 428    -17.495431924933332  -2.2049099163888521  16.057512029365387
 429    -18.785052401677426  -1.5782959811454955  15.140586930313287
 430    -19.324374008998404  -0.0147398809489259  14.759631204002009
 431    -18.760828712782992  1.5577635815786393  15.124621055661416
 432    -14.718560659870969  1.0632784252129077  12.072959399103972
 433    -14.14873845482632  0.77026551430913726  12.622094493290348
 434    -13.918643049608642  0.034233393765462646  12.847944716128003
 435    -14.182610428693899  -0.73277676587118123  12.635461069640474
 436    -14.774216937131275  -1.0634496931333579  12.078082663714948
 437    -15.335636667934825  -0.77210575518351221  11.5168580550027
 438    -15.564439430390919  -0.034732616409387795  11.28730406225233
 439    -15.306233977799744  0.7343575636734937  11.510870945451313
 440    -14.72877802228086  1.6631911931060561  12.07348515966385
 441    -13.825518231716377  1.2031620133970873  12.883110409376235
 442    -13.449542151210206  0.034417018957537918  13.222036033059537
 443    -13.853332017141208  -1.1601426418587584  12.898014179937624
 444    -14.772344440699179  -1.6633649500212038  12.087991160588919
 445    -15.670311652874526  -1.2045784885805149  11.269957286831081
 446    -16.045032861922895  -0.034412183749022593  10.928096808857816
 447    -15.643585224160843  1.1618110457532917  11.25892321826079
 448    -14.73899538469075  2.2631039609992047  12.074010920223728
 449    -13.502298008606434  1.6360585124850373  13.144126325462123
 450    -12.980441252811771  0.034600644149613183  13.596127349991072
 451    -13.524053605588517  -1.5875085178463357  13.160567290234773
 452    -14.770471944267079  -2.2632802069090499  12.097899657462888
 453    -16.004986637814227  -1.6370512219775173  11.023056518659461
 454    -16.52562629345487  -0.034091751088657397  10.568889555463301
 455    -15.980936470521939  1.5892645278330899  11.00697549107027
 456    -11.56838201733763  1.1145598706205755  8.4516872408297736
 457    -11.015898583362947  0.81334070391662117  9.0762433887572413
 458    -10.792751387499179  0.045826235614763282  9.3345368603153194
 459    -11.049152255677745  -0.76217312488614752  9.0825276634749699
 460    -11.628007648092566  -1.1150391283219894  8.4484529214191593
 461    -12.182814573450852  -0.81420496992729352  7.8263161316652505
 462    -12.409437343445955  -0.045628464960510505  7.5715530126077271
 463    -12.148661122420506  0.76325110410797481  7.8206035363374085
 464    -11.580489390999386  1.7144299482554837  8.4486374111125979
 465    -10.724630482924518  1.2489690408479646  9.3684605096270168
 466    -10.366433541956781  0.047401504412165715  9.7567342230502181
 467    -10.751302609356538  -1.1891746389544566  9.3807814064015318
 468    -11.624889127609876  -1.7149131222612379  8.4603468789343612
 469    -12.480804068348005  -1.2495166201696661  7.5404734684846115
 470    -12.83983161263782  -0.046771694175320018  7.1535105912271169
 471    -12.452544778766791  1.190417365590418  7.5287410542388589
 472    -11.592596764661142  2.3143000258903919  8.4455875813954222
 473    -10.43336238248609  1.684597377779308  9.6606776304967941
 474    -9.9401156964143809  0.048976773209568156  10.178931585785117
 475    -10.453452963035334  -1.6161761530227654  9.6790351493280955
 476    -11.621770607127189  -2.3147871162004865  8.4722408364495649
 477    -12.778793563245163  -1.6848282704120385  7.2546308053039725
 478    -13.270225881829683  -0.047914923390129524  6.7354681698465058
 479    -12.756428435113076  1.6175836270728612  7.2368785721403102
 480    -8.0168626719642138  1.1626406098579367  5.2221980371625847
 481    -7.5141031649235916  0.84601151873677416  5.8957018880319954
 482    -7.3109235636081298  0.042239150303909997  6.1773535919872744
 483    -7.5411297861457092  -0.79790606157193811  5.9020758460822895
 484    -8.0676912757436661  -1.1630918208361005  5.2223533506279702
 485    -8.5812165589209801  -0.84620971225037045  4.5582807348791627
 486    -8.7918214918467417  -0.041618463863978314  4.2832603989456537
 487    -8.5493085697073461  0.79882053608903436  4.5492626646235834
 488    -8.0278566361762618  1.7625221082494309  5.217580609471753
 489    -7.2534407721718122  1.2784815361456474  6.2197771895396627
 490    -6.9320156766243599  0.044986953730631239  6.642564579344433
 491    -7.2753858412885828  -1.2210089583999453  6.2342867647281421
 492    -8.0655340995529112  -1.7629761244013411  5.2339364817645961
 493    -8.8443702300419123  -1.278394734339493  4.235842753156474
 494    -9.1685654618498216  -0.04402481430922775  3.8162933866804907
 495    -8.8190400096627783  1.2220993283985928  4.2205074148091812
 496    -8.0388506003883098  2.3624036066409251  5.2129631817809212
 497    -6.9927783794200327  1.710951553554521  6.543852491047331
 498    -6.55310778964059  0.047734757157352474  7.1077755667015925
 499    -7.0096418964314555  -1.6441118552279526  6.5664976833739939
 500    -8.0633769233621546  -2.3628604279665817  5.2455196129012212
 501    -9.1075239011628444  -1.7105797564286154  3.9134047714337852
 502    -9.5453094318529015  -0.046431164754477179  3.3493263744153277
 503    -9.0887714496182124  1.645378120708151  3.8917521649947782
 504    -4.1332356576611655  1.2045111248373748  2.3976621927148272
 505    -3.6992258107273419  0.86948935271556327  3.1030676177246401
 506    -3.5257284795093433  0.030750366086806917  3.4016316504745232
 507    -3.7195269171433303  -0.83352509736430014  3.1132279762984116
 508    -4.1726151689885285  -1.2047795667401855  2.4073746244679644
 509    -4.624532424286345  -0.86919730359389569  1.7143336428556539
 510    -4.8091601317881878  -0.029952458914971881  1.4237269900969269
 511    -4.5966596170365905  0.83440126536484194  1.7005914372896844
 512    -4.1419022892279083  1.8044319309010126  2.3931994638141156
 513    -3.4688676757703507  1.2958818193082893  3.4567971670870135
 514    -3.1954018537405107  0.034186768504679964  3.9025034019704528
 515    -3.4862794681476199  -1.2514008505457594  3.4751333264108708
 516    -4.1721325013167414  -1.8047025659467788  2.4169747314925889
 517    -4.8535191483427118  -1.2953079808679104  1.3593762215795042
 518    -5.1318214063487773  -0.033118882608359941  0.91788148437415207
 519    -4.8316059885911384  1.2524218840771839  1.3399545495137615
 520    -4.150568920794651  2.4043527369646505  2.3887367349134037
 521    -3.23850954081336  1.7222742859010154  3.8105267164493868
 522    -2.8650752279716771  0.037623170922553018  4.4033751534663814
 523    -3.2530320191519095  -1.6692766037272189  3.8370386765233295
 524    -4.1716498336449543  -2.4046255651533723  2.426574838517213
 525    -5.0825058723990777  -1.7214186581419253  1.0044188003033545
 526    -5.4544826809093676  -0.036285306301748005  0.41203597865137731
 527    -5.0665523601456846  1.670442502789526  0.97931766173783896
 528    2.3484118595226082  1.3219073509030803  -0.40655587859826881
 529    3.1703336234597117  0.93276561136641578  -0.79638253615375787
 530    3.5129205905847645  0.003267943906557181  -0.95007890774126413
 531    3.1716413354676591  -0.93097630738551995  -0.78684212358494754
 532    2.3508089538284835  -1.3217991211388398  -0.38681727379933639
 533    1.5359735334906954  -0.93164651158244494  0.010835914168339289
 534    1.197898391209538  -0.0002164546580818318  0.16646130356707567
 535    1.5317159127722881  0.93363803981000748  -0.0039061946729548325
 536    1.8023970454585918  1.9079228780512829  -0.38174856340779462
 537    3.2614522216452038  1.403332873823391  -0.9900980575399656
 538    4.0349608731092363  0.0035105810980074997  -1.2362848058266254
 539    3.2640805335643903  -1.400262358512059  -0.98056103474582068
 540    1.8065409602034854  -1.9077782502030092  -0.36466052226191792
 541    1.1182976771585562  -1.211756591169074  0.21434966031953073
 542    0.83241050188074517  7.9666650765231368e-05  0.44390254491303804
 543    1.1143733709912098  1.2129256556141967  0.20139392473100637
 544    -2.3416619353561368  1.3218499491968696  -0.40052464875612692
 545    -1.5297917281915034  0.93943620549254603  0.00021125031274893402
 546    -1.1979143130526602  0.011959291397317964  0.16650983824555143
 547    -1.5378630601216272  -0.92583097925438229  0.0068973192217154367
 548    -2.3589735498159854  -1.3219635539682644  -0.39373869325225308
 549    -3.1771974947697235  -0.93866977196469759  -0.78739069491947156
 550    -3.5129396710032061  -0.012361086894931022  -0.95006588843475559
 551    -3.1648221792614057  0.92514046480470913  -0.79578364961864012
 552    -1.7997143620144407  1.9078361529745247  -0.381043551768666
 553    -1.1136688973758657  1.2212031438392983  0.20235299573480314
 554    -0.83282195771153977  0.013582304466946457  0.4439279366520279
 555    -1.1197908399722005  -1.203470286309845  0.21347118639335871
 556    -1.8111498700291524  -1.9079232121407119  -0.36639104410006451
 557    -3.2677422437448653  -1.4105864638995553  -0.97959785761417983
 558    -4.034970342168906  -0.013712599157351471  -1.2362675317782652
 559    -3.2578035652128245  1.3930643219277126  -0.99101879740791443
 560    -0.0007500103223121446  2.4708441408788855  0.072146684808189823
 561    2.9020183064146865  1.8699700263052783  -1.1817439528874965
 562    3.9901975689993932  -0.00026216104835795654  -1.4714397624140461
 563    2.9089856610202576  -1.8702031234916165  -1.1722018080060161
 564    -0.00027219018461906624  -2.4708166372088054  0.093255426649342124
 565    -2.9105622982323021  -1.8798122990618007  -1.1703876177558437
 566    -3.9902137134071154  -0.013170457491325283  -1.4714338692243341
 567    -2.90044876067951  1.8604035046582215  -1.1835478368805683
 568    0.00025632981058887339  -1.6915183746438902  2.5672762473009811
 569    -3.0525252124768976e-05  0.015537713608233982  3.1438972855469363
 570    -0.0002850501579976239  1.7139831614764376  2.5427820345899947
 571    2.0250000000000004  1.4250000000000003  -4
 572    3.0326271631908304  1.0076271631908305  -4
 573    3.4499999524359595  -0.00036818136198978139  -4
 574    3.0322467847377563  -1.0080073981055169  -4
 575    2.0242636373005976  -1.4249998097438383  -4
 576    1.0167324712088666  -1.0069863903675269  -4
 577    0.60000042807635245  0.0011045439876543534  -4
 578    1.0182741171477208  1.0085276380919359  -4
 579    1.0125000000000002  2.0125000000000002  -4
 580    2.9335339124385356  1.5343783659325114  -4
 581    4.0499998399383941  -0.00062919547122901993  -4
 582    2.9324853165776044  -1.5349373647131936  -4
 583    1.01134852075156  -2.0124998310948534  -4
 584    0.50777876218037932  -1.1534931398509638  -4
 585    0.29960856508880696  0.00055230888235996065  -4
 586    0.5089412340991758  1.1542638374902343  -4
 587    -2.0250000000000004  1.4250000000000003  -4
 588    -1.0173728368091701  1.0076271631908305  -4
 589    -0.60000004756404146  -0.00036818136199020092  -4
 590    -1.0177532152622448  -1.0080073981055169  -4
 591    -2.0257363626994036  -1.4249998097438383  -4
 592    -3.0332675287911361  -1.0069863903675247  -4
 593    -3.449999571923648  0.0011045439876535461  -4
 594    -3.0317258828522786  1.008527638091937  -4
 595    -1.0125000000000002  2.0125000000000002  -4
 596    -0.50888224287926964  1.1538136000396815  -4
 597    -0.30039167273139  -0.00018405379246231652  -4
 598    -0.50946408105517638  -1.1540036437199592  -4
 599    -1.0136514792484403  -2.0124998310948534  -4
 600    -2.934722670648708  -1.5336843663401298  -4
 601    -4.0499983861599596  0.0019787993026716263  -4
 602    -2.931350519778853  1.5355728502817712  -4
 603    -0.001174946848107901  -1.2999998893344011  -4
 604    -0.00078329789873850589  7.377706556788155e-08  -4
 605    -0.00039164894936911059  1.3000000368885327  -4
 606    2.8473038080175964e-16  2.6000000000000001  -4
 607    2.8344406616862403  2.0611295686741924  -4
 608    4.6499997274408278  -0.00089020958046825841  -4
 609    2.8327238484174524  -2.0618673313208706  -4
 610    -0.0015665957974772965  -2.599999852445869  -4
 611    -2.8361778125062798  -2.0603823423127348  -4
 612    -4.6499972003962711  0.0028530546176897065  -4
 613    -2.8309751567054278  2.0626180624716053  -4
 614    2.0250000000000004  1.4250000000000003  -8
 615    3.0326271631908304  1.0076271631908305  -8
 616    3.4499999524359595  -0.00036818136198978139  -8
 617    3.0322467847377563  -1.0080073981055169  -8
 618    2.0242636373005976  -1.4249998097438383  -8
 619    1.0167324712088666  -1.0069863903675269  -8
 620    0.60000042807635245  0.0011045439876543534  -8
 621    1.0182741171477208  1.0085276380919359  -8
 622    1.0125000000000002  2.0125000000000002  -8
 623    2.9335339124385356  1.5343783659325114  -8
 624    4.0499998399383941  -0.00062919547122901993  -8
 625    2.9324853165776044  -1.5349373647131936  -8
 626    1.01134852075156  -2.0124998310948534  -8
 627    0.50777876218037932  -1.1534931398509638  -8
 628    0.29960856508880696  0.00055230888235996065  -8
 629    0.5089412340991758  1.1542638374902343  -8
 630    -2.0250000000000004  1.4250000000000003  -8
 631    -1.0173728368091701  1.0076271631908305  -8
 632    -0.60000004756404146  -0.00036818136199020092  -8
 633    -1.0177532152622448  -1.0080073981055169  -8
 634    -2.0257363626994036  -1.4249998097438383  -8
 635    -3.0332675287911361  -1.0069863903675247  -8
 636    -3.449999571923648  0.0011045439876535461  -8
 637    -3.0317258828522786  1.008527638091937  -8
 638    -1.0125000000000002  2.0125000000000002  -8
 639    -0.50888224287926964  1.1538136000396815  -8
 640    -0.30039167273139  -0.00018405379246231652  -8
 641    -0.50946408105517638  -1.1540036437199592  -8
 642    -1.0136514792484403  -2.0124998310948534  -8
 643    -2.934722670648708  -1.5336843663401298  -8
 644    -4.0499983861599596  0.0019787993026716263  -8
 645    -2.931350519778853  1.5355728502817712  -8
 646    -0.001174946848107901  -1.2999998893344011  -8
 647    -0.00078329789873850589  7.377706556788155e-08  -8
 648    -0.00039164894936911059  1.3000000368885327  -8
 649    2.8473038080175964e-16  2.6000000000000001  -8
 650    2.8344406616862403  2.0611295686741924  -8
 651    4.6499997274408278  -0.00089020958046825841  -8
 652    2.8327238484174524  -2.0618673313208706  -8
 653    -0.0015665957974772965  -2.599999852445869  -8
 654    -2.8361778125062798  -2.0603823423127348  -8
 655    -4.6499972003962711  0.0028530546176897065  -8
 656    -2.8309751567054278  2.0626180624716053  -8
# Generated by tetgen -r uterus_mesh_low_res_tet.ele uterus_mesh_low_res_tet.node -k 
