2496  4  0
    0       0     1     3     6
    1       0     3     2     6
    2       1     3     6     7
    3       3     2     6     8
    4       3     6     7     9
    5       3     6     9     8
    6       2     3     5     8
    7       2     5     4     8
    8       3     5     8     9
    9       5     4     8    10
   10       5     8     9    11
   11       5     8    11    10
   12       1    12    13     7
   13       1    13     3     7
   14      12    13     7    15
   15      13     3     7     9
   16      13     7    15    16
   17      13     7    16     9
   18       3    13    14     9
   19       3    14     5     9
   20      13    14     9    16
   21      14     5     9    11
   22      14     9    16    17
   23      14     9    17    11
   24      12    18    19    15
   25      12    19    13    15
   26      18    19    15    21
   27      19    13    15    16
   28      19    15    21    22
   29      19    15    22    16
   30      13    19    20    16
   31      13    20    14    16
   32      19    20    16    22
   33      20    14    16    17
   34      20    16    22    23
   35      20    16    23    17
   36      18    24    25    21
   37      18    25    19    21
   38      24    25    21    27
   39      25    19    21    22
   40      25    21    27    28
   41      25    21    28    22
   42      19    25    26    22
   43      19    26    20    22
   44      25    26    22    28
   45      26    20    22    23
   46      26    22    28    29
   47      26    22    29    23
   48      24    30    31    27
   49      24    31    25    27
   50      30    31    27    33
   51      31    25    27    28
   52      31    27    33    34
   53      31    27    34    28
   54      25    31    32    28
   55      25    32    26    28
   56      31    32    28    34
   57      32    26    28    29
   58      32    28    34    35
   59      32    28    35    29
   60      30    36    37    33
   61      30    37    31    33
   62      36    37    33    39
   63      37    31    33    34
   64      37    33    39    40
   65      37    33    40    34
   66      31    37    38    34
   67      31    38    32    34
   68      37    38    34    40
   69      38    32    34    35
   70      38    34    40    41
   71      38    34    41    35
   72      36    42    43    39
   73      36    43    37    39
   74      42    43    39    45
   75      43    37    39    40
   76      43    39    45    46
   77      43    39    46    40
   78      37    43    44    40
   79      37    44    38    40
   80      43    44    40    46
   81      44    38    40    41
   82      44    40    46    47
   83      44    40    47    41
   84      42     0     2    45
   85      42     2    43    45
   86       0     2    45     6
   87       2    43    45    46
   88       2    45     6     8
   89       2    45     8    46
   90      43     2     4    46
   91      43     4    44    46
   92       2     4    46     8
   93       4    44    46    47
   94       4    46     8    10
   95       4    46    10    47
   96       4     5    49    10
   97       4    49    48    10
   98       5    49    10    11
   99      49    48    10    52
  100      49    10    11    53
  101      49    10    53    52
  102      48    49    51    52
  103      48    51    50    52
  104      49    51    52    53
  105      51    50    52    54
  106      51    52    53    55
  107      51    52    55    54
  108       5    14    56    11
  109       5    56    49    11
  110      14    56    11    17
  111      56    49    11    53
  112      56    11    17    58
  113      56    11    58    53
  114      49    56    57    53
  115      49    57    51    53
  116      56    57    53    58
  117      57    51    53    55
  118      57    53    58    59
  119      57    53    59    55
  120      14    20    60    17
  121      14    60    56    17
  122      20    60    17    23
  123      60    56    17    58
  124      60    17    23    62
  125      60    17    62    58
  126      56    60    61    58
  127      56    61    57    58
  128      60    61    58    62
  129      61    57    58    59
  130      61    58    62    63
  131      61    58    63    59
  132      20    26    64    23
  133      20    64    60    23
  134      26    64    23    29
  135      64    60    23    62
  136      64    23    29    66
  137      64    23    66    62
  138      60    64    65    62
  139      60    65    61    62
  140      64    65    62    66
  141      65    61    62    63
  142      65    62    66    67
  143      65    62    67    63
  144      26    32    68    29
  145      26    68    64    29
  146      32    68    29    35
  147      68    64    29    66
  148      68    29    35    70
  149      68    29    70    66
  150      64    68    69    66
  151      64    69    65    66
  152      68    69    66    70
  153      69    65    66    67
  154      69    66    70    71
  155      69    66    71    67
  156      32    38    72    35
  157      32    72    68    35
  158      38    72    35    41
  159      72    68    35    70
  160      72    35    41    74
  161      72    35    74    70
  162      68    72    73    70
  163      68    73    69    70
  164      72    73    70    74
  165      73    69    70    71
  166      73    70    74    75
  167      73    70    75    71
  168      38    44    76    41
  169      38    76    72    41
  170      44    76    41    47
  171      76    72    41    74
  172      76    41    47    78
  173      76    41    78    74
  174      72    76    77    74
  175      72    77    73    74
  176      76    77    74    78
  177      77    73    74    75
  178      77    74    78    79
  179      77    74    79    75
  180      44     4    48    47
  181      44    48    76    47
  182       4    48    47    10
  183      48    76    47    78
  184      48    47    10    52
  185      48    47    52    78
  186      76    48    50    78
  187      76    50    77    78
  188      48    50    78    52
  189      50    77    78    79
  190      50    78    52    54
  191      50    78    54    79
  192      50    51    81    54
  193      50    81    80    54
  194      51    81    54    55
  195      81    80    54    84
  196      81    54    55    85
  197      81    54    85    84
  198      80    81    83    84
  199      80    83    82    84
  200      81    83    84    85
  201      83    82    84    86
  202      83    84    85    87
  203      83    84    87    86
  204      51    57    88    55
  205      51    88    81    55
  206      57    88    55    59
  207      88    81    55    85
  208      88    55    59    90
  209      88    55    90    85
  210      81    88    89    85
  211      81    89    83    85
  212      88    89    85    90
  213      89    83    85    87
  214      89    85    90    91
  215      89    85    91    87
  216      57    61    92    59
  217      57    92    88    59
  218      61    92    59    63
  219      92    88    59    90
  220      92    59    63    94
  221      92    59    94    90
  222      88    92    93    90
  223      88    93    89    90
  224      92    93    90    94
  225      93    89    90    91
  226      93    90    94    95
  227      93    90    95    91
  228      61    65    96    63
  229      61    96    92    63
  230      65    96    63    67
  231      96    92    63    94
  232      96    63    67    98
  233      96    63    98    94
  234      92    96    97    94
  235      92    97    93    94
  236      96    97    94    98
  237      97    93    94    95
  238      97    94    98    99
  239      97    94    99    95
  240      65    69   100    67
  241      65   100    96    67
  242      69   100    67    71
  243     100    96    67    98
  244     100    67    71   102
  245     100    67   102    98
  246      96   100   101    98
  247      96   101    97    98
  248     100   101    98   102
  249     101    97    98    99
  250     101    98   102   103
  251     101    98   103    99
  252      69    73   104    71
  253      69   104   100    71
  254      73   104    71    75
  255     104   100    71   102
  256     104    71    75   106
  257     104    71   106   102
  258     100   104   105   102
  259     100   105   101   102
  260     104   105   102   106
  261     105   101   102   103
  262     105   102   106   107
  263     105   102   107   103
  264      73    77   108    75
  265      73   108   104    75
  266      77   108    75    79
  267     108   104    75   106
  268     108    75    79   110
  269     108    75   110   106
  270     104   108   109   106
  271     104   109   105   106
  272     108   109   106   110
  273     109   105   106   107
  274     109   106   110   111
  275     109   106   111   107
  276      77    50    80    79
  277      77    80   108    79
  278      50    80    79    54
  279      80   108    79   110
  280      80    79    54    84
  281      80    79    84   110
  282     108    80    82   110
  283     108    82   109   110
  284      80    82   110    84
  285      82   109   110   111
  286      82   110    84    86
  287      82   110    86   111
  288      82    83   113    86
  289      82   113   112    86
  290      83   113    86    87
  291     113   112    86   116
  292     113    86    87   117
  293     113    86   117   116
  294     112   113   115   116
  295     112   115   114   116
  296     113   115   116   117
  297     115   114   116   118
  298     115   116   117   119
  299     115   116   119   118
  300      83    89   120    87
  301      83   120   113    87
  302      89   120    87    91
  303     120   113    87   117
  304     120    87    91   122
  305     120    87   122   117
  306     113   120   121   117
  307     113   121   115   117
  308     120   121   117   122
  309     121   115   117   119
  310     121   117   122   123
  311     121   117   123   119
  312      89    93   124    91
  313      89   124   120    91
  314      93   124    91    95
  315     124   120    91   122
  316     124    91    95   126
  317     124    91   126   122
  318     120   124   125   122
  319     120   125   121   122
  320     124   125   122   126
  321     125   121   122   123
  322     125   122   126   127
  323     125   122   127   123
  324      93    97   128    95
  325      93   128   124    95
  326      97   128    95    99
  327     128   124    95   126
  328     128    95    99   130
  329     128    95   130   126
  330     124   128   129   126
  331     124   129   125   126
  332     128   129   126   130
  333     129   125   126   127
  334     129   126   130   131
  335     129   126   131   127
  336      97   101   132    99
  337      97   132   128    99
  338     101   132    99   103
  339     132   128    99   130
  340     132    99   103   134
  341     132    99   134   130
  342     128   132   133   130
  343     128   133   129   130
  344     132   133   130   134
  345     133   129   130   131
  346     133   130   134   135
  347     133   130   135   131
  348     101   105   136   103
  349     101   136   132   103
  350     105   136   103   107
  351     136   132   103   134
  352     136   103   107   138
  353     136   103   138   134
  354     132   136   137   134
  355     132   137   133   134
  356     136   137   134   138
  357     137   133   134   135
  358     137   134   138   139
  359     137   134   139   135
  360     105   109   140   107
  361     105   140   136   107
  362     109   140   107   111
  363     140   136   107   138
  364     140   107   111   142
  365     140   107   142   138
  366     136   140   141   138
  367     136   141   137   138
  368     140   141   138   142
  369     141   137   138   139
  370     141   138   142   143
  371     141   138   143   139
  372     109    82   112   111
  373     109   112   140   111
  374      82   112   111    86
  375     112   140   111   142
  376     112   111    86   116
  377     112   111   116   142
  378     140   112   114   142
  379     140   114   141   142
  380     112   114   142   116
  381     114   141   142   143
  382     114   142   116   118
  383     114   142   118   143
  384     114   115   145   118
  385     114   145   144   118
  386     115   145   118   119
  387     145   144   118   148
  388     145   118   119   149
  389     145   118   149   148
  390     144   145   147   148
  391     144   147   146   148
  392     145   147   148   149
  393     147   146   148   150
  394     147   148   149   151
  395     147   148   151   150
  396     115   121   152   119
  397     115   152   145   119
  398     121   152   119   123
  399     152   145   119   149
  400     152   119   123   154
  401     152   119   154   149
  402     145   152   153   149
  403     145   153   147   149
  404     152   153   149   154
  405     153   147   149   151
  406     153   149   154   155
  407     153   149   155   151
  408     121   125   156   123
  409     121   156   152   123
  410     125   156   123   127
  411     156   152   123   154
  412     156   123   127   158
  413     156   123   158   154
  414     152   156   157   154
  415     152   157   153   154
  416     156   157   154   158
  417     157   153   154   155
  418     157   154   158   159
  419     157   154   159   155
  420     125   129   160   127
  421     125   160   156   127
  422     129   160   127   131
  423     160   156   127   158
  424     160   127   131   162
  425     160   127   162   158
  426     156   160   161   158
  427     156   161   157   158
  428     160   161   158   162
  429     161   157   158   159
  430     161   158   162   163
  431     161   158   163   159
  432     129   133   164   131
  433     129   164   160   131
  434     133   164   131   135
  435     164   160   131   162
  436     164   131   135   166
  437     164   131   166   162
  438     160   164   165   162
  439     160   165   161   162
  440     164   165   162   166
  441     165   161   162   163
  442     165   162   166   167
  443     165   162   167   163
  444     133   137   168   135
  445     133   168   164   135
  446     137   168   135   139
  447     168   164   135   166
  448     168   135   139   170
  449     168   135   170   166
  450     164   168   169   166
  451     164   169   165   166
  452     168   169   166   170
  453     169   165   166   167
  454     169   166   170   171
  455     169   166   171   167
  456     137   141   172   139
  457     137   172   168   139
  458     141   172   139   143
  459     172   168   139   170
  460     172   139   143   174
  461     172   139   174   170
  462     168   172   173   170
  463     168   173   169   170
  464     172   173   170   174
  465     173   169   170   171
  466     173   170   174   175
  467     173   170   175   171
  468     141   114   144   143
  469     141   144   172   143
  470     114   144   143   118
  471     144   172   143   174
  472     144   143   118   148
  473     144   143   148   174
  474     172   144   146   174
  475     172   146   173   174
  476     144   146   174   148
  477     146   173   174   175
  478     146   174   148   150
  479     146   174   150   175
  480     146   147   177   150
  481     146   177   176   150
  482     147   177   150   151
  483     177   176   150   180
  484     177   150   151   181
  485     177   150   181   180
  486     176   177   179   180
  487     176   179   178   180
  488     177   179   180   181
  489     179   178   180   182
  490     179   180   181   183
  491     179   180   183   182
  492     147   153   184   151
  493     147   184   177   151
  494     153   184   151   155
  495     184   177   151   181
  496     184   151   155   186
  497     184   151   186   181
  498     177   184   185   181
  499     177   185   179   181
  500     184   185   181   186
  501     185   179   181   183
  502     185   181   186   187
  503     185   181   187   183
  504     153   157   188   155
  505     153   188   184   155
  506     157   188   155   159
  507     188   184   155   186
  508     188   155   159   190
  509     188   155   190   186
  510     184   188   189   186
  511     184   189   185   186
  512     188   189   186   190
  513     189   185   186   187
  514     189   186   190   191
  515     189   186   191   187
  516     157   161   192   159
  517     157   192   188   159
  518     161   192   159   163
  519     192   188   159   190
  520     192   159   163   194
  521     192   159   194   190
  522     188   192   193   190
  523     188   193   189   190
  524     192   193   190   194
  525     193   189   190   191
  526     193   190   194   195
  527     193   190   195   191
  528     161   165   196   163
  529     161   196   192   163
  530     165   196   163   167
  531     196   192   163   194
  532     196   163   167   198
  533     196   163   198   194
  534     192   196   197   194
  535     192   197   193   194
  536     196   197   194   198
  537     197   193   194   195
  538     197   194   198   199
  539     197   194   199   195
  540     165   169   200   167
  541     165   200   196   167
  542     169   200   167   171
  543     200   196   167   198
  544     200   167   171   202
  545     200   167   202   198
  546     196   200   201   198
  547     196   201   197   198
  548     200   201   198   202
  549     201   197   198   199
  550     201   198   202   203
  551     201   198   203   199
  552     169   173   204   171
  553     169   204   200   171
  554     173   204   171   175
  555     204   200   171   202
  556     204   171   175   206
  557     204   171   206   202
  558     200   204   205   202
  559     200   205   201   202
  560     204   205   202   206
  561     205   201   202   203
  562     205   202   206   207
  563     205   202   207   203
  564     173   146   176   175
  565     173   176   204   175
  566     146   176   175   150
  567     176   204   175   206
  568     176   175   150   180
  569     176   175   180   206
  570     204   176   178   206
  571     204   178   205   206
  572     176   178   206   180
  573     178   205   206   207
  574     178   206   180   182
  575     178   206   182   207
  576     178   179   209   182
  577     178   209   208   182
  578     179   209   182   183
  579     209   208   182   212
  580     209   182   183   213
  581     209   182   213   212
  582     208   209   211   212
  583     208   211   210   212
  584     209   211   212   213
  585     211   210   212   214
  586     211   212   213   215
  587     211   212   215   214
  588     179   185   216   183
  589     179   216   209   183
  590     185   216   183   187
  591     216   209   183   213
  592     216   183   187   218
  593     216   183   218   213
  594     209   216   217   213
  595     209   217   211   213
  596     216   217   213   218
  597     217   211   213   215
  598     217   213   218   219
  599     217   213   219   215
  600     185   189   220   187
  601     185   220   216   187
  602     189   220   187   191
  603     220   216   187   218
  604     220   187   191   222
  605     220   187   222   218
  606     216   220   221   218
  607     216   221   217   218
  608     220   221   218   222
  609     221   217   218   219
  610     221   218   222   223
  611     221   218   223   219
  612     189   193   224   191
  613     189   224   220   191
  614     193   224   191   195
  615     224   220   191   222
  616     224   191   195   226
  617     224   191   226   222
  618     220   224   225   222
  619     220   225   221   222
  620     224   225   222   226
  621     225   221   222   223
  622     225   222   226   227
  623     225   222   227   223
  624     193   197   228   195
  625     193   228   224   195
  626     197   228   195   199
  627     228   224   195   226
  628     228   195   199   230
  629     228   195   230   226
  630     224   228   229   226
  631     224   229   225   226
  632     228   229   226   230
  633     229   225   226   227
  634     229   226   230   231
  635     229   226   231   227
  636     197   201   232   199
  637     197   232   228   199
  638     201   232   199   203
  639     232   228   199   230
  640     232   199   203   234
  641     232   199   234   230
  642     228   232   233   230
  643     228   233   229   230
  644     232   233   230   234
  645     233   229   230   231
  646     233   230   234   235
  647     233   230   235   231
  648     201   205   236   203
  649     201   236   232   203
  650     205   236   203   207
  651     236   232   203   234
  652     236   203   207   238
  653     236   203   238   234
  654     232   236   237   234
  655     232   237   233   234
  656     236   237   234   238
  657     237   233   234   235
  658     237   234   238   239
  659     237   234   239   235
  660     205   178   208   207
  661     205   208   236   207
  662     178   208   207   182
  663     208   236   207   238
  664     208   207   182   212
  665     208   207   212   238
  666     236   208   210   238
  667     236   210   237   238
  668     208   210   238   212
  669     210   237   238   239
  670     210   238   212   214
  671     210   238   214   239
  672     210   211   241   214
  673     210   241   240   214
  674     211   241   214   215
  675     241   240   214   244
  676     241   214   215   245
  677     241   214   245   244
  678     240   241   243   244
  679     240   243   242   244
  680     241   243   244   245
  681     243   242   244   246
  682     243   244   245   247
  683     243   244   247   246
  684     211   217   248   215
  685     211   248   241   215
  686     217   248   215   219
  687     248   241   215   245
  688     248   215   219   250
  689     248   215   250   245
  690     241   248   249   245
  691     241   249   243   245
  692     248   249   245   250
  693     249   243   245   247
  694     249   245   250   251
  695     249   245   251   247
  696     217   221   252   219
  697     217   252   248   219
  698     221   252   219   223
  699     252   248   219   250
  700     252   219   223   254
  701     252   219   254   250
  702     248   252   253   250
  703     248   253   249   250
  704     252   253   250   254
  705     253   249   250   251
  706     253   250   254   255
  707     253   250   255   251
  708     221   225   256   223
  709     221   256   252   223
  710     225   256   223   227
  711     256   252   223   254
  712     256   223   227   258
  713     256   223   258   254
  714     252   256   257   254
  715     252   257   253   254
  716     256   257   254   258
  717     257   253   254   255
  718     257   254   258   259
  719     257   254   259   255
  720     225   229   260   227
  721     225   260   256   227
  722     229   260   227   231
  723     260   256   227   258
  724     260   227   231   262
  725     260   227   262   258
  726     256   260   261   258
  727     256   261   257   258
  728     260   261   258   262
  729     261   257   258   259
  730     261   258   262   263
  731     261   258   263   259
  732     229   233   264   231
  733     229   264   260   231
  734     233   264   231   235
  735     264   260   231   262
  736     264   231   235   266
  737     264   231   266   262
  738     260   264   265   262
  739     260   265   261   262
  740     264   265   262   266
  741     265   261   262   263
  742     265   262   266   267
  743     265   262   267   263
  744     233   237   268   235
  745     233   268   264   235
  746     237   268   235   239
  747     268   264   235   266
  748     268   235   239   270
  749     268   235   270   266
  750     264   268   269   266
  751     264   269   265   266
  752     268   269   266   270
  753     269   265   266   267
  754     269   266   270   271
  755     269   266   271   267
  756     237   210   240   239
  757     237   240   268   239
  758     210   240   239   214
  759     240   268   239   270
  760     240   239   214   244
  761     240   239   244   270
  762     268   240   242   270
  763     268   242   269   270
  764     240   242   270   244
  765     242   269   270   271
  766     242   270   244   246
  767     242   270   246   271
  768     242   243   273   246
  769     242   273   272   246
  770     243   273   246   247
  771     273   272   246   276
  772     273   246   247   277
  773     273   246   277   276
  774     272   273   275   276
  775     272   275   274   276
  776     273   275   276   277
  777     275   274   276   278
  778     275   276   277   279
  779     275   276   279   278
  780     243   249   280   247
  781     243   280   273   247
  782     249   280   247   251
  783     280   273   247   277
  784     280   247   251   282
  785     280   247   282   277
  786     273   280   281   277
  787     273   281   275   277
  788     280   281   277   282
  789     281   275   277   279
  790     281   277   282   283
  791     281   277   283   279
  792     249   253   284   251
  793     249   284   280   251
  794     253   284   251   255
  795     284   280   251   282
  796     284   251   255   286
  797     284   251   286   282
  798     280   284   285   282
  799     280   285   281   282
  800     284   285   282   286
  801     285   281   282   283
  802     285   282   286   287
  803     285   282   287   283
  804     253   257   288   255
  805     253   288   284   255
  806     257   288   255   259
  807     288   284   255   286
  808     288   255   259   290
  809     288   255   290   286
  810     284   288   289   286
  811     284   289   285   286
  812     288   289   286   290
  813     289   285   286   287
  814     289   286   290   291
  815     289   286   291   287
  816     257   261   292   259
  817     257   292   288   259
  818     261   292   259   263
  819     292   288   259   290
  820     292   259   263   294
  821     292   259   294   290
  822     288   292   293   290
  823     288   293   289   290
  824     292   293   290   294
  825     293   289   290   291
  826     293   290   294   295
  827     293   290   295   291
  828     261   265   296   263
  829     261   296   292   263
  830     265   296   263   267
  831     296   292   263   294
  832     296   263   267   298
  833     296   263   298   294
  834     292   296   297   294
  835     292   297   293   294
  836     296   297   294   298
  837     297   293   294   295
  838     297   294   298   299
  839     297   294   299   295
  840     265   269   300   267
  841     265   300   296   267
  842     269   300   267   271
  843     300   296   267   298
  844     300   267   271   302
  845     300   267   302   298
  846     296   300   301   298
  847     296   301   297   298
  848     300   301   298   302
  849     301   297   298   299
  850     301   298   302   303
  851     301   298   303   299
  852     269   242   272   271
  853     269   272   300   271
  854     242   272   271   246
  855     272   300   271   302
  856     272   271   246   276
  857     272   271   276   302
  858     300   272   274   302
  859     300   274   301   302
  860     272   274   302   276
  861     274   301   302   303
  862     274   302   276   278
  863     274   302   278   303
  864     274   275   305   278
  865     274   305   304   278
  866     275   305   278   279
  867     305   304   278   308
  868     305   278   279   309
  869     305   278   309   308
  870     304   305   307   308
  871     304   307   306   308
  872     305   307   308   309
  873     307   306   308   310
  874     307   308   309   311
  875     307   308   311   310
  876     275   281   312   279
  877     275   312   305   279
  878     281   312   279   283
  879     312   305   279   309
  880     312   279   283   314
  881     312   279   314   309
  882     305   312   313   309
  883     305   313   307   309
  884     312   313   309   314
  885     313   307   309   311
  886     313   309   314   315
  887     313   309   315   311
  888     281   285   316   283
  889     281   316   312   283
  890     285   316   283   287
  891     316   312   283   314
  892     316   283   287   318
  893     316   283   318   314
  894     312   316   317   314
  895     312   317   313   314
  896     316   317   314   318
  897     317   313   314   315
  898     317   314   318   319
  899     317   314   319   315
  900     285   289   320   287
  901     285   320   316   287
  902     289   320   287   291
  903     320   316   287   318
  904     320   287   291   322
  905     320   287   322   318
  906     316   320   321   318
  907     316   321   317   318
  908     320   321   318   322
  909     321   317   318   319
  910     321   318   322   323
  911     321   318   323   319
  912     289   293   324   291
  913     289   324   320   291
  914     293   324   291   295
  915     324   320   291   322
  916     324   291   295   326
  917     324   291   326   322
  918     320   324   325   322
  919     320   325   321   322
  920     324   325   322   326
  921     325   321   322   323
  922     325   322   326   327
  923     325   322   327   323
  924     293   297   328   295
  925     293   328   324   295
  926     297   328   295   299
  927     328   324   295   326
  928     328   295   299   330
  929     328   295   330   326
  930     324   328   329   326
  931     324   329   325   326
  932     328   329   326   330
  933     329   325   326   327
  934     329   326   330   331
  935     329   326   331   327
  936     297   301   332   299
  937     297   332   328   299
  938     301   332   299   303
  939     332   328   299   330
  940     332   299   303   334
  941     332   299   334   330
  942     328   332   333   330
  943     328   333   329   330
  944     332   333   330   334
  945     333   329   330   331
  946     333   330   334   335
  947     333   330   335   331
  948     301   274   304   303
  949     301   304   332   303
  950     274   304   303   278
  951     304   332   303   334
  952     304   303   278   308
  953     304   303   308   334
  954     332   304   306   334
  955     332   306   333   334
  956     304   306   334   308
  957     306   333   334   335
  958     306   334   308   310
  959     306   334   310   335
  960     336   337   339   342
  961     336   339   338   342
  962     337   339   342   343
  963     339   338   342   344
  964     339   342   343   345
  965     339   342   345   344
  966     338   339   341   344
  967     338   341   340   344
  968     339   341   344   345
  969     341   340   344   346
  970     341   344   345   347
  971     341   344   347   346
  972     337   348   349   343
  973     337   349   339   343
  974     348   349   343   351
  975     349   339   343   345
  976     349   343   351   352
  977     349   343   352   345
  978     339   349   350   345
  979     339   350   341   345
  980     349   350   345   352
  981     350   341   345   347
  982     350   345   352   353
  983     350   345   353   347
  984     348   354   355   351
  985     348   355   349   351
  986     354   355   351   357
  987     355   349   351   352
  988     355   351   357   358
  989     355   351   358   352
  990     349   355   356   352
  991     349   356   350   352
  992     355   356   352   358
  993     356   350   352   353
  994     356   352   358   359
  995     356   352   359   353
  996     354   360   361   357
  997     354   361   355   357
  998     360   361   357   363
  999     361   355   357   358
 1000     361   357   363   364
 1001     361   357   364   358
 1002     355   361   362   358
 1003     355   362   356   358
 1004     361   362   358   364
 1005     362   356   358   359
 1006     362   358   364   365
 1007     362   358   365   359
 1008     360   366   367   363
 1009     360   367   361   363
 1010     366   367   363   369
 1011     367   361   363   364
 1012     367   363   369   370
 1013     367   363   370   364
 1014     361   367   368   364
 1015     361   368   362   364
 1016     367   368   364   370
 1017     368   362   364   365
 1018     368   364   370   371
 1019     368   364   371   365
 1020     366   372   373   369
 1021     366   373   367   369
 1022     372   373   369   375
 1023     373   367   369   370
 1024     373   369   375   376
 1025     373   369   376   370
 1026     367   373   374   370
 1027     367   374   368   370
 1028     373   374   370   376
 1029     374   368   370   371
 1030     374   370   376   377
 1031     374   370   377   371
 1032     372   378   379   375
 1033     372   379   373   375
 1034     378   379   375   381
 1035     379   373   375   376
 1036     379   375   381   382
 1037     379   375   382   376
 1038     373   379   380   376
 1039     373   380   374   376
 1040     379   380   376   382
 1041     380   374   376   377
 1042     380   376   382   383
 1043     380   376   383   377
 1044     378   336   338   381
 1045     378   338   379   381
 1046     336   338   381   342
 1047     338   379   381   382
 1048     338   381   342   344
 1049     338   381   344   382
 1050     379   338   340   382
 1051     379   340   380   382
 1052     338   340   382   344
 1053     340   380   382   383
 1054     340   382   344   346
 1055     340   382   346   383
 1056     340   341   385   346
 1057     340   385   384   346
 1058     341   385   346   347
 1059     385   384   346   388
 1060     385   346   347   389
 1061     385   346   389   388
 1062     384   385   387   388
 1063     384   387   386   388
 1064     385   387   388   389
 1065     387   386   388   390
 1066     387   388   389   391
 1067     387   388   391   390
 1068     341   350   392   347
 1069     341   392   385   347
 1070     350   392   347   353
 1071     392   385   347   389
 1072     392   347   353   394
 1073     392   347   394   389
 1074     385   392   393   389
 1075     385   393   387   389
 1076     392   393   389   394
 1077     393   387   389   391
 1078     393   389   394   395
 1079     393   389   395   391
 1080     350   356   396   353
 1081     350   396   392   353
 1082     356   396   353   359
 1083     396   392   353   394
 1084     396   353   359   398
 1085     396   353   398   394
 1086     392   396   397   394
 1087     392   397   393   394
 1088     396   397   394   398
 1089     397   393   394   395
 1090     397   394   398   399
 1091     397   394   399   395
 1092     356   362   400   359
 1093     356   400   396   359
 1094     362   400   359   365
 1095     400   396   359   398
 1096     400   359   365   402
 1097     400   359   402   398
 1098     396   400   401   398
 1099     396   401   397   398
 1100     400   401   398   402
 1101     401   397   398   399
 1102     401   398   402   403
 1103     401   398   403   399
 1104     362   368   404   365
 1105     362   404   400   365
 1106     368   404   365   371
 1107     404   400   365   402
 1108     404   365   371   406
 1109     404   365   406   402
 1110     400   404   405   402
 1111     400   405   401   402
 1112     404   405   402   406
 1113     405   401   402   403
 1114     405   402   406   407
 1115     405   402   407   403
 1116     368   374   408   371
 1117     368   408   404   371
 1118     374   408   371   377
 1119     408   404   371   406
 1120     408   371   377   410
 1121     408   371   410   406
 1122     404   408   409   406
 1123     404   409   405   406
 1124     408   409   406   410
 1125     409   405   406   407
 1126     409   406   410   411
 1127     409   406   411   407
 1128     374   380   412   377
 1129     374   412   408   377
 1130     380   412   377   383
 1131     412   408   377   410
 1132     412   377   383   414
 1133     412   377   414   410
 1134     408   412   413   410
 1135     408   413   409   410
 1136     412   413   410   414
 1137     413   409   410   411
 1138     413   410   414   415
 1139     413   410   415   411
 1140     380   340   384   383
 1141     380   384   412   383
 1142     340   384   383   346
 1143     384   412   383   414
 1144     384   383   346   388
 1145     384   383   388   414
 1146     412   384   386   414
 1147     412   386   413   414
 1148     384   386   414   388
 1149     386   413   414   415
 1150     386   414   388   390
 1151     386   414   390   415
 1152     386   387   417   390
 1153     386   417   416   390
 1154     387   417   390   391
 1155     417   416   390   420
 1156     417   390   391   421
 1157     417   390   421   420
 1158     416   417   419   420
 1159     416   419   418   420
 1160     417   419   420   421
 1161     419   418   420   422
 1162     419   420   421   423
 1163     419   420   423   422
 1164     387   393   424   391
 1165     387   424   417   391
 1166     393   424   391   395
 1167     424   417   391   421
 1168     424   391   395   426
 1169     424   391   426   421
 1170     417   424   425   421
 1171     417   425   419   421
 1172     424   425   421   426
 1173     425   419   421   423
 1174     425   421   426   427
 1175     425   421   427   423
 1176     393   397   428   395
 1177     393   428   424   395
 1178     397   428   395   399
 1179     428   424   395   426
 1180     428   395   399   430
 1181     428   395   430   426
 1182     424   428   429   426
 1183     424   429   425   426
 1184     428   429   426   430
 1185     429   425   426   427
 1186     429   426   430   431
 1187     429   426   431   427
 1188     397   401   432   399
 1189     397   432   428   399
 1190     401   432   399   403
 1191     432   428   399   430
 1192     432   399   403   434
 1193     432   399   434   430
 1194     428   432   433   430
 1195     428   433   429   430
 1196     432   433   430   434
 1197     433   429   430   431
 1198     433   430   434   435
 1199     433   430   435   431
 1200     401   405   436   403
 1201     401   436   432   403
 1202     405   436   403   407
 1203     436   432   403   434
 1204     436   403   407   438
 1205     436   403   438   434
 1206     432   436   437   434
 1207     432   437   433   434
 1208     436   437   434   438
 1209     437   433   434   435
 1210     437   434   438   439
 1211     437   434   439   435
 1212     405   409   440   407
 1213     405   440   436   407
 1214     409   440   407   411
 1215     440   436   407   438
 1216     440   407   411   442
 1217     440   407   442   438
 1218     436   440   441   438
 1219     436   441   437   438
 1220     440   441   438   442
 1221     441   437   438   439
 1222     441   438   442   443
 1223     441   438   443   439
 1224     409   413   444   411
 1225     409   444   440   411
 1226     413   444   411   415
 1227     444   440   411   442
 1228     444   411   415   446
 1229     444   411   446   442
 1230     440   444   445   442
 1231     440   445   441   442
 1232     444   445   442   446
 1233     445   441   442   443
 1234     445   442   446   447
 1235     445   442   447   443
 1236     413   386   416   415
 1237     413   416   444   415
 1238     386   416   415   390
 1239     416   444   415   446
 1240     416   415   390   420
 1241     416   415   420   446
 1242     444   416   418   446
 1243     444   418   445   446
 1244     416   418   446   420
 1245     418   445   446   447
 1246     418   446   420   422
 1247     418   446   422   447
 1248     418   419   449   422
 1249     418   449   448   422
 1250     419   449   422   423
 1251     449   448   422   452
 1252     449   422   423   453
 1253     449   422   453   452
 1254     448   449   451   452
 1255     448   451   450   452
 1256     449   451   452   453
 1257     451   450   452   454
 1258     451   452   453   455
 1259     451   452   455   454
 1260     419   425   456   423
 1261     419   456   449   423
 1262     425   456   423   427
 1263     456   449   423   453
 1264     456   423   427   458
 1265     456   423   458   453
 1266     449   456   457   453
 1267     449   457   451   453
 1268     456   457   453   458
 1269     457   451   453   455
 1270     457   453   458   459
 1271     457   453   459   455
 1272     425   429   460   427
 1273     425   460   456   427
 1274     429   460   427   431
 1275     460   456   427   458
 1276     460   427   431   462
 1277     460   427   462   458
 1278     456   460   461   458
 1279     456   461   457   458
 1280     460   461   458   462
 1281     461   457   458   459
 1282     461   458   462   463
 1283     461   458   463   459
 1284     429   433   464   431
 1285     429   464   460   431
 1286     433   464   431   435
 1287     464   460   431   462
 1288     464   431   435   466
 1289     464   431   466   462
 1290     460   464   465   462
 1291     460   465   461   462
 1292     464   465   462   466
 1293     465   461   462   463
 1294     465   462   466   467
 1295     465   462   467   463
 1296     433   437   468   435
 1297     433   468   464   435
 1298     437   468   435   439
 1299     468   464   435   466
 1300     468   435   439   470
 1301     468   435   470   466
 1302     464   468   469   466
 1303     464   469   465   466
 1304     468   469   466   470
 1305     469   465   466   467
 1306     469   466   470   471
 1307     469   466   471   467
 1308     437   441   472   439
 1309     437   472   468   439
 1310     441   472   439   443
 1311     472   468   439   470
 1312     472   439   443   474
 1313     472   439   474   470
 1314     468   472   473   470
 1315     468   473   469   470
 1316     472   473   470   474
 1317     473   469   470   471
 1318     473   470   474   475
 1319     473   470   475   471
 1320     441   445   476   443
 1321     441   476   472   443
 1322     445   476   443   447
 1323     476   472   443   474
 1324     476   443   447   478
 1325     476   443   478   474
 1326     472   476   477   474
 1327     472   477   473   474
 1328     476   477   474   478
 1329     477   473   474   475
 1330     477   474   478   479
 1331     477   474   479   475
 1332     445   418   448   447
 1333     445   448   476   447
 1334     418   448   447   422
 1335     448   476   447   478
 1336     448   447   422   452
 1337     448   447   452   478
 1338     476   448   450   478
 1339     476   450   477   478
 1340     448   450   478   452
 1341     450   477   478   479
 1342     450   478   452   454
 1343     450   478   454   479
 1344     450   451   481   454
 1345     450   481   480   454
 1346     451   481   454   455
 1347     481   480   454   484
 1348     481   454   455   485
 1349     481   454   485   484
 1350     480   481   483   484
 1351     480   483   482   484
 1352     481   483   484   485
 1353     483   482   484   486
 1354     483   484   485   487
 1355     483   484   487   486
 1356     451   457   488   455
 1357     451   488   481   455
 1358     457   488   455   459
 1359     488   481   455   485
 1360     488   455   459   490
 1361     488   455   490   485
 1362     481   488   489   485
 1363     481   489   483   485
 1364     488   489   485   490
 1365     489   483   485   487
 1366     489   485   490   491
 1367     489   485   491   487
 1368     457   461   492   459
 1369     457   492   488   459
 1370     461   492   459   463
 1371     492   488   459   490
 1372     492   459   463   494
 1373     492   459   494   490
 1374     488   492   493   490
 1375     488   493   489   490
 1376     492   493   490   494
 1377     493   489   490   491
 1378     493   490   494   495
 1379     493   490   495   491
 1380     461   465   496   463
 1381     461   496   492   463
 1382     465   496   463   467
 1383     496   492   463   494
 1384     496   463   467   498
 1385     496   463   498   494
 1386     492   496   497   494
 1387     492   497   493   494
 1388     496   497   494   498
 1389     497   493   494   495
 1390     497   494   498   499
 1391     497   494   499   495
 1392     465   469   500   467
 1393     465   500   496   467
 1394     469   500   467   471
 1395     500   496   467   498
 1396     500   467   471   502
 1397     500   467   502   498
 1398     496   500   501   498
 1399     496   501   497   498
 1400     500   501   498   502
 1401     501   497   498   499
 1402     501   498   502   503
 1403     501   498   503   499
 1404     469   473   504   471
 1405     469   504   500   471
 1406     473   504   471   475
 1407     504   500   471   502
 1408     504   471   475   506
 1409     504   471   506   502
 1410     500   504   505   502
 1411     500   505   501   502
 1412     504   505   502   506
 1413     505   501   502   503
 1414     505   502   506   507
 1415     505   502   507   503
 1416     473   477   508   475
 1417     473   508   504   475
 1418     477   508   475   479
 1419     508   504   475   506
 1420     508   475   479   510
 1421     508   475   510   506
 1422     504   508   509   506
 1423     504   509   505   506
 1424     508   509   506   510
 1425     509   505   506   507
 1426     509   506   510   511
 1427     509   506   511   507
 1428     477   450   480   479
 1429     477   480   508   479
 1430     450   480   479   454
 1431     480   508   479   510
 1432     480   479   454   484
 1433     480   479   484   510
 1434     508   480   482   510
 1435     508   482   509   510
 1436     480   482   510   484
 1437     482   509   510   511
 1438     482   510   484   486
 1439     482   510   486   511
 1440     482   483   513   486
 1441     482   513   512   486
 1442     483   513   486   487
 1443     513   512   486   516
 1444     513   486   487   517
 1445     513   486   517   516
 1446     512   513   515   516
 1447     512   515   514   516
 1448     513   515   516   517
 1449     515   514   516   518
 1450     515   516   517   519
 1451     515   516   519   518
 1452     483   489   520   487
 1453     483   520   513   487
 1454     489   520   487   491
 1455     520   513   487   517
 1456     520   487   491   522
 1457     520   487   522   517
 1458     513   520   521   517
 1459     513   521   515   517
 1460     520   521   517   522
 1461     521   515   517   519
 1462     521   517   522   523
 1463     521   517   523   519
 1464     489   493   524   491
 1465     489   524   520   491
 1466     493   524   491   495
 1467     524   520   491   522
 1468     524   491   495   526
 1469     524   491   526   522
 1470     520   524   525   522
 1471     520   525   521   522
 1472     524   525   522   526
 1473     525   521   522   523
 1474     525   522   526   527
 1475     525   522   527   523
 1476     493   497   528   495
 1477     493   528   524   495
 1478     497   528   495   499
 1479     528   524   495   526
 1480     528   495   499   530
 1481     528   495   530   526
 1482     524   528   529   526
 1483     524   529   525   526
 1484     528   529   526   530
 1485     529   525   526   527
 1486     529   526   530   531
 1487     529   526   531   527
 1488     497   501   532   499
 1489     497   532   528   499
 1490     501   532   499   503
 1491     532   528   499   530
 1492     532   499   503   534
 1493     532   499   534   530
 1494     528   532   533   530
 1495     528   533   529   530
 1496     532   533   530   534
 1497     533   529   530   531
 1498     533   530   534   535
 1499     533   530   535   531
 1500     501   505   536   503
 1501     501   536   532   503
 1502     505   536   503   507
 1503     536   532   503   534
 1504     536   503   507   538
 1505     536   503   538   534
 1506     532   536   537   534
 1507     532   537   533   534
 1508     536   537   534   538
 1509     537   533   534   535
 1510     537   534   538   539
 1511     537   534   539   535
 1512     505   509   540   507
 1513     505   540   536   507
 1514     509   540   507   511
 1515     540   536   507   538
 1516     540   507   511   542
 1517     540   507   542   538
 1518     536   540   541   538
 1519     536   541   537   538
 1520     540   541   538   542
 1521     541   537   538   539
 1522     541   538   542   543
 1523     541   538   543   539
 1524     509   482   512   511
 1525     509   512   540   511
 1526     482   512   511   486
 1527     512   540   511   542
 1528     512   511   486   516
 1529     512   511   516   542
 1530     540   512   514   542
 1531     540   514   541   542
 1532     512   514   542   516
 1533     514   541   542   543
 1534     514   542   516   518
 1535     514   542   518   543
 1536     514   515   545   518
 1537     514   545   544   518
 1538     515   545   518   519
 1539     545   544   518   548
 1540     545   518   519   549
 1541     545   518   549   548
 1542     544   545   547   548
 1543     544   547   546   548
 1544     545   547   548   549
 1545     547   546   548   550
 1546     547   548   549   551
 1547     547   548   551   550
 1548     515   521   552   519
 1549     515   552   545   519
 1550     521   552   519   523
 1551     552   545   519   549
 1552     552   519   523   554
 1553     552   519   554   549
 1554     545   552   553   549
 1555     545   553   547   549
 1556     552   553   549   554
 1557     553   547   549   551
 1558     553   549   554   555
 1559     553   549   555   551
 1560     521   525   556   523
 1561     521   556   552   523
 1562     525   556   523   527
 1563     556   552   523   554
 1564     556   523   527   558
 1565     556   523   558   554
 1566     552   556   557   554
 1567     552   557   553   554
 1568     556   557   554   558
 1569     557   553   554   555
 1570     557   554   558   559
 1571     557   554   559   555
 1572     525   529   560   527
 1573     525   560   556   527
 1574     529   560   527   531
 1575     560   556   527   558
 1576     560   527   531   562
 1577     560   527   562   558
 1578     556   560   561   558
 1579     556   561   557   558
 1580     560   561   558   562
 1581     561   557   558   559
 1582     561   558   562   563
 1583     561   558   563   559
 1584     529   533   564   531
 1585     529   564   560   531
 1586     533   564   531   535
 1587     564   560   531   562
 1588     564   531   535   566
 1589     564   531   566   562
 1590     560   564   565   562
 1591     560   565   561   562
 1592     564   565   562   566
 1593     565   561   562   563
 1594     565   562   566   567
 1595     565   562   567   563
 1596     533   537   568   535
 1597     533   568   564   535
 1598     537   568   535   539
 1599     568   564   535   566
 1600     568   535   539   570
 1601     568   535   570   566
 1602     564   568   569   566
 1603     564   569   565   566
 1604     568   569   566   570
 1605     569   565   566   567
 1606     569   566   570   571
 1607     569   566   571   567
 1608     537   541   572   539
 1609     537   572   568   539
 1610     541   572   539   543
 1611     572   568   539   570
 1612     572   539   543   574
 1613     572   539   574   570
 1614     568   572   573   570
 1615     568   573   569   570
 1616     572   573   570   574
 1617     573   569   570   571
 1618     573   570   574   575
 1619     573   570   575   571
 1620     541   514   544   543
 1621     541   544   572   543
 1622     514   544   543   518
 1623     544   572   543   574
 1624     544   543   518   548
 1625     544   543   548   574
 1626     572   544   546   574
 1627     572   546   573   574
 1628     544   546   574   548
 1629     546   573   574   575
 1630     546   574   548   550
 1631     546   574   550   575
 1632     546   547   577   550
 1633     546   577   576   550
 1634     547   577   550   551
 1635     577   576   550   580
 1636     577   550   551   581
 1637     577   550   581   580
 1638     576   577   579   580
 1639     576   579   578   580
 1640     577   579   580   581
 1641     579   578   580   582
 1642     579   580   581   583
 1643     579   580   583   582
 1644     547   553   584   551
 1645     547   584   577   551
 1646     553   584   551   555
 1647     584   577   551   581
 1648     584   551   555   586
 1649     584   551   586   581
 1650     577   584   585   581
 1651     577   585   579   581
 1652     584   585   581   586
 1653     585   579   581   583
 1654     585   581   586   587
 1655     585   581   587   583
 1656     553   557   588   555
 1657     553   588   584   555
 1658     557   588   555   559
 1659     588   584   555   586
 1660     588   555   559   590
 1661     588   555   590   586
 1662     584   588   589   586
 1663     584   589   585   586
 1664     588   589   586   590
 1665     589   585   586   587
 1666     589   586   590   591
 1667     589   586   591   587
 1668     557   561   592   559
 1669     557   592   588   559
 1670     561   592   559   563
 1671     592   588   559   590
 1672     592   559   563   594
 1673     592   559   594   590
 1674     588   592   593   590
 1675     588   593   589   590
 1676     592   593   590   594
 1677     593   589   590   591
 1678     593   590   594   595
 1679     593   590   595   591
 1680     561   565   596   563
 1681     561   596   592   563
 1682     565   596   563   567
 1683     596   592   563   594
 1684     596   563   567   598
 1685     596   563   598   594
 1686     592   596   597   594
 1687     592   597   593   594
 1688     596   597   594   598
 1689     597   593   594   595
 1690     597   594   598   599
 1691     597   594   599   595
 1692     565   569   600   567
 1693     565   600   596   567
 1694     569   600   567   571
 1695     600   596   567   598
 1696     600   567   571   602
 1697     600   567   602   598
 1698     596   600   601   598
 1699     596   601   597   598
 1700     600   601   598   602
 1701     601   597   598   599
 1702     601   598   602   603
 1703     601   598   603   599
 1704     569   573   604   571
 1705     569   604   600   571
 1706     573   604   571   575
 1707     604   600   571   602
 1708     604   571   575   606
 1709     604   571   606   602
 1710     600   604   605   602
 1711     600   605   601   602
 1712     604   605   602   606
 1713     605   601   602   603
 1714     605   602   606   607
 1715     605   602   607   603
 1716     573   546   576   575
 1717     573   576   604   575
 1718     546   576   575   550
 1719     576   604   575   606
 1720     576   575   550   580
 1721     576   575   580   606
 1722     604   576   578   606
 1723     604   578   605   606
 1724     576   578   606   580
 1725     578   605   606   607
 1726     578   606   580   582
 1727     578   606   582   607
 1728     578   579   609   582
 1729     578   609   608   582
 1730     579   609   582   583
 1731     609   608   582   612
 1732     609   582   583   613
 1733     609   582   613   612
 1734     608   609   611   612
 1735     608   611   610   612
 1736     609   611   612   613
 1737     611   610   612   614
 1738     611   612   613   615
 1739     611   612   615   614
 1740     579   585   616   583
 1741     579   616   609   583
 1742     585   616   583   587
 1743     616   609   583   613
 1744     616   583   587   618
 1745     616   583   618   613
 1746     609   616   617   613
 1747     609   617   611   613
 1748     616   617   613   618
 1749     617   611   613   615
 1750     617   613   618   619
 1751     617   613   619   615
 1752     585   589   620   587
 1753     585   620   616   587
 1754     589   620   587   591
 1755     620   616   587   618
 1756     620   587   591   622
 1757     620   587   622   618
 1758     616   620   621   618
 1759     616   621   617   618
 1760     620   621   618   622
 1761     621   617   618   619
 1762     621   618   622   623
 1763     621   618   623   619
 1764     589   593   624   591
 1765     589   624   620   591
 1766     593   624   591   595
 1767     624   620   591   622
 1768     624   591   595   626
 1769     624   591   626   622
 1770     620   624   625   622
 1771     620   625   621   622
 1772     624   625   622   626
 1773     625   621   622   623
 1774     625   622   626   627
 1775     625   622   627   623
 1776     593   597   628   595
 1777     593   628   624   595
 1778     597   628   595   599
 1779     628   624   595   626
 1780     628   595   599   630
 1781     628   595   630   626
 1782     624   628   629   626
 1783     624   629   625   626
 1784     628   629   626   630
 1785     629   625   626   627
 1786     629   626   630   631
 1787     629   626   631   627
 1788     597   601   632   599
 1789     597   632   628   599
 1790     601   632   599   603
 1791     632   628   599   630
 1792     632   599   603   634
 1793     632   599   634   630
 1794     628   632   633   630
 1795     628   633   629   630
 1796     632   633   630   634
 1797     633   629   630   631
 1798     633   630   634   635
 1799     633   630   635   631
 1800     601   605   636   603
 1801     601   636   632   603
 1802     605   636   603   607
 1803     636   632   603   634
 1804     636   603   607   638
 1805     636   603   638   634
 1806     632   636   637   634
 1807     632   637   633   634
 1808     636   637   634   638
 1809     637   633   634   635
 1810     637   634   638   639
 1811     637   634   639   635
 1812     605   578   608   607
 1813     605   608   636   607
 1814     578   608   607   582
 1815     608   636   607   638
 1816     608   607   582   612
 1817     608   607   612   638
 1818     636   608   610   638
 1819     636   610   637   638
 1820     608   610   638   612
 1821     610   637   638   639
 1822     610   638   612   614
 1823     610   638   614   639
 1824     610   611   641   614
 1825     610   641   640   614
 1826     611   641   614   615
 1827     641   640   614   644
 1828     641   614   615   645
 1829     641   614   645   644
 1830     640   641   643   644
 1831     640   643   642   644
 1832     641   643   644   645
 1833     643   642   644   646
 1834     643   644   645   647
 1835     643   644   647   646
 1836     611   617   648   615
 1837     611   648   641   615
 1838     617   648   615   619
 1839     648   641   615   645
 1840     648   615   619   650
 1841     648   615   650   645
 1842     641   648   649   645
 1843     641   649   643   645
 1844     648   649   645   650
 1845     649   643   645   647
 1846     649   645   650   651
 1847     649   645   651   647
 1848     617   621   652   619
 1849     617   652   648   619
 1850     621   652   619   623
 1851     652   648   619   650
 1852     652   619   623   654
 1853     652   619   654   650
 1854     648   652   653   650
 1855     648   653   649   650
 1856     652   653   650   654
 1857     653   649   650   651
 1858     653   650   654   655
 1859     653   650   655   651
 1860     621   625   656   623
 1861     621   656   652   623
 1862     625   656   623   627
 1863     656   652   623   654
 1864     656   623   627   658
 1865     656   623   658   654
 1866     652   656   657   654
 1867     652   657   653   654
 1868     656   657   654   658
 1869     657   653   654   655
 1870     657   654   658   659
 1871     657   654   659   655
 1872     625   629   660   627
 1873     625   660   656   627
 1874     629   660   627   631
 1875     660   656   627   658
 1876     660   627   631   662
 1877     660   627   662   658
 1878     656   660   661   658
 1879     656   661   657   658
 1880     660   661   658   662
 1881     661   657   658   659
 1882     661   658   662   663
 1883     661   658   663   659
 1884     629   633   664   631
 1885     629   664   660   631
 1886     633   664   631   635
 1887     664   660   631   662
 1888     664   631   635   666
 1889     664   631   666   662
 1890     660   664   665   662
 1891     660   665   661   662
 1892     664   665   662   666
 1893     665   661   662   663
 1894     665   662   666   667
 1895     665   662   667   663
 1896     633   637   668   635
 1897     633   668   664   635
 1898     637   668   635   639
 1899     668   664   635   666
 1900     668   635   639   670
 1901     668   635   670   666
 1902     664   668   669   666
 1903     664   669   665   666
 1904     668   669   666   670
 1905     669   665   666   667
 1906     669   666   670   671
 1907     669   666   671   667
 1908     637   610   640   639
 1909     637   640   668   639
 1910     610   640   639   614
 1911     640   668   639   670
 1912     640   639   614   644
 1913     640   639   644   670
 1914     668   640   642   670
 1915     668   642   669   670
 1916     640   642   670   644
 1917     642   669   670   671
 1918     642   670   644   646
 1919     642   670   646   671
 1920     306   307   673   310
 1921     306   673   672   310
 1922     307   673   310   311
 1923     673   672   310   676
 1924     673   310   311   677
 1925     673   310   677   676
 1926     672   673   675   676
 1927     672   675   674   676
 1928     673   675   676   677
 1929     675   674   676   678
 1930     675   676   677   679
 1931     675   676   679   678
 1932     307   313   680   311
 1933     307   680   673   311
 1934     313   680   311   315
 1935     680   673   311   677
 1936     680   311   315   682
 1937     680   311   682   677
 1938     673   680   681   677
 1939     673   681   675   677
 1940     680   681   677   682
 1941     681   675   677   679
 1942     681   677   682   683
 1943     681   677   683   679
 1944     313   317   684   315
 1945     313   684   680   315
 1946     317   684   315   319
 1947     684   680   315   682
 1948     684   315   319   686
 1949     684   315   686   682
 1950     680   684   685   682
 1951     680   685   681   682
 1952     684   685   682   686
 1953     685   681   682   683
 1954     685   682   686   687
 1955     685   682   687   683
 1956     317   321   688   319
 1957     317   688   684   319
 1958     321   688   319   323
 1959     688   684   319   686
 1960     688   319   323   690
 1961     688   319   690   686
 1962     684   688   689   686
 1963     684   689   685   686
 1964     688   689   686   690
 1965     689   685   686   687
 1966     689   686   690   691
 1967     689   686   691   687
 1968     321   325   692   323
 1969     321   692   688   323
 1970     325   692   323   327
 1971     692   688   323   690
 1972     692   323   327   694
 1973     692   323   694   690
 1974     688   692   693   690
 1975     688   693   689   690
 1976     692   693   690   694
 1977     693   689   690   691
 1978     693   690   694   695
 1979     693   690   695   691
 1980     325   329   696   327
 1981     325   696   692   327
 1982     329   696   327   331
 1983     696   692   327   694
 1984     696   327   331   698
 1985     696   327   698   694
 1986     692   696   697   694
 1987     692   697   693   694
 1988     696   697   694   698
 1989     697   693   694   695
 1990     697   694   698   699
 1991     697   694   699   695
 1992     329   333   700   331
 1993     329   700   696   331
 1994     333   700   331   335
 1995     700   696   331   698
 1996     700   331   335   702
 1997     700   331   702   698
 1998     696   700   701   698
 1999     696   701   697   698
 2000     700   701   698   702
 2001     701   697   698   699
 2002     701   698   702   703
 2003     701   698   703   699
 2004     333   306   672   335
 2005     333   672   700   335
 2006     306   672   335   310
 2007     672   700   335   702
 2008     672   335   310   676
 2009     672   335   676   702
 2010     700   672   674   702
 2011     700   674   701   702
 2012     672   674   702   676
 2013     674   701   702   703
 2014     674   702   676   678
 2015     674   702   678   703
 2016     642   643   705   646
 2017     642   705   704   646
 2018     643   705   646   647
 2019     705   704   646   708
 2020     705   646   647   709
 2021     705   646   709   708
 2022     704   705   707   708
 2023     704   707   706   708
 2024     705   707   708   709
 2025     707   706   708   678
 2026     707   708   709   703
 2027     707   708   703   678
 2028     643   649   710   647
 2029     643   710   705   647
 2030     649   710   647   651
 2031     710   705   647   709
 2032     710   647   651   712
 2033     710   647   712   709
 2034     705   710   711   709
 2035     705   711   707   709
 2036     710   711   709   712
 2037     711   707   709   703
 2038     711   709   712   699
 2039     711   709   699   703
 2040     649   653   713   651
 2041     649   713   710   651
 2042     653   713   651   655
 2043     713   710   651   712
 2044     713   651   655   715
 2045     713   651   715   712
 2046     710   713   714   712
 2047     710   714   711   712
 2048     713   714   712   715
 2049     714   711   712   699
 2050     714   712   715   695
 2051     714   712   695   699
 2052     653   657   716   655
 2053     653   716   713   655
 2054     657   716   655   659
 2055     716   713   655   715
 2056     716   655   659   718
 2057     716   655   718   715
 2058     713   716   717   715
 2059     713   717   714   715
 2060     716   717   715   718
 2061     717   714   715   695
 2062     717   715   718   691
 2063     717   715   691   695
 2064     657   661   719   659
 2065     657   719   716   659
 2066     661   719   659   663
 2067     719   716   659   718
 2068     719   659   663   721
 2069     719   659   721   718
 2070     716   719   720   718
 2071     716   720   717   718
 2072     719   720   718   721
 2073     720   717   718   691
 2074     720   718   721   722
 2075     720   718   722   691
 2076     661   665   723   663
 2077     661   723   719   663
 2078     665   723   663   667
 2079     723   719   663   721
 2080     723   663   667   725
 2081     723   663   725   721
 2082     719   723   724   721
 2083     719   724   720   721
 2084     723   724   721   725
 2085     724   720   721   722
 2086     724   721   725   726
 2087     724   721   726   722
 2088     665   669   727   667
 2089     665   727   723   667
 2090     669   727   667   671
 2091     727   723   667   725
 2092     727   667   671   729
 2093     727   667   729   725
 2094     723   727   728   725
 2095     723   728   724   725
 2096     727   728   725   729
 2097     728   724   725   726
 2098     728   725   729   730
 2099     728   725   730   726
 2100     669   642   704   671
 2101     669   704   727   671
 2102     642   704   671   646
 2103     704   727   671   729
 2104     704   671   646   708
 2105     704   671   708   729
 2106     727   704   706   729
 2107     727   706   728   729
 2108     704   706   729   708
 2109     706   728   729   730
 2110     706   729   708   678
 2111     706   729   678   730
 2112     674   675   732   678
 2113     674   732   731   678
 2114     675   732   678   679
 2115     732   731   678   735
 2116     732   678   679   736
 2117     732   678   736   735
 2118     731   732   734   735
 2119     731   734   733   735
 2120     732   734   735   736
 2121     734   733   735   737
 2122     734   735   736   738
 2123     734   735   738   737
 2124     675   681   739   679
 2125     675   739   732   679
 2126     681   739   679   683
 2127     739   732   679   736
 2128     739   679   683   741
 2129     739   679   741   736
 2130     732   739   740   736
 2131     732   740   734   736
 2132     739   740   736   741
 2133     740   734   736   738
 2134     740   736   741   742
 2135     740   736   742   738
 2136     681   685   743   683
 2137     681   743   739   683
 2138     685   743   683   687
 2139     743   739   683   741
 2140     743   683   687   745
 2141     743   683   745   741
 2142     739   743   744   741
 2143     739   744   740   741
 2144     743   744   741   745
 2145     744   740   741   742
 2146     744   741   745   746
 2147     744   741   746   742
 2148     685   689   747   687
 2149     685   747   743   687
 2150     689   747   687   691
 2151     747   743   687   745
 2152     747   687   691   749
 2153     747   687   749   745
 2154     743   747   748   745
 2155     743   748   744   745
 2156     747   748   745   749
 2157     748   744   745   746
 2158     748   745   749   750
 2159     748   745   750   746
 2160     689   693   751   691
 2161     689   751   747   691
 2162     693   751   691   695
 2163     751   747   691   749
 2164     751   691   695   753
 2165     751   691   753   749
 2166     747   751   752   749
 2167     747   752   748   749
 2168     751   752   749   753
 2169     752   748   749   750
 2170     752   749   753   754
 2171     752   749   754   750
 2172     693   697   755   695
 2173     693   755   751   695
 2174     697   755   695   699
 2175     755   751   695   753
 2176     755   695   699   757
 2177     755   695   757   753
 2178     751   755   756   753
 2179     751   756   752   753
 2180     755   756   753   757
 2181     756   752   753   754
 2182     756   753   757   758
 2183     756   753   758   754
 2184     697   701   759   699
 2185     697   759   755   699
 2186     701   759   699   703
 2187     759   755   699   757
 2188     759   699   703   761
 2189     759   699   761   757
 2190     755   759   760   757
 2191     755   760   756   757
 2192     759   760   757   761
 2193     760   756   757   758
 2194     760   757   761   762
 2195     760   757   762   758
 2196     701   674   731   703
 2197     701   731   759   703
 2198     674   731   703   678
 2199     731   759   703   761
 2200     731   703   678   735
 2201     731   703   735   761
 2202     759   731   733   761
 2203     759   733   760   761
 2204     731   733   761   735
 2205     733   760   761   762
 2206     733   761   735   737
 2207     733   761   737   762
 2208     706   707   764   678
 2209     706   764   763   678
 2210     707   764   678   703
 2211     764   763   678   735
 2212     764   678   703   761
 2213     764   678   761   735
 2214     763   764   766   735
 2215     763   766   765   735
 2216     764   766   735   761
 2217     766   765   735   737
 2218     766   735   761   762
 2219     766   735   762   737
 2220     707   711   767   703
 2221     707   767   764   703
 2222     711   767   703   699
 2223     767   764   703   761
 2224     767   703   699   757
 2225     767   703   757   761
 2226     764   767   768   761
 2227     764   768   766   761
 2228     767   768   761   757
 2229     768   766   761   762
 2230     768   761   757   758
 2231     768   761   758   762
 2232     711   714   769   699
 2233     711   769   767   699
 2234     714   769   699   695
 2235     769   767   699   757
 2236     769   699   695   753
 2237     769   699   753   757
 2238     767   769   770   757
 2239     767   770   768   757
 2240     769   770   757   753
 2241     770   768   757   758
 2242     770   757   753   754
 2243     770   757   754   758
 2244     714   717   771   695
 2245     714   771   769   695
 2246     717   771   695   691
 2247     771   769   695   753
 2248     771   695   691   749
 2249     771   695   749   753
 2250     769   771   772   753
 2251     769   772   770   753
 2252     771   772   753   749
 2253     772   770   753   754
 2254     772   753   749   750
 2255     772   753   750   754
 2256     717   720   773   691
 2257     717   773   771   691
 2258     720   773   691   722
 2259     773   771   691   749
 2260     773   691   722   775
 2261     773   691   775   749
 2262     771   773   774   749
 2263     771   774   772   749
 2264     773   774   749   775
 2265     774   772   749   750
 2266     774   749   775   776
 2267     774   749   776   750
 2268     720   724   777   722
 2269     720   777   773   722
 2270     724   777   722   726
 2271     777   773   722   775
 2272     777   722   726   779
 2273     777   722   779   775
 2274     773   777   778   775
 2275     773   778   774   775
 2276     777   778   775   779
 2277     778   774   775   776
 2278     778   775   779   780
 2279     778   775   780   776
 2280     724   728   781   726
 2281     724   781   777   726
 2282     728   781   726   730
 2283     781   777   726   779
 2284     781   726   730   783
 2285     781   726   783   779
 2286     777   781   782   779
 2287     777   782   778   779
 2288     781   782   779   783
 2289     782   778   779   780
 2290     782   779   783   784
 2291     782   779   784   780
 2292     728   706   763   730
 2293     728   763   781   730
 2294     706   763   730   678
 2295     763   781   730   783
 2296     763   730   678   735
 2297     763   730   735   783
 2298     781   763   765   783
 2299     781   765   782   783
 2300     763   765   783   735
 2301     765   782   783   784
 2302     765   783   735   737
 2303     765   783   737   784
 2304     733   734   786   737
 2305     733   786   785   737
 2306     734   786   737   738
 2307     786   785   737   789
 2308     786   737   738   790
 2309     786   737   790   789
 2310     785   786   788   789
 2311     785   788   787   789
 2312     786   788   789   790
 2313     788   787   789   791
 2314     788   789   790   792
 2315     788   789   792   791
 2316     734   740   793   738
 2317     734   793   786   738
 2318     740   793   738   742
 2319     793   786   738   790
 2320     793   738   742   795
 2321     793   738   795   790
 2322     786   793   794   790
 2323     786   794   788   790
 2324     793   794   790   795
 2325     794   788   790   792
 2326     794   790   795   796
 2327     794   790   796   792
 2328     740   744   797   742
 2329     740   797   793   742
 2330     744   797   742   746
 2331     797   793   742   795
 2332     797   742   746   799
 2333     797   742   799   795
 2334     793   797   798   795
 2335     793   798   794   795
 2336     797   798   795   799
 2337     798   794   795   796
 2338     798   795   799   800
 2339     798   795   800   796
 2340     744   748   801   746
 2341     744   801   797   746
 2342     748   801   746   750
 2343     801   797   746   799
 2344     801   746   750   803
 2345     801   746   803   799
 2346     797   801   802   799
 2347     797   802   798   799
 2348     801   802   799   803
 2349     802   798   799   800
 2350     802   799   803   804
 2351     802   799   804   800
 2352     748   752   805   750
 2353     748   805   801   750
 2354     752   805   750   754
 2355     805   801   750   803
 2356     805   750   754   807
 2357     805   750   807   803
 2358     801   805   806   803
 2359     801   806   802   803
 2360     805   806   803   807
 2361     806   802   803   804
 2362     806   803   807   808
 2363     806   803   808   804
 2364     752   756   809   754
 2365     752   809   805   754
 2366     756   809   754   758
 2367     809   805   754   807
 2368     809   754   758   811
 2369     809   754   811   807
 2370     805   809   810   807
 2371     805   810   806   807
 2372     809   810   807   811
 2373     810   806   807   808
 2374     810   807   811   812
 2375     810   807   812   808
 2376     756   760   813   758
 2377     756   813   809   758
 2378     760   813   758   762
 2379     813   809   758   811
 2380     813   758   762   815
 2381     813   758   815   811
 2382     809   813   814   811
 2383     809   814   810   811
 2384     813   814   811   815
 2385     814   810   811   812
 2386     814   811   815   816
 2387     814   811   816   812
 2388     760   733   785   762
 2389     760   785   813   762
 2390     733   785   762   737
 2391     785   813   762   815
 2392     785   762   737   789
 2393     785   762   789   815
 2394     813   785   787   815
 2395     813   787   814   815
 2396     785   787   815   789
 2397     787   814   815   816
 2398     787   815   789   791
 2399     787   815   791   816
 2400     765   766   818   737
 2401     765   818   817   737
 2402     766   818   737   762
 2403     818   817   737   789
 2404     818   737   762   815
 2405     818   737   815   789
 2406     817   818   820   789
 2407     817   820   819   789
 2408     818   820   789   815
 2409     820   819   789   791
 2410     820   789   815   816
 2411     820   789   816   791
 2412     766   768   821   762
 2413     766   821   818   762
 2414     768   821   762   758
 2415     821   818   762   815
 2416     821   762   758   811
 2417     821   762   811   815
 2418     818   821   822   815
 2419     818   822   820   815
 2420     821   822   815   811
 2421     822   820   815   816
 2422     822   815   811   812
 2423     822   815   812   816
 2424     768   770   823   758
 2425     768   823   821   758
 2426     770   823   758   754
 2427     823   821   758   811
 2428     823   758   754   807
 2429     823   758   807   811
 2430     821   823   824   811
 2431     821   824   822   811
 2432     823   824   811   807
 2433     824   822   811   812
 2434     824   811   807   808
 2435     824   811   808   812
 2436     770   772   825   754
 2437     770   825   823   754
 2438     772   825   754   750
 2439     825   823   754   807
 2440     825   754   750   803
 2441     825   754   803   807
 2442     823   825   826   807
 2443     823   826   824   807
 2444     825   826   807   803
 2445     826   824   807   808
 2446     826   807   803   804
 2447     826   807   804   808
 2448     772   774   827   750
 2449     772   827   825   750
 2450     774   827   750   776
 2451     827   825   750   803
 2452     827   750   776   829
 2453     827   750   829   803
 2454     825   827   828   803
 2455     825   828   826   803
 2456     827   828   803   829
 2457     828   826   803   804
 2458     828   803   829   830
 2459     828   803   830   804
 2460     774   778   831   776
 2461     774   831   827   776
 2462     778   831   776   780
 2463     831   827   776   829
 2464     831   776   780   833
 2465     831   776   833   829
 2466     827   831   832   829
 2467     827   832   828   829
 2468     831   832   829   833
 2469     832   828   829   830
 2470     832   829   833   834
 2471     832   829   834   830
 2472     778   782   835   780
 2473     778   835   831   780
 2474     782   835   780   784
 2475     835   831   780   833
 2476     835   780   784   837
 2477     835   780   837   833
 2478     831   835   836   833
 2479     831   836   832   833
 2480     835   836   833   837
 2481     836   832   833   834
 2482     836   833   837   838
 2483     836   833   838   834
 2484     782   765   817   784
 2485     782   817   835   784
 2486     765   817   784   737
 2487     817   835   784   837
 2488     817   784   737   789
 2489     817   784   789   837
 2490     835   817   819   837
 2491     835   819   836   837
 2492     817   819   837   789
 2493     819   836   837   838
 2494     819   837   789   791
 2495     819   837   791   838
# Generated by tetgen uterus_scaffold_1.ele 
