839  3  0  0
   0    25.123550550356381  1.1327639966018614  43.604164093320392
   1    25.819592050118803  0.86377747285684614  43.570635322712882
   2    25.058623335222638  0.99672898545558175  41.188890695130091
   3    25.776895811989547  0.75665123615548913  41.123971041801205
   4    24.876648652230458  0.8876456092893481  38.778778503989606
   5    25.616158320361961  0.66375993316927417  38.680090330181272
   6    25.09  2.3300000000000001  43.530000000000001
   7    26.678963778810967  1.7006507068272576  43.537117831927681
   8    25.025542027160821  2.1948179125694036  41.129825826780291
   9    26.60507614642156  1.6212798981992109  41.054748339933951
  10    24.844722086111162  2.0863907301162663  38.734159789648103
  11    26.411625350987318  1.5564384971660314  38.578320076330492
  12    26.070654422665054  0.12420894256297033  43.519662645582144
  13    26.046132237287516  0.10683887247933241  41.065087296474779
  14    25.893734750789342  0.09027587386002156  38.612480663246025
  15    27.269977878694661  0.089429065555127307  43.539999999699802
  16    27.244983493261433  0.077962737497704077  41.021665364107442
  17    27.088952973560527  0.067335427582881635  38.507947721643333
  18    25.69295173616408  -0.73544403460578722  43.556942652670294
  19    25.668065567431942  -0.64825173551036774  41.113063008822508
  20    25.523341114553119  -0.57380298210148806  38.671369837474678
  21    26.551704702911977  -1.5733880540142686  43.537114328503364
  22    26.498766076976633  -1.5115404666576058  41.056175703583577
  23    26.324344756560304  -1.462692407448964  38.580437142602015
  24    24.874962996464724  -1.1327893804809854  43.603675543136319
  25    24.847085362430839  -0.99717743418804128  41.194201437895764
  26    24.699319567285468  -0.88821282835888793  38.788136327485532
  27    24.908808207620957  -2.3300469310393561  43.529994749758671
  28    24.875229614402659  -2.1952478216723788  41.132551108798275
  29    24.722338921163495  -2.0869574151085981  38.738321419222125
  30    24.17964278033331  -0.86346020017840486  43.566805332270455
  31    24.126939104958318  -0.75670742556657211  41.200690068126747
  32    23.955942958536209  -0.66459336869953378  38.841406315314345
  33    23.320206498309911  -1.6997853153297315  43.522878359817177
  34    23.29542468747297  -1.6210724014065854  41.203412061210315
  35    23.154587849120237  -1.5566128906613428  38.887570815221963
  36    23.929502257535813  -0.12359809526812515  43.50952971589119
  37    23.854294854484859  -0.10637834871331331  41.167610663751383
  38    23.671952225357039  -0.090041344287230318  38.833864247308419
  39    22.73007004216209  -0.088204115382841675  43.520000002970313
  40    22.656521436370941  -0.076812179730859229  41.234209253730569
  41    22.478229965693679  -0.066271306188904033  38.954122935447259
  42    24.307384064482505  0.73608346463983199  43.552432648877826
  43    24.235580530066382  0.64869677405808523  41.1847785100462
  44    24.047402333627083  0.57458299266822499  38.824941682568479
  45    23.449050318192306  1.5741707781501879  43.522888869288678
  46    23.403519122642994  1.5125104055277894  41.200813143922211
  47    23.243732837909988  1.463794706891365  38.883404225636582
  48    24.581293748665143  0.80457056611759858  36.378478326510866
  49    25.330465532331051  0.59769334482203595  36.242105421627556
  50    24.179686966304466  0.74665886309583862  33.994035919650585
  51    24.936996422382286  0.54502591904951503  33.817976754034078
  52    24.55272442819739  2.0038304197981769  36.34766993019965
  53    26.103900117919462  1.5056549674781543  36.112386273433394
  54    24.154865407037832  1.9462622970631529  33.975719495070393
  55    25.687319213520379  1.4684662398308939  33.662176615864034
  56    25.618712193497583  0.075763700389747363  36.167163338172088
  57    25.226403376674003  0.062046960630424586  33.735611179091052
  58    26.807464781279343  0.057537520024619634  36.004306513338335
  59    26.406238427081831  0.048562030642345641  33.516962121255396
  60    25.253248050970026  -0.52310855800952738  36.235212678022144
  61    24.873367635006311  -0.48440437947187265  33.812663569480975
  62    26.033628235572198  -1.4264244294667938  36.114666091668141
  63    25.631930268943826  -1.402322120748793  33.664306733970378
  64    24.435787252495196  -0.80511581331634019  36.389794384904505
  65    24.062788054038812  -0.74704673607942595  34.006314407103623
  66    24.455180760393212  -2.0043605557740642  36.352322872931019
  67    24.078926611757112  -1.9466555491796462  33.980271318057561
  68    23.682755927651744  -0.59843921984674686  36.494165074404293
  69    23.301985169799387  -0.54594959315007785  34.163098632020379
  70    22.902674066659817  -1.5059667232982445  36.580061397560364
  71    22.54478341982033  -1.4687029988726303  34.286271932926688
  72    23.387521394145224  -0.075642287997801677  36.512456500657848
  73    23.005912077808393  -0.06208474612136694  34.206256055618169
  74    22.199903602632414  -0.056563847887973841  36.683420152155065
  75    21.82635910702038  -0.047674358392759755  34.426363142806949
  76    23.757887232335854  0.52376466133375554  36.477887900350105
  77    23.362958906121811  0.48524643885567104  34.147562533226065
  78    22.974801111315564  1.4275789155127832  36.575118648749381
  79    22.601959810840366  1.403423717123039  34.281094786462297
  80    23.674878228921738  0.7127006905475346  31.62709249605382
  81    24.424841959663866  0.51869507726119435  31.411307262626032
  82    23.080122894524443  0.7106255825912382  29.276015753640763
  83    23.820429329220236  0.50854121377290129  29.020700214478104
  84    23.656072894749638  1.9125383419212456  31.621990322339347
  85    25.167009251311274  1.4443142269586255  31.231249254104746
  86    23.068924391654395  1.9105100226552443  29.288341500099058
  87    24.554726755703712  1.4365227453224758  28.821558138154209
  88    24.721888077760305  0.050847073736407261  31.321676230970791
  89    24.112525005427472  0.039943937714916181  28.928658458754164
  90    25.890818695742688  0.040402923598611917  31.050557194345931
  91    25.269051774496599  0.032557499868111829  28.6086720950413
  92    24.37424921551311  -0.46943316305614946  31.407232588265721
  93    23.780208388433316  -0.46989386440037717  29.017974149476899
  94    25.124259587150458  -1.3898612259371119  31.23316651005824
  95    24.521884233957572  -1.3929938629175111  28.82354335741006
  96    23.583051932300073  -0.71289219585626218  31.639161410594042
  97    23.009134454289551  -0.71055410950896114  29.287723725698662
  98    23.598346338842472  -1.9127206602005593  31.626251929260032
  99    23.025228364696744  -1.9104360797587834  29.29264749632814
 100    22.832706778973094  -0.51887970522553284  31.850375924129942
 101    22.273765864207359  -0.50809290633617676  29.560044791319207
 102    22.08550883028256  -1.4442154435824139  32.00990511808245
 103    21.537388492135683  -1.4357410782162017  29.752962481302585
 104    22.532289570227743  -0.050929052294290768  31.921518274124946
 105    21.984597854134449  -0.040126516448833527  29.662628900492329
 106    21.361714434074845  -0.039597441164133551  32.185467089091603
 107    20.822342707328129  -0.031835081287015975  29.961115459360638
 108    22.880496359999828  0.46973088224923659  31.836048453755517
 109    22.311184534603196  0.46974140679160242  29.546761885450611
 110    22.129954043428221  1.3907217131973333  32.004743412723386
 111    21.571833766335178  1.3933081346843654  29.747721932701449
 112    22.402636517429052  0.74477827305327016  26.950149680935276
 113    23.112619586786959  0.53338368685198168  26.661156403645347
 114    21.634529156322309  0.80164950310936489  24.661350415605334
 115    22.312480233428733  0.57035392222092074  24.338916265753284
 116    22.40038092846811  1.9444964744101385  26.976117615844061
 117    23.856783135405756  1.4468308700866306  26.434632490710214
 118    21.639343107716574  2.0012154216393752  24.693263312265266
 119    23.063199886335365  1.4694401197837934  24.078025460833189
 120    23.403795371140337  0.031094475920551215  26.563812022859466
 121    22.593248306185298  0.023072553758942627  24.234996478761857
 122    24.545646698904608  0.024767681869801564  26.194877277801698
 123    23.7173751077367  0.017814652125560604  23.815102100966293
 124    23.081549246586651  -0.50367780210573421  26.659796180752149
 125    22.288610607233355  -0.54823305020724067  24.339382878303354
 126    23.83101311493758  -1.4138212353547235  26.437262871089395
 127    23.042479641138446  -1.445615182610192  24.081726540980377
 128    22.348010693369108  -0.74453423288837195  26.961553902526656
 129    21.593164551428142  -0.8013484786267514  24.672951929813848
 130    22.366352054357577  -1.9442411653148597  26.981294775190907
 131    21.611926831596517  -2.0008985274712701  24.699927050944073
 132    21.649939400226003  -0.53155366801791626  27.284485343638686
 133    20.931152637737359  -0.56765372614818788  25.034715925587697
 134    20.907653886640276  -1.445190909176411  27.516462042579864
 135    20.185384400229161  -1.4670622696553541  25.308383621507883
 136    21.369086102844417  -0.03127615018894777  27.415612203822256
 137    20.665421724585816  -0.023169591873414219  25.182053731075204
 138    20.217246456527988  -0.024091746698369387  27.752035573219704
 139    19.529085110152657  -0.017115456552859398  25.567673292487896
 140    21.678391237533976  0.50232316045652969  27.272351961498401
 141    20.952756440743215  0.54618382405630306  25.023558190537255
 142    20.934918791180376  1.4134023019965347  27.510730601987866
 143    20.207468404825899  1.4445729958250468  25.301843367230294
 144    20.766911188402517  0.86733138480404803  22.418805343297333
 145    21.410367662492334  0.61610815696587973  22.065489673229287
 146    19.78742975828046  0.92804067007437352  20.231070533182198
 147    20.397636261428293  0.66217442545125893  19.846283578923689
 148    20.775334379500382  2.0668720750280842  22.450988611630542
 149    22.164813499209561  1.4983873281751223  21.762566481644129
 150    19.79640680876259  2.1277358172285941  20.256584577535364
 151    21.151114548634634  1.5277322638106317  19.495455844610508
 152    21.678354972775946  0.01729672772729229  21.949206346637858
 153    20.655911082280671  0.013910277930335446  19.711987800193754
 154    22.781498142617501  0.012502351718195682  21.476943836784596
 155    21.734678112082772  0.0096314580791145854  19.186399190050249
 156    21.391586436577683  -0.59983893785561637  22.068027078733241
 157    20.383564715179173  -0.64849101154102606  19.851030484927335
 158    22.147836420590405  -1.4814228606437299  21.7674679273393
 159    21.137361304610192  -1.5143226900836151  19.501564884053309
 160    20.733919007263861  -0.86704614980571837  22.431180149158557
 161    19.762197880436691  -0.92781612871884289  20.244163041325528
 162    20.752638540322131  -2.0665772103781168  22.459296210226167
 163    19.777836187731886  -2.127505042241097  20.266567373869378
 164    20.107459190137636  -0.61293281484576145  22.821152117142109
 165    19.165088234044013  -0.65911953502124332  20.652424145801994
 166    19.360192892042587  -1.4955515872937863  23.140555175421095
 167    18.420045307904726  -1.5248859680146485  21.020336529001778
 168    19.856495953331645  -0.017193344132946795  22.980023536283134
 169    18.920652650386756  -0.01361992961949654  20.816025414429852
 170    18.741226002115773  -0.011706881977404868  23.423031777376416
 171    17.834551416533248  -0.0086519379604044211  21.326279693080128
 172    20.124530615035447  0.59751207714326604  22.810805447726899
 173    19.178295239335576  0.64645445895126719  20.643006418505152
 174    19.378391996967107  1.4800621962703677  23.13312745899708
 175    18.434856852616321  1.5131577400930611  21.011957346963428
 176    18.690157147501722  0.97207055766040262  18.099487684253294
 177    19.278813194449146  0.69182902958577785  17.675083488698661
 178    17.480608472713104  1.0053195216284823  16.02307984557601
 179    18.053018211467379  0.7223976054762955  15.554401041354017
 180    18.694775215585601  2.1719126636072836  18.118553925771469
 181    20.016663981801365  1.5533455988312579  17.283421684638451
 182    17.483097199629061  2.2051926215364914  16.040352666870866
 183    18.776536286820033  1.579813391194226  15.128537489215931
 184    19.523855985896208  0.013848620886076395  17.521067220717285
 185    18.29527914549254  0.018825297008618097  15.376842986292953
 186    20.577626133116311  0.01059839109037565  16.946889159892777
 187    19.324339319062311  0.016707323709411574  14.759566165602493
 188    19.267449811264203  -0.67837954371221709  17.683823840455613
 189    18.044687043140932  -0.70219796891119279  15.567222817187425
 190    20.006224889361562  -1.5383403631121897  17.290558272885196
 191    18.76944232557171  -1.5561221064117203  15.136475387731842
 192    18.666841581186404  -0.97185302170767229  18.116039384308348
 193    17.459633509700183  -1.0049880182949855  16.042791254217086
 194    18.680762029330417  -2.1716925596451282  18.129916801936364
 195    17.473975060426568  -2.2048613367208048  16.052707889361589
 196    18.082668463989251  -0.68900295543706891  18.54553291432282
 197    16.884934956045342  -0.71952159306404795  16.503730557631759
 198    17.356112210393508  -1.5505327042026658  18.957659234247551
 199    16.178414043333632  -1.576820737893178  16.95745555823931
 200    17.844997589449228  -0.012985592115055535  18.711499350181761
 201    16.645401897176004  -0.017635445761399721  16.682964913888377
 202    16.794055499903042  -0.009219710787362799  19.290709436442647
 203    15.630144715159121  -0.014918060417293731  17.322687877506269
 204    18.095175465428753  0.67721690160684289  18.536342824869703
 205    16.896851881308649  0.70151853785852603  16.495218798454804
 206    17.367385969472352  1.5377063352440543  18.948439569209711
 207    16.185979820856002  1.5559348290361654  16.94758338044382
 208    16.171819080554286  1.0358476090189075  14.005052441191745
 209    16.73971070503605  0.74826814162343458  13.490670427667673
 210    14.758373132527513  1.0637564687108312  12.059188710993208
 211    15.325068887300137  0.77378760193614116  11.503670499532188
 212    16.170558623214308  2.2356896581280146  14.024039467394424
 213    17.438312871006833  1.6100250922364148  13.033242006000007
 214    14.753405902112529  2.2635665635691891  12.079950765274521
 215    15.993237871854216  1.6399584007879604  11.010417668525196
 216    16.978942057254159  0.02762539326015339  13.29317946814867
 217    15.564388393536108  0.037093898722580579  11.287232391996824
 218    17.978045102406593  0.027014284949925381  12.628564627026591
 219    16.525577308885246  0.038044131134277299  10.568820973610208
 220    16.731927575626358  -0.71788682396687309  13.507839140281069
 221    15.317095926255572  -0.73231358724910145  11.523685779192611
 222    17.434513466949564  -1.5717735702595397  13.04179510952771
 223    15.9928106655717  -1.5861730242227616  11.019370745744215
 224    16.148451855418827  -1.035319818805716  14.031748731986625
 225    14.733075663249952  -1.0630078516082002  12.092993319495582
 226    16.166415594074937  -2.2351600362304662  14.037113677146154
 227    14.754327904575204  -2.2628195628028012  12.093440442437563
 228    15.574358409762651  -0.74528844948384454  14.533037611295105
 229    14.159526377629984  -0.77100086039844951  12.635970806182302
 230    14.897045813812003  -1.6069968373098413  15.02155352988947
 231    13.513193323340941  -1.6371240212864946  13.1575877663232
 232    15.335025822494782  -0.026163013612556074  14.727440505867269
 233    13.918565069271818  -0.035661843159688983  12.84784699927525
 234    14.35694222341024  -0.025099143234728297  15.422635228910737
 235    12.98036647199925  -0.03622617932416082  13.596033522543507
 236    15.58717791518459  0.71761946348940719  14.522185627149657
 237    14.172042516004947  0.73241357105540339  12.621174583868775
 238    14.900848891091533  1.5719271250114624  15.011155938481089
 239    13.513248445378411  1.5866253004180062  13.146829122445929
 240    13.236788410848487  1.0899413386732482  10.197393530323044
 241    13.803143686043054  0.79764198419719556  9.6076292613822023
 242    11.607365648772504  1.115329254464881  8.4288461285262155
 243    12.169298479464562  0.81490887328549877  7.8129839646546841
 244    13.23082147586463  2.2897187191765473  10.219655263026555
 245    14.437230610603685  1.6663875831063995  9.0755170856946741
 246    11.600765335458659  2.3150685087560419  8.4529740703582483
 247    12.764230930173326  1.6861233223623231  7.2411091856921326
 248    14.044707765493742  0.04453527665303917  9.375794456787748
 249    12.409377178138735  0.046587086767187938  7.5714873639824223
 250    14.959637038955986  0.046657499234532288  8.5994163629835079
 251    13.270159936125779  0.049727413883093131  6.735399341165639
 252    13.795930368581253  -0.74665614533396985  9.6283771192281034
 253    12.162438197762764  -0.76209032535203636  7.8335987381143788
 254    14.440357023928481  -1.6005015458528309  9.0846620560405427
 255    12.771104927965871  -1.6159646551105249  7.2501405643577099
 256    13.214156023185478  -1.0890054905348268  10.236252765596976
 257    11.587726702720643  -1.1142789323283726  8.4726537221014482
 258    13.236899043732762  -2.2887819499391884  10.233324291162354
 259    11.61198945236683  -2.314017987580312  8.4665285051414934
 260    12.644942852585237  -0.79543537220285554  10.819507773020497
 261    11.030277911225191  -0.81323224517511927  9.0912203783030918
 262    12.029228267878356  -1.6639660210300502  11.373169497516866
 263    10.447033594042747  -1.6842955656867129  9.6752364381282696
 264    12.402629220236706  -0.043524077165341082  11.049053091158539
 265    10.792657013544378  -0.045802077033948591  9.3344402187985569
 266    11.506052210685489  -0.045112498959380291  11.846660171981314
 267    9.9400199162323766  -0.048569580240127433  10.17883486658684
 268    12.653999228867391  0.74704770785962427  10.800458261963344
 269    11.034947691514333  0.76275425914164574  9.0671280856118841
 270    12.025595203823402  1.6011945430985124  11.362182651046782
 271    10.439861712950208  1.6168055962221706  9.6641783278422277
 272    9.8709161664398355  1.1399925445603896  6.7649684428509138
 273    10.417005762213641  0.83145913399681914  6.1275649553477596
 274    8.0427744529572252  1.1632349831809221  5.2026986321132469
 275    8.5650776245657294  0.84296904608555523  4.5446724078421221
 276    9.8668114996909591  2.339773385237061  6.7873320916744335
 277    10.977212755267871  1.6983787043171177  5.515473247667952
 278    8.0407925792877641  2.3630630546608029  5.2229142465147511
 279    9.0917776305868863  1.7054673401712568  3.8976146079845151
 280    10.652989500402528  0.043421179693191578  5.8750765371262785
 281    8.7917482364025386  0.036379629878834974  4.2832089810263101
 282    11.459053383789772  0.046484864712073276  4.9860158603006033
 283    9.545234446497922  0.039261456131169728  3.3492656067933679
 284    10.413858269548951  -0.78161843370872863  6.1461303007197916
 285    8.5655723988217041  -0.80160769504045115  4.562616328256782
 286    10.987437719840957  -1.6328442534673488  5.524477012779788
 287    9.1045793124753907  -1.6501706495976565  3.9073206246338748
 288    9.8606385670927068  -1.1389759463554647  6.8068925026082727
 289    8.0406269220101549  -1.1623649615890306  5.24335332564144
 290    9.8825374225672125  -2.3387596964865787  6.800874149688088
 291    8.0599778763796088  -2.3621941587203725  5.2374003200005586
 292    9.3247091642442523  -0.83033401806912177  7.4524982376174105
 293    7.5314891742778238  -0.84193481071932785  5.9113614210953447
 294    8.7705514768471957  -1.6969696394134122  8.0704015414105825
 295    7.0075729954908947  -1.70424743781542  6.5609218653619852
 296    9.0935223731473478  -0.043007898712153603  7.7090699227818824
 297    7.3108231177354011  -0.035941824876456238  6.1772529575921213
 298    8.287514587676764  -0.045559648779281647  8.5980634922461956
 299    6.5530011569509847  -0.038391350575531571  7.1076828988432945
 300    9.3224310293137691  0.78238474397164559  7.4274986861856096
 301    7.5239363571716815  0.80243223331193958  5.8859948153325714
 302    8.7602804326963284  1.633759296352985  8.0592821005735154
 303    6.994872132866818  1.6511370325264525  6.5491623736095192
 304    6.1306951911181065  1.1848073230524214  3.7439091707048608
 305    6.6248033254158383  0.85375221536186874  3.0692488082058764
 306    4.144649049070118  1.2047762014781405  2.3872943986472399
 307    4.6065692857230962  0.86023935979550248  1.6998423866649068
 308    6.1321157823094312  2.3846928276275277  3.7593486584751044
 309    7.1186483336219908  1.7082279087542871  2.3867220844821784
 310    4.1492535464963725  2.4047212669588971  2.3978128791379465
 311    5.0668158666476337  1.706609968762298  0.98441952078456274
 312    6.8408428519879259  0.027563081689267674  2.7986742380490028
 313    4.8090821851173153  0.015645360886766574  1.4237003256474896
 314    7.5406374876250943  0.028923247184977293  1.8238645561040387
 315    5.4544275259470005  0.01540847428038853  0.41200405949142294
 316    6.6296305159034974  -0.82225297630565197  3.085021892525464
 317    4.6146327048519931  -0.84300222515417977  1.7149391832281615
 318    7.1332811647434964  -1.6675691010160365  2.3981873076763476
 319    5.0822454627646731  -1.6850663432880599  0.9992113511657752
 320    6.1383636905309489  -1.184113161700989  3.7793303151941711
 321    4.1602149362854934  -1.2042982988663629  2.4193008123898752
 322    6.1536506875719201  -2.3840023868732656  3.7763155381952087
 323    4.1716669350712801  -2.4042436382023791  2.419486094773085
 324    5.6608275022648016  -0.85299373625351615  4.4655751249029754
 325    3.7185394517230779  -0.85949978168811436  3.1196903112544727
 326    5.1659043295134834  -1.7071747839554898  5.1477021697277952
 327    3.2532050729867579  -1.7056309387109094  3.832098888604123
 328    5.452292676990278  -0.027250042074652307  4.7412463520421095
 329    3.5256321418034746  -0.015238802529193102  3.4015326426843573
 330    4.7429871988994172  -0.028087058545800063  5.7091787316999332
 331    2.8649910429808338  -0.014538443636548125  4.4033074916618338
 332    5.647279300423298  0.82308873298264551  4.4417952118016908
 333    3.7003480534262305  0.84382420162578353  3.0962029143301177
 334    5.151584382279208  1.6685676860015259  5.1342065155169756
 335    3.2383042850270494  1.6860852623514828  3.8153078174344359
 336    -24.875797566879978  1.1327520296409586  43.603671507652727
 337    -24.17999287247212  0.86383553831284932  43.56685767217121
 338    -24.847844041405885  0.99705560904661439  41.192387590948705
 339    -24.127271552781732  0.75700677351123946  41.199458335585625
 340    -24.699834258169748  0.88804437097262001  38.78452163038186
 341    -23.956122623626307  0.6648410131243141  38.83889819446884
 342    -24.91  2.3300000000000001  43.530000000000001
 343    -23.321036221189026  1.7006507068272581  43.522882168072329
 344    -24.876312452014769  2.1951182449390569  41.130738655289292
 345    -23.296251742869057  1.6218474103288998  41.20214137879011
 346    -24.723144726476921  2.0867831382336011  38.734702056588795
 347    -23.155278831809987  1.5573212853598535  38.885030447608557
 348    -23.929472213485106  0.12421392322430919  43.50953625112129
 349    -23.854271608178856  0.10688634091072929  41.167626012418772
 350    -23.671935832775063  0.090446787199906842  38.833888044433245
 351    -22.73002212130535  0.089429065555126863  43.520000000300193
 352    -22.656481592499848  0.078000249538756811  41.234218670304571
 353    -22.478198318164161  0.067427622961594463  38.954141378225998
 354    -24.306803975496923  -0.73547844198641898  43.552387047192525
 355    -24.235018993477524  -0.6481657159398504  41.186047005570764
 356    -24.046998402758469  -0.57410586935672703  38.82751482175383
 357    -23.448295297088023  -1.5733880540142686  43.52288567149661
 358    -23.402742331063276  -1.5117735313958216  41.202102777953876
 359    -23.243071008368023  -1.4630841319017307  38.885981848966225
 360    -25.124385069232222  -1.1328011430871623  43.604172153928076
 361    -25.059543487904151  -0.99685055159927172  41.190631047651294
 362    -24.877826745308088  -0.88781318600622894  38.782238664895132
 363    -25.091191792379043  -2.3300469310393557  43.530005250241331
 364    -25.026784666875265  -2.1949469292581814  41.131537558389041
 365    -24.846186248444322  -2.0865639868189452  38.737568803589014
 366    -25.819942668729894  -0.8634022815076059  43.570587530162797
 367    -25.777335534484855  -0.75634966437339646  41.125126609624694
 368    -25.616790515468541  -0.66350876359393374  38.682441826458465
 369    -26.679793501690089  -1.6997853153297311  43.537121640182839
 370    -26.606014461692105  -1.6205033031334788  41.055937216887827
 371    -26.412775256656815  -1.5557272457266953  38.580684900717273
 372    -26.070624418890819  -0.12359311762969788  43.519656871144583
 373    -26.04610807503208  -0.1063308526378824  41.065087372138514
 374    -25.893716425566527  -0.089870691054482754  38.612486424941793
 375    -27.26992995783791  -0.088204115382842785  43.539999997029689
 376    -27.244943374021354  -0.076774893154931939  41.0216721431457
 377    -27.088920654892977  -0.066179557996725813  38.507960923677295
 378    -25.692371209688844  0.73604896973207046  43.556981748919839
 379    -25.667395715163241  0.64878494837784406  41.111926164296428
 380    -25.522481998209123  0.57428278307838043  38.669063835389835
 381    -26.550949681807701  1.5741707781501879  43.537111130711324
 382    -26.497877042949689  1.512279686411258  41.054999094112844
 383    -26.323221530050898  1.4634066955894585  38.578097521037819
 384    -24.435890051261854  0.804937695988166  36.384398754679616
 385    -23.682670756885027  0.59865880098827828  36.490395062404602
 386    -24.062332074329539  0.74689307283733763  33.999163258947043
 387    -23.301517719061287  0.54616339924104151  34.158092490807888
 388    -24.455552450295702  2.0041776842985222  36.346917464273176
 389    -22.903103755899544  1.5066313530347848  36.576264483225621
 390    -24.078718290064138  1.9464983362242421  33.9731113110672
 391    -22.54483493816295  1.4693457993591417  34.281240471725297
 392    -23.38751079021722  0.075995992848081714  36.512488495198305
 393    -23.005907135841166  0.062391647402696648  34.206295949640527
 394    -22.199880176860848  0.057693378874659987  36.683447270532632
 395    -21.826343832392318  0.048781915850369215  34.426398626506696
 396    -23.757753607615726  -0.52330767184000027  36.48174782057346
 397    -23.363215164172427  -0.48479159004474248  34.152682153688659
 398    -22.974382074583982  -1.4268760163703227  36.578971170941649
 399    -22.601902327116665  -1.4027108017240306  34.286200260941357
 400    -24.582883935553951  -0.80474779214370484  36.383630812384546
 401    -24.181838431620971  -0.74681154108270897  34.000852745998017
 402    -24.554569262636118  -2.0040120134596053  36.352756807220963
 403    -24.157238334239295  -1.9464182768030716  33.982453973670872
 404    -25.331402146700491  -0.59746958840346909  36.245637450316025
 405    -24.938326526239724  -0.54480834598408268  33.822672260467414
 406    -26.105357134392147  -1.5049866548760129  36.115912402472944
 407    -25.68917127313318  -1.467819506860689  33.666843627156467
 408    -25.618698651859717  -0.075414916810553956  36.167175208713395
 409    -25.226394467750307  -0.061749840124642519  33.73562911217234
 410    -26.807440167103117  -0.056408627747090684  36.004325825068904
 411    -26.406221323600644  -0.047455245786236472  33.516987270826888
 412    -25.252090168858619  0.52356678139303936  36.231749640340638
 413    -24.871824015298728  0.48485772578021452  33.808059830646258
 414    -26.032177612049495  1.4271314974946316  36.111179257082078
 415    -25.630066122800791  1.4030388130946885  33.659694075470945
 416    -23.581893595242668  0.71281488858696063  31.630273165867361
 417    -22.831780105818211  0.51911678927802352  31.84415461864506
 418    -23.007176620014082  0.71062209463116599  29.277143567316045
 419    -22.272292592950844  0.50838848838477702  29.552627335827061
 420    -23.597438941403645  1.9126401033200457  31.617371009992198
 421    -22.085085869612715  1.4448627495014554  32.003663188293025
 422    -23.023523957391532  1.9105005733735483  29.282083285074659
 423    -21.536406493673503  1.4364277359287072  29.745538724574505
 424    -22.532290163324628  0.051265514552797417  31.921565725320807
 425    -21.984603374745898  0.040497395004711473  29.662684172367207
 426    -21.361707002990244  0.040687660000143185  32.185510750917551
 427    -20.822342501343794  0.032912670958861308  29.961167227363095
 428    -22.881212717017192  -0.46923825026584104  31.842405447362527
 429    -22.312448668931754  -0.4691795786554348  29.554335678924254
 430    -22.130354546137877  -1.389975538130015  32.011078456521659
 431    -21.57277726494484  -1.3924976637701492  29.755258370086977
 432    -23.677710087506789  -0.71277772461227573  31.635553674477368
 433    -23.083733368468664  -0.71055854644844096  29.286074096826127
 434    -23.659092245953303  -1.9126179929353193  31.630340599955982
 435    -23.072689281938562  -1.9104457330943214  29.298271124158319
 436    -24.426658681672606  -0.51845611778123757  31.417150195087856
 437    -23.822785727033448  -0.50824749134388603  29.027663464118646
 438    -25.169325998853662  -1.4436631933304824  31.237037017721487
 439    -24.557561489886957  -1.4358340141980102  28.828445440479499
 440    -24.721884015401624  -0.050543109936213117  31.321700541869056
 441    -24.112525313223244  -0.039628435104826665  28.928689033768691
 442    -25.890808787646939  -0.03931353087892446  31.050587981623138
 443    -25.269048558085039  -0.03148068489368467  28.608708412073163
 444    -24.372221048488477  0.46991974291856076  31.401502840574469
 445    -23.777643412107178  0.47044279652688326  29.011145255755899
 446    -25.12191267919053  1.3906099427863297  31.227449449606656
 447    -24.519002132823267  1.3938037688385161  28.816744221730886
 448    -22.345105840722599  0.74477266223687644  26.949385361792579
 449    -21.647809547530855  0.53192539456646803  27.275907958438633
 450    -21.589129768773265  0.80171805122247342  24.659297066436753
 451    -20.928211464978361  0.56810125712112591  25.02504635913499
 452    -22.363716183192341  1.9444758429498046  26.969108017311711
 453    -20.905997308466809  1.4459406698282506  27.507906442792645
 454    -21.608168131256996  2.001265364071799  24.68620031884052
 455    -20.182900714686927  1.467874758091293  25.298760685489931
 456    -21.369097514651425  0.031726937259484944  27.415675135559013
 457    -20.665439488956405  0.023704776470738015  25.182124064713907
 458    -20.217253163744068  0.025161445207097944  27.75209529052513
 459    -19.529099152217235  0.018181698362393001  25.567740629072397
 460    -21.680303230637335  -0.50166352652173063  27.281107681260629
 461    -20.955476265047359  -0.54543485575536965  25.033428878565054
 462    -20.936524121503272  -1.4125109780726559  27.519417572992865
 463    -20.209892726341359  -1.4436092440077757  25.311615785334808
 464    -22.407143028802903  -0.74454280477928547  26.961710227489863
 465    -21.640123039604763  -0.80128422471970806  24.674312487879128
 466    -22.405032145014857  -1.9442637162732308  26.987564118056085
 467    -21.645078641726158  -2.0008517617950301  24.706142756534341
 468    -23.11559559760709  -0.53302036200648573  26.669173274712847
 469    -22.316189178667603  -0.56992183855395251  24.347919911033237
 470    -23.860212747999945  -1.44608227458213  26.442583624537363
 471    -23.067344518304697  -1.4686323131017025  24.086988619937909
 472    -23.40380088602322  -0.030723159474865456  26.563848786793685
 473    -22.593258908682881  -0.022640953121024487  24.235039417770359
 474    -24.545649690198388  -0.023698564618320941  26.194919072993528
 475    -23.71738413646829  -0.01674867402064123  23.815149249626636
 476    -23.078357352057832  0.50431533810415052  26.651937104504654
 477    -22.28468301433087  0.54895084275714379  24.330560122302547
 478    -23.827522222053172  1.4147074643893087  26.429417026851645
 479    -23.038263922819169  1.4465696291324051  24.072885271554448
 480    -20.728551583911269  0.86747696805290375  22.416169107043967
 481    -20.103516910526935  0.61341940373001036  22.810478314920701
 482    -19.755264957965892  0.92820843617683213  20.227928336736611
 483    -19.159979435628458  0.65961517132080116  20.640867288135663
 484    -20.747543754570646  2.0670070990692624  22.444141079520048
 485    -19.356721213625484  1.4964119915055227  23.129948252279302
 486    -19.771170843853252  2.127897678229747  20.250125753177272
 487    -18.415417915994094  1.5257649854984183  21.008851856942307
 488    -19.856521700349681  0.017749711841883759  22.980100813448598
 489    -18.920687558863506  0.014201448913432668  20.816108641063849
 490    -18.74124818222781  0.012773806837486218  23.423106137307631
 491    -17.834582934778091  0.0097233858925848682  21.326360238309636
 492    -20.128244156913592  -0.59670786515519969  22.82170897752389
 493    -19.183171561046013  -0.64563136379196773  20.654819732108507
 494    -19.381800542542528  -1.4790479753336176  23.143901483332996
 495    -18.439421195681376  -1.5121285816230026  21.023625867511718
 496    -20.773784698398721  -0.86690505759583458  22.433048794257033
 497    -19.79582002324322  -0.92765179578328361  20.246464380319722
 498    -20.782371901137484  -2.0664457505945046  22.46518887791423
 499    -19.804982465700913  -2.1273458786703863  20.271962559350293
 500    -21.414913903610763  -0.61564309579538812  22.075389317739621
 501    -20.4031868822089  -0.66170446112751435  19.857006272255049
 502    -22.169813918628098  -1.497535010534403  21.772467793327181
 503    -21.157131883642961  -1.5268642040601788  19.506199268304023
 504    -21.678371400779881  -0.016849430620629012  21.949254899660229
 505    -20.655933730508224  -0.013443489075884829  19.712041744620741
 506    -22.781513273495239  -0.011435289909943344  21.476996072975357
 507    -21.734699670513006  -0.0085594269516564014  19.186456173450388
 508    -21.386812884633407  0.60060450092720463  22.058333484909156
 509    -20.377783158536374  0.64927104418673176  19.840541218796631
 510    -22.142758803894004  1.4824244208628505  21.757704806902197
 511    -21.131263655846549  1.5153372728405154  19.490975162437238
 512    -18.658306789861015  0.9721659718420641  18.098590100498114
 513    -18.07636236437401  0.68951077829347407  18.533239124342892
 514    -17.449177191046633  1.0052701176980219  16.024348579322272
 515    -16.877234036338322  0.71966726747739584  16.490908915560944
 516    -18.67232971046014  2.1720060296788075  18.112357118558666
 517    -17.3501851490314  1.5513313229620471  18.945425429775071
 518    -17.46347055180409  2.2051439341419137  16.034274527671258
 519    -16.170971777468242  1.5771722231245855  16.944647687032074
 520    -17.845042430114049  0.013531011371841383  18.711587707047919
 521    -16.645456091656236  0.017607571287315132  16.683055617884044
 522    -16.794097781182909  0.01017568714885796  19.290795804718368
 523    -15.630197451068973  0.015236504548923613  17.322777644045019
 524    -18.101242601688202  -0.67638565711424914  18.548925458750738
 525    -16.904304237715344  -0.70104812327731247  16.508372224540469
 526    -17.373250643793561  -1.5367739204859765  18.96087708754655
 527    -16.193352703250213  -1.5554613560390325  16.960617670425108
 528    -18.70010512943626  -0.97175729054050231  18.116028446381996
 529    -17.492428606148639  -1.0050335950126041  16.040547552453724
 530    -18.705081083320916  -2.1716004270401346  18.134943644023608
 531    -17.495431924933317  -2.2049099163888561  16.057512029365331
 532    -19.285416113008118  -0.69137586169151299  17.686690404009987
 533    -18.060890975110134  -0.72156866485778726  15.566742458024123
 534    -20.023826585825383  -1.5523518894406589  17.294900615468588
 535    -18.785052401677479  -1.5782959811454997  15.140586930313312
 536    -19.523885885720905  -0.013386319073265693  17.521127142400008
 537    -18.295315687456661  -0.01783040116603507  15.376907009092745
 538    -20.577654593087427  -0.0093525641702979917  16.946951129280954
 539    -19.324374008998419  -0.014739880948926747  14.759631204001975
 540    -19.260607716329226  0.67914185746487399  17.672489055963275
 541    -18.036555801763125  0.70333964662578796  15.555188692325491
 542    -19.998977529716527  1.539466808535896  17.279252084035335
 543    -18.760828712782963  1.5577635815786395  15.124621055661359
 544    -16.135990621501545  1.0355953605384909  14.012454674290522
 545    -15.565151985575284  0.74489415147659999  14.519704319127534
 546    -14.718560659870974  1.0632784252129077  12.072959399103976
 547    -14.148738454826381  0.77026551430913637  12.622094493290334
 548    -16.153515075416482  2.2354428417482097  14.018118677841171
 549    -14.887875923675928  1.6065431058354349  15.008380511329204
 550    -14.738995384690742  2.2631039609992043  12.074010920223728
 551    -13.502298008606452  1.6360585124850364  13.144126325462143
 552    -15.335091530746695  0.025281569206330998  14.727534536816618
 553    -13.91864304960869  0.034233393765462333  12.847944716128058
 554    -14.357005669822174  0.024296670733802241  15.422726988775345
 555    -12.980441252811815  0.034600644149606154  13.596127349991034
 556    -15.596148331074021  -0.7176779011546901  14.535892143304533
 557    -14.182610428693835  -0.73277676587118012  12.635461069640423
 558    -14.909937198827956  -1.5722416966536557  15.02458076575771
 559    -13.524053605588509  -1.5875085178463395  13.160567290234765
 560    -16.18562840315051  -1.0355517113599795  14.023289650835334
 561    -14.77421693713131  -1.0634496931333635  12.078082663714989
 562    -16.185242949242792  -2.2354055058786866  14.041656413078107
 563    -14.770471944267076  -2.263280206909049  12.097899657462861
 564    -16.748934600639533  -0.74688317308709351  13.503520612285479
 565    -15.335636667934832  -0.77210575518350877  11.5168580550027
 566    -17.448421016765796  -1.6076822476067678  13.04563523918282
 567    -16.004986637814227  -1.6370512219775051  11.02305651865943
 568    -16.978985570618722  -0.025779559586159743  13.293247730799527
 569    -15.5644394303909  -0.03473261640938996  11.287304062252332
 570    -17.978086330974204  -0.023884108921376872  12.628631408428189
 571    -16.525626293454863  -0.034091751088659313  10.568889555463347
 572    -16.72242560873627  0.71959719727089433  13.49533014080067
 573    -15.306233977799746  0.73435756367349536  11.510870945451323
 574    -17.424291125293308  1.5742587995119155  13.029621642153927
 575    -15.980936470521929  1.5892645278330919  11.00697549107019
 576    -13.196986342250565  1.0892835765477795  10.215904792409948
 577    -12.632200760871454  0.79451125258542576  10.805235445875326
 578    -11.56838201733763  1.1145598706205757  8.4516872408297772
 579    -11.015898583362954  0.81334070391662194  9.0762433887572449
 580    -13.2193055879233  2.289067332308083  10.213303335861209
 581    -12.016763447776645  1.6629850424076844  11.359290529579715
 582    -11.592596764661149  2.3143000258903923  8.4455875813954258
 583    -10.43336238248618  1.6845973777793097  9.6606776304968101
 584    -12.40271541453559  0.041952819143150522  11.049149790128382
 585    -10.792751387499214  0.045826235614763983  9.3345368603153176
 586    -11.506137243740136  0.043658079841804469  11.846754746222654
 587    -9.9401156964143116  0.048976773209568891  10.178931585785129
 588    -12.666543514491492  -0.74755911865424129  10.815159881997094
 589    -11.049152255677731  -0.76217312488614808  9.082527663474993
 590    -12.037967577271436  -1.6019289312809619  11.376354130543804
 591    -10.453452963035325  -1.6161761530227621  9.6790351493280973
 592    -13.255277445186637  -1.089639710450689  10.216491976466729
 593    -11.628007648092566  -1.1150391283219878  8.448452921419122
 594    -13.250091747736978  -2.2894318856454556  10.238095833596734
 595    -11.621770607127242  -2.3147871162004847  8.4722408364495791
 596    -13.815345631051823  -0.79584278773659678  9.620803371557999
 597    -12.182814573450916  -0.81420496992729685  7.826316131665263
 598    -14.450531126536747  -1.6636663048929097  9.0884959320362526
 599    -12.778793563245163  -1.6848282704120487  7.2546308053039796
 600    -14.044763135203187  -0.042041869223710046  9.3758634911367764
 601    -12.409437343445958  -0.045628464960511012  7.5715530126077271
 602    -14.959693814425064  -0.042914129614275411  8.5994850660796995
 603    -13.270225881829692  -0.047914923390126173  6.7354681698465146
 604    -13.783440256729115  0.74885756612369947  9.615561046655376
 605    -12.148661122420489  0.76325110410797525  7.8206035363374031
 606    -14.426928626527276  1.6034688733589664  9.0719409672398417
 607    -12.756428435113072  1.6175836270728605  7.2368785721403048
 608    -9.8387839515815241  1.1392646219261975  6.7861068794245503
 609    -9.3085808647198967  0.83190047383333776  7.4373287200176295
 610    -8.0168626719642155  1.1626406098579367  5.2221980371625873
 611    -7.514103164923557  0.84601151873677249  5.895701888031974
 612    -9.8620201520938497  2.3390153099905096  6.7784955708711339
 613    -8.7561467101701531  1.6999551425145902  8.0547997964724409
 614    -8.038850600388308  2.3624036066409251  5.2129631817809212
 615    -6.9927783794199998  1.7109515535545179  6.543852491047323
 616    -9.0936224877776244  0.045456263543556322  7.7091707717977656
 617    -7.3109235636081022  0.042239150303909401  6.1773535919872744
 618    -8.2876189402999891  0.049740916286051887  8.5981608358384047
 619    -6.5531077896405829  0.047734757157354674  7.1077755667015508
 620    -9.3383684149820851  -0.78032384307221947  7.4430924019976539
 621    -7.5411297861457394  -0.79790606157193711  5.9020758460822957
 622    -8.7746313164995655  -1.6304169089077138  8.0751738484874345
 623    -7.0096418964314511  -1.644111855227955  6.5664976833740081
 624    -9.8939983468791386  -1.1397655420302417  6.7843189561666213
 625    -8.0676912757436874  -1.163091820836101  5.2223533506279507
 626    -9.8888670358496622  -2.3395215237386879  6.8079536671608114
 627    -8.0633769233621848  -2.3628604279665786  5.2455196129012105
 628    -10.432017591285051  -0.83227242122561795  6.1408073843417368
 629    -8.581216558920941  -0.84620971225037367  4.5582807348791796
 630    -10.992557175883952  -1.6998252370783109  5.529905580010638
 631    -9.1075239011628675  -1.7105797564286078  3.9134047714338074
 632    -10.653058329741025  -0.044901173829707937  5.8751367357628306
 633    -8.7918214918467594  -0.041618463863976232  4.2832603989456661
 634    -11.459126719107381  -0.048489421179655809  4.9860830612923399
 635    -9.5453094318528553  -0.04643116475448248  3.3493263744153108
 636    -10.398655437562702  0.78128947034791607  6.1331942279741698
 637    -8.5493085697073603  0.79882053608903503  4.5492626646235692
 638    -10.972004606654798  1.6317497017892566  5.5102931430153319
 639    -9.0887714496182106  1.645378120708153  3.8917521649947986
 640    -6.1126986272527093  1.1843593428312287  3.7583135802771639
 641    -5.6422645491162342  0.85960059500566888  4.449701797563173
 642    -4.1332356576611629  1.204511124837375  2.3976621927148267
 643    -3.6992258107273397  0.86948935271556316  3.1030676177246441
 644    -6.1323182698152117  2.3841629985256274  3.7491433160124732
 645    -5.1510072928012747  1.7184289702373792  5.1286791884603344
 646    -4.1505689207946475  2.4043527369646505  2.3887367349134023
 647    -3.2385095408133582  1.7222742859010152  3.8105267164493819
 648    -5.4523955994003739  0.037573598178151271  4.7413483707841841
 649    -3.5257284795093562  0.030750366086808312  3.4016316504745121
 650    -4.7430881729446472  0.043732214266308973  5.709261781142553
 651    -2.8650752279716385  0.03762317092255435  4.4033751534664178
 652    -5.6656778437957058  -0.81608285276250814  4.4580919519475337
 653    -3.7195269171433099  -0.83352509736429925  3.113227976298397
 654    -5.1664861193291385  -1.6570516740948844  5.153454096205472
 655    -3.2530320191519322  -1.6692766037272184  3.837038676523298
 656    -6.1574254777587027  -1.1847353499916113  3.7633992774783813
 657    -4.1726151689885365  -1.2047795667401877  2.4073746244679723
 658    -6.1548244471680462  -2.3845421587840172  3.7846156949431018
 659    -4.1716498336449321  -2.404625565153375  2.4265748385172357
 660    -6.6420270597919444  -0.85947069892346162  3.083024934737526
 661    -4.6245324242863539  -0.86919730359389225  1.7143336428556473
 662    -7.1345203733206084  -1.7178011475713748  2.4043293785254134
 663    -5.0825058723991035  -1.7214186581419257  1.0044188003033525
 664    -6.840922054733678  -0.036790618937602701  2.7987153503830866
 665    -4.8091601317881718  -0.029952458914974223  1.4237269900969229
 666    -7.5407073940094813  -0.042388758594946438  1.8239137441459812
 667    -5.4544826809093774  -0.03628530630174575  0.41203597865138852
 668    -6.612336201501245  0.8169564176208538  3.0714544426831485
 669    -4.5966596170365692  0.83440126536483938  1.7005914372896829
 670    -7.1173774239848271  1.6582648752400513  2.3807559821062982
 671    -5.0665523601456712  1.6704425027895258  0.97931766173783275
 672    2.8480905097617879  1.2485419507793321  1.0885203156608827
 673    3.441549761180017  0.88179312380887953  0.50148912567183979
 674    2.3484118595226082  1.3219073509030801  -0.40655587859826836
 675    3.1703336234597179  0.93276561136641301  -0.7963825361537562
 676    2.1014462830330958  2.4307597736073987  1.1672320362151014
 677    3.5416561022084156  1.7553828702312859  -0.17759395677777645
 678    -0.00075001032231103437  2.4708441408788864  0.07214668480818931
 679    2.9020183064146767  1.8699700263052832  -1.1817439528874982
 680    3.6931597318600899  0.0067296778311776786  0.26908284333109567
 681    3.5129205905847583  0.0032679439065567695  -0.95007890774125947
 682    4.1339676173574365  0.0043955909902564649  -0.66449359098384075
 683    3.9901975689993954  -0.00026216104835530274  -1.4714397624140512
 684    3.4466952636828112  -0.87669187202610921  0.51589227814941785
 685    3.1716413354676485  -0.93097630738551951  -0.78684212358494765
 686    3.5545326598644031  -1.749290785647601  -0.16269884149139452
 687    2.908985661020254  -1.8702031234916177  -1.1722018080060179
 688    2.8581123526783609  -1.2482762307636404  1.1182384305591953
 689    2.350808953828496  -1.3217991211388394  -0.38681727379934505
 690    2.1184974953187856  -2.4308024968013462  1.1849895680547864
 691    -0.00027219018461988043  -2.4708166372088103  0.093255426649345274
 692    2.280648272871785  -0.8806716966818996  1.7161757008358762
 693    1.5359735334906897  -0.93164651158244782  0.01083591416834917
 694    1.5069735989373023  -1.7000739753531799  2.8826737959498021
 695    0.00025632981059597881  -1.6915183746438796  2.5672762473009776
 696    2.0375660241142386  -0.0045223262690533561  1.9520140819095841
 697    1.1978983912095444  -0.00021645465807956787  0.16646130356707312
 698    1.2535161282964626  0.00078245815915493899  3.4587384678301309
 699    -3.0525252125990221e-05  0.015537713608233861  3.1438972855469354
 700    2.2679144558868733  0.87876716968998714  1.6942571350571796
 701    1.5317159127722852  0.9336380398100077  -0.003906194672965102
 702    1.4965330811664808  1.7019955086087368  2.8617019972196656
 703    -0.00028505015799717981  1.7139831614764383  2.542782034590001
 704    -2.8381788072121692  1.248409837399882  1.0981536762494106
 705    -2.2665938344174483  0.89221625840929664  1.7007695831102212
 706    -2.3416619353561368  1.3218499491968694  -0.40052464875612648
 707    -1.5297917281915021  0.9394362054925478  0.00021125031274749073
 708    -2.1030948417927622  2.4308833731087791  1.1545996090661503
 709    -1.497011970350056  1.7210691206690458  2.8589296881362856
 710    -2.0376225541519584  0.022027697600816139  1.9520877703851336
 711    -1.1979143130526633  0.011959291397315885  0.16650983824554777
 712    -1.2535829624223633  0.028295294074696137  3.4587781217723252
 713    -2.2818663111185438  -0.86705813280325716  1.7099595729463728
 714    -1.5378630601216308  -0.92583097925438329  0.0068973192217217094
 715    -1.5065458407627059  -1.6809304722221829  2.8855249662835361
 716    -2.8691892632575478  -1.2485908051978434  1.1072548017684229
 717    -2.3589735498159756  -1.3219635539682608  -0.39373869325225275
 718    -2.1183308446272071  -2.4307191238507544  1.1955339704555321
 719    -3.455142431741844  -0.8917021039725993  0.51489364763081047
 720    -3.1771974947697235  -0.93866977196470169  -0.78739069491947244
 721    -3.5549765609415176  -1.7709182371396652  -0.15919328239000535
 722    -2.9105622982323105  -1.8798122990618027  -1.1703876177558432
 723    -3.6932091810171248  -0.022039474440482154  0.26909689251579499
 724    -3.5129396710032044  -0.012361086894930762  -0.95006588843475592
 725    -4.1340023372880523  -0.026175683361658847  -0.66447798388167489
 726    -3.9902137134071203  -0.013170457491324505  -1.4714338692243318
 727    -3.4331163257032893  0.86700864125417598  0.50257060863705783
 728    -3.1648221792614151  0.92514046480471002  -0.79578364961864034
 729    -3.5412232222969622  1.7338543120161023  -0.18105822412687167
 730    -2.9004487606795095  1.8604035046582221  -1.1835478368805663
 731    2.0809178036018809  1.3930596416804231  -2.1289846820312777
 732    3.0359174822051584  0.98398412270680735  -2.2787200466211601
 733    2.0250000000000004  1.425  -4
 734    3.0326271631908339  1.0076271631908267  -4
 735    -0.00026513506395822034  2.5588175831254878  -1.9750724082545617
 736    2.7889088653686045  1.9975180030506468  -2.348917092357329
 737    8.3266726846886741e-16  2.6000000000000005  -4
 738    2.8344406616862479  2.0611295686741871  -4.0000000000000036
 739    3.431884098303263  0.00050936477819635284  -2.3373635294545911
 740    3.4499999524359533  -0.00036818136198918383  -4
 741    4.3774355493775152  -0.0011624389636574195  -2.4396650377643763
 742    4.6499997274408118  -0.00089020958047192345  -4.0000000000000044
 743    3.0359112623936859  -0.98409119419869251  -2.2750230138494092
 744    3.0322467847377608  -1.0080073981055166  -3.9999999999999991
 745    2.7899123716172727  -1.9987612955879686  -2.3458010327261865
 746    2.8327238484174484  -2.0618673313208689  -3.9999999999999982
 747    2.0808574390199861  -1.3930330819159955  -2.1213574139549976
 748    2.0242636373005896  -1.424999809743837  -4.0000000000000036
 749    -0.0011995949704303177  -2.5588221991278197  -1.9703430598773513
 750    -0.0015665957974846378  -2.5999998524458752  -3.9999999999999964
 751    1.1278205750793309  -0.98326736032765671  -1.9677839614092938
 752    1.0167324712088652  -1.0069863903675302  -3.999999999999992
 753    -0.00062478125811768481  -1.4424443240482472  -0.53727140726213074
 754    -0.0011749468481079273  -1.2999998893344036  -3.9999999999999964
 755    0.73351587569897292  0.0011169310731463933  -1.9076876077254716
 756    0.60000042807634979  0.0011045439876533059  -3.9999999999999982
 757    -0.00049205026093920509  0.0058266868985621945  -0.32103851791989724
 758    -0.00078329789873851641  7.3777067566282994e-08  -3.999999999999992
 759    1.1277972333614608  0.98551286514550496  -1.9735459039376062
 760    1.0182741171477196  1.0085276380919339  -4.0000000000000018
 761    -0.00034719545494496518  1.4508687077014017  -0.54645673702875253
 762    -0.00039164894936905004  1.3000000368885338  -4.0000000000000036
 763    -2.0787522025320282  1.3930427409668535  -2.1267358566962624
 764    -1.1265239838239818  0.98630271505289813  -1.9719965750363073
 765    -2.0250000000000004  1.425  -3.9999999999999987
 766    -1.0173728368091728  1.0076271631908271  -3.9999999999999947
 767    -0.73351860824934123  0.003293203809287229  -1.9076670971684
 768    -0.60000004756403713  -0.00036818136199090468  -4.0000000000000044
 769    -1.1291634941617192  -0.98255968735096544  -1.9692678115880402
 770    -1.0177532152622453  -1.0080073981055166  -4
 771    -2.084488569402847  -1.3930835027377035  -2.1239442376975415
 772    -2.0257363626994032  -1.4249998097438379  -3.9999999999999991
 773    -3.0383549908746237  -0.98551408493873649  -2.2752554524939406
 774    -3.0332675287911375  -1.0069863903675227  -4.0000000000000018
 775    -2.7927620977323517  -2.0002576146715505  -2.3452834441679205
 776    -2.8361778125062784  -2.0603823423127392  -3.9999999999999947
 777    -3.4318887111750582  -0.0030146190545912582  -2.3373554035728072
 778    -3.4499995719236471  0.0011045439876523067  -4.0000000000000071
 779    -4.3774382153892102  -0.0019344810284199765  -2.43966382529198
 780    -4.6499972003962675  0.0028530546176908089  -3.9999999999999991
 781    -3.0335688986881957  0.98249651557207862  -2.278467460558574
 782    -3.0317258828522693  1.0085276380919375  -4.0000000000000071
 783    -2.7860545797038299  1.996034088449939  -2.3494341157595211
 784    -2.8309751567054415  2.0626180624716053  -4.0000000000000009
 785    2.0250000000000004  1.4250000000000003  -6
 786    3.032627163190829  1.0076271631908305  -6
 787    2.0250000000000004  1.4250000000000003  -8
 788    3.0326271631908277  1.0076271631908289  -8
 789    4.4408920985006262e-16  2.6000000000000001  -6
 790    2.8344406616862408  2.0611295686741906  -6
 791    4.4408920985006262e-16  2.6000000000000001  -8
 792    2.8344406616862412  2.061129568674188  -8
 793    3.4499999524359604  -0.00036818136198979445  -6
 794    3.4499999524359604  -0.00036818136198979445  -8
 795    4.6499997274408278  -0.00089020958046903687  -6
 796    4.6499997274408278  -0.0008902095804717014  -8
 797    3.0322467847377563  -1.0080073981055171  -6
 798    3.0322467847377563  -1.0080073981055175  -8
 799    2.8327238484174568  -2.0618673313208697  -6
 800    2.8327238484174595  -2.0618673313208684  -8
 801    2.0242636373005967  -1.4249998097438388  -6
 802    2.0242636373005953  -1.4249998097438397  -8
 803    -0.001566595797480419  -2.5999998524458694  -6
 804    -0.0015665957974859701  -2.599999852445869  -8
 805    1.0167324712088659  -1.0069863903675262  -6
 806    1.0167324712088655  -1.0069863903675262  -8
 807    -0.0011749468481078167  -1.2999998893344009  -6
 808    -0.001174946848107707  -1.299999889334402  -8
 809    0.60000042807635268  0.001104543987653861  -6
 810    0.60000042807635234  0.0011045439876535834  -8
 811    -0.00078329789873849602  7.3777065512370399e-08  -6
 812    -0.00078329789873849689  7.377706690014918e-08  -8
 813    1.0182741171477208  1.0085276380919361  -6
 814    1.0182741171477203  1.0085276380919361  -8
 815    -0.00039164894936905004  1.3000000368885329  -6
 816    -0.00039164894936910533  1.3000000368885329  -8
 817    -2.0250000000000004  1.4250000000000003  -6
 818    -1.0173728368091697  1.0076271631908316  -6
 819    -2.0250000000000004  1.4250000000000003  -8
 820    -1.0173728368091679  1.0076271631908329  -8
 821    -0.60000004756404191  -0.0003681813619900165  -6
 822    -0.60000004756404257  -0.00036818136198968343  -8
 823    -1.0177532152622448  -1.0080073981055171  -6
 824    -1.0177532152622444  -1.0080073981055166  -8
 825    -2.025736362699404  -1.424999809743839  -6
 826    -2.0257363626994058  -1.4249998097438397  -8
 827    -3.0332675287911357  -1.0069863903675245  -6
 828    -3.0332675287911339  -1.0069863903675245  -8
 829    -2.8361778125062802  -2.0603823423127352  -6
 830    -2.836177812506282  -2.0603823423127379  -8
 831    -3.4499995719236476  0.001104543987653972  -6
 832    -3.4499995719236458  0.0011045439876553598  -8
 833    -4.6499972003962711  0.0028530546176896987  -6
 834    -4.6499972003962675  0.002853054617691031  -8
 835    -3.0317258828522791  1.008527638091937  -6
 836    -3.0317258828522791  1.008527638091937  -8
 837    -2.8309751567054269  2.0626180624716048  -6
 838    -2.8309751567054207  2.0626180624716044  -8
# Generated by tetgen uterus_scaffold_1.ele 
