1728  1
    0      1     0     6    1
    1      1     3     0    1
    2      3     2     0    1
    3      7     1     6    1
    4      9     7     6    1
    5      8     9     6    1
    6      3     5     2    1
    7      5     4     2    1
    8     11     9     8    1
    9     10    11     8    1
   10     12     1     7    1
   11     12    13     1    1
   12     13     3     1    1
   13     15    12     7    1
   14     16    15     7    1
   15      9    16     7    1
   16     13    14     3    1
   17     14     5     3    1
   18     17    16     9    1
   19     11    17     9    1
   20     18    12    15    1
   21     18    19    12    1
   22     19    13    12    1
   23     21    18    15    1
   24     22    21    15    1
   25     16    22    15    1
   26     19    20    13    1
   27     20    14    13    1
   28     23    22    16    1
   29     17    23    16    1
   30     24    18    21    1
   31     24    25    18    1
   32     25    19    18    1
   33     27    24    21    1
   34     28    27    21    1
   35     22    28    21    1
   36     25    26    19    1
   37     26    20    19    1
   38     29    28    22    1
   39     23    29    22    1
   40     30    24    27    1
   41     30    31    24    1
   42     31    25    24    1
   43     33    30    27    1
   44     34    33    27    1
   45     28    34    27    1
   46     31    32    25    1
   47     32    26    25    1
   48     35    34    28    1
   49     29    35    28    1
   50     36    30    33    1
   51     36    37    30    1
   52     37    31    30    1
   53     39    36    33    1
   54     40    39    33    1
   55     34    40    33    1
   56     37    38    31    1
   57     38    32    31    1
   58     41    40    34    1
   59     35    41    34    1
   60     42    36    39    1
   61     42    43    36    1
   62     43    37    36    1
   63     45    42    39    1
   64     46    45    39    1
   65     40    46    39    1
   66     43    44    37    1
   67     44    38    37    1
   68     47    46    40    1
   69     41    47    40    1
   70      0    42    45    1
   71      0     2    42    1
   72      2    43    42    1
   73      6     0    45    1
   74      8     6    45    1
   75     46     8    45    1
   76      2     4    43    1
   77      4    44    43    1
   78     10     8    46    1
   79     47    10    46    1
   80      5    49     4    1
   81     49    48     4    1
   82     53    11    10    1
   83     52    53    10    1
   84     49    51    48    1
   85     51    50    48    1
   86     55    53    52    1
   87     54    55    52    1
   88     14    56     5    1
   89     56    49     5    1
   90     58    17    11    1
   91     53    58    11    1
   92     56    57    49    1
   93     57    51    49    1
   94     59    58    53    1
   95     55    59    53    1
   96     20    60    14    1
   97     60    56    14    1
   98     62    23    17    1
   99     58    62    17    1
  100     60    61    56    1
  101     61    57    56    1
  102     63    62    58    1
  103     59    63    58    1
  104     26    64    20    1
  105     64    60    20    1
  106     66    29    23    1
  107     62    66    23    1
  108     64    65    60    1
  109     65    61    60    1
  110     67    66    62    1
  111     63    67    62    1
  112     32    68    26    1
  113     68    64    26    1
  114     70    35    29    1
  115     66    70    29    1
  116     68    69    64    1
  117     69    65    64    1
  118     71    70    66    1
  119     67    71    66    1
  120     38    72    32    1
  121     72    68    32    1
  122     74    41    35    1
  123     70    74    35    1
  124     72    73    68    1
  125     73    69    68    1
  126     75    74    70    1
  127     71    75    70    1
  128     44    76    38    1
  129     76    72    38    1
  130     78    47    41    1
  131     74    78    41    1
  132     76    77    72    1
  133     77    73    72    1
  134     79    78    74    1
  135     75    79    74    1
  136      4    48    44    1
  137     48    76    44    1
  138     52    10    47    1
  139     78    52    47    1
  140     48    50    76    1
  141     50    77    76    1
  142     54    52    78    1
  143     79    54    78    1
  144     51    81    50    1
  145     81    80    50    1
  146     85    55    54    1
  147     84    85    54    1
  148     81    83    80    1
  149     83    82    80    1
  150     87    85    84    1
  151     86    87    84    1
  152     57    88    51    1
  153     88    81    51    1
  154     90    59    55    1
  155     85    90    55    1
  156     88    89    81    1
  157     89    83    81    1
  158     91    90    85    1
  159     87    91    85    1
  160     61    92    57    1
  161     92    88    57    1
  162     94    63    59    1
  163     90    94    59    1
  164     92    93    88    1
  165     93    89    88    1
  166     95    94    90    1
  167     91    95    90    1
  168     65    96    61    1
  169     96    92    61    1
  170     98    67    63    1
  171     94    98    63    1
  172     96    97    92    1
  173     97    93    92    1
  174     99    98    94    1
  175     95    99    94    1
  176     69   100    65    1
  177    100    96    65    1
  178    102    71    67    1
  179     98   102    67    1
  180    100   101    96    1
  181    101    97    96    1
  182    103   102    98    1
  183     99   103    98    1
  184     73   104    69    1
  185    104   100    69    1
  186    106    75    71    1
  187    102   106    71    1
  188    104   105   100    1
  189    105   101   100    1
  190    107   106   102    1
  191    103   107   102    1
  192     77   108    73    1
  193    108   104    73    1
  194    110    79    75    1
  195    106   110    75    1
  196    108   109   104    1
  197    109   105   104    1
  198    111   110   106    1
  199    107   111   106    1
  200     50    80    77    1
  201     80   108    77    1
  202     84    54    79    1
  203    110    84    79    1
  204     80    82   108    1
  205     82   109   108    1
  206     86    84   110    1
  207    111    86   110    1
  208     83   113    82    1
  209    113   112    82    1
  210    117    87    86    1
  211    116   117    86    1
  212    113   115   112    1
  213    115   114   112    1
  214    119   117   116    1
  215    118   119   116    1
  216     89   120    83    1
  217    120   113    83    1
  218    122    91    87    1
  219    117   122    87    1
  220    120   121   113    1
  221    121   115   113    1
  222    123   122   117    1
  223    119   123   117    1
  224     93   124    89    1
  225    124   120    89    1
  226    126    95    91    1
  227    122   126    91    1
  228    124   125   120    1
  229    125   121   120    1
  230    127   126   122    1
  231    123   127   122    1
  232     97   128    93    1
  233    128   124    93    1
  234    130    99    95    1
  235    126   130    95    1
  236    128   129   124    1
  237    129   125   124    1
  238    131   130   126    1
  239    127   131   126    1
  240    101   132    97    1
  241    132   128    97    1
  242    134   103    99    1
  243    130   134    99    1
  244    132   133   128    1
  245    133   129   128    1
  246    135   134   130    1
  247    131   135   130    1
  248    105   136   101    1
  249    136   132   101    1
  250    138   107   103    1
  251    134   138   103    1
  252    136   137   132    1
  253    137   133   132    1
  254    139   138   134    1
  255    135   139   134    1
  256    109   140   105    1
  257    140   136   105    1
  258    142   111   107    1
  259    138   142   107    1
  260    140   141   136    1
  261    141   137   136    1
  262    143   142   138    1
  263    139   143   138    1
  264     82   112   109    1
  265    112   140   109    1
  266    116    86   111    1
  267    142   116   111    1
  268    112   114   140    1
  269    114   141   140    1
  270    118   116   142    1
  271    143   118   142    1
  272    115   145   114    1
  273    145   144   114    1
  274    149   119   118    1
  275    148   149   118    1
  276    145   147   144    1
  277    147   146   144    1
  278    151   149   148    1
  279    150   151   148    1
  280    121   152   115    1
  281    152   145   115    1
  282    154   123   119    1
  283    149   154   119    1
  284    152   153   145    1
  285    153   147   145    1
  286    155   154   149    1
  287    151   155   149    1
  288    125   156   121    1
  289    156   152   121    1
  290    158   127   123    1
  291    154   158   123    1
  292    156   157   152    1
  293    157   153   152    1
  294    159   158   154    1
  295    155   159   154    1
  296    129   160   125    1
  297    160   156   125    1
  298    162   131   127    1
  299    158   162   127    1
  300    160   161   156    1
  301    161   157   156    1
  302    163   162   158    1
  303    159   163   158    1
  304    133   164   129    1
  305    164   160   129    1
  306    166   135   131    1
  307    162   166   131    1
  308    164   165   160    1
  309    165   161   160    1
  310    167   166   162    1
  311    163   167   162    1
  312    137   168   133    1
  313    168   164   133    1
  314    170   139   135    1
  315    166   170   135    1
  316    168   169   164    1
  317    169   165   164    1
  318    171   170   166    1
  319    167   171   166    1
  320    141   172   137    1
  321    172   168   137    1
  322    174   143   139    1
  323    170   174   139    1
  324    172   173   168    1
  325    173   169   168    1
  326    175   174   170    1
  327    171   175   170    1
  328    114   144   141    1
  329    144   172   141    1
  330    148   118   143    1
  331    174   148   143    1
  332    144   146   172    1
  333    146   173   172    1
  334    150   148   174    1
  335    175   150   174    1
  336    147   177   146    1
  337    177   176   146    1
  338    181   151   150    1
  339    180   181   150    1
  340    177   179   176    1
  341    179   178   176    1
  342    183   181   180    1
  343    182   183   180    1
  344    153   184   147    1
  345    184   177   147    1
  346    186   155   151    1
  347    181   186   151    1
  348    184   185   177    1
  349    185   179   177    1
  350    187   186   181    1
  351    183   187   181    1
  352    157   188   153    1
  353    188   184   153    1
  354    190   159   155    1
  355    186   190   155    1
  356    188   189   184    1
  357    189   185   184    1
  358    191   190   186    1
  359    187   191   186    1
  360    161   192   157    1
  361    192   188   157    1
  362    194   163   159    1
  363    190   194   159    1
  364    192   193   188    1
  365    193   189   188    1
  366    195   194   190    1
  367    191   195   190    1
  368    165   196   161    1
  369    196   192   161    1
  370    198   167   163    1
  371    194   198   163    1
  372    196   197   192    1
  373    197   193   192    1
  374    199   198   194    1
  375    195   199   194    1
  376    169   200   165    1
  377    200   196   165    1
  378    202   171   167    1
  379    198   202   167    1
  380    200   201   196    1
  381    201   197   196    1
  382    203   202   198    1
  383    199   203   198    1
  384    173   204   169    1
  385    204   200   169    1
  386    206   175   171    1
  387    202   206   171    1
  388    204   205   200    1
  389    205   201   200    1
  390    207   206   202    1
  391    203   207   202    1
  392    146   176   173    1
  393    176   204   173    1
  394    180   150   175    1
  395    206   180   175    1
  396    176   178   204    1
  397    178   205   204    1
  398    182   180   206    1
  399    207   182   206    1
  400    179   209   178    1
  401    209   208   178    1
  402    213   183   182    1
  403    212   213   182    1
  404    209   211   208    1
  405    211   210   208    1
  406    215   213   212    1
  407    214   215   212    1
  408    185   216   179    1
  409    216   209   179    1
  410    218   187   183    1
  411    213   218   183    1
  412    216   217   209    1
  413    217   211   209    1
  414    219   218   213    1
  415    215   219   213    1
  416    189   220   185    1
  417    220   216   185    1
  418    222   191   187    1
  419    218   222   187    1
  420    220   221   216    1
  421    221   217   216    1
  422    223   222   218    1
  423    219   223   218    1
  424    193   224   189    1
  425    224   220   189    1
  426    226   195   191    1
  427    222   226   191    1
  428    224   225   220    1
  429    225   221   220    1
  430    227   226   222    1
  431    223   227   222    1
  432    197   228   193    1
  433    228   224   193    1
  434    230   199   195    1
  435    226   230   195    1
  436    228   229   224    1
  437    229   225   224    1
  438    231   230   226    1
  439    227   231   226    1
  440    201   232   197    1
  441    232   228   197    1
  442    234   203   199    1
  443    230   234   199    1
  444    232   233   228    1
  445    233   229   228    1
  446    235   234   230    1
  447    231   235   230    1
  448    205   236   201    1
  449    236   232   201    1
  450    238   207   203    1
  451    234   238   203    1
  452    236   237   232    1
  453    237   233   232    1
  454    239   238   234    1
  455    235   239   234    1
  456    178   208   205    1
  457    208   236   205    1
  458    212   182   207    1
  459    238   212   207    1
  460    208   210   236    1
  461    210   237   236    1
  462    214   212   238    1
  463    239   214   238    1
  464    211   241   210    1
  465    241   240   210    1
  466    245   215   214    1
  467    244   245   214    1
  468    241   243   240    1
  469    243   242   240    1
  470    247   245   244    1
  471    246   247   244    1
  472    217   248   211    1
  473    248   241   211    1
  474    250   219   215    1
  475    245   250   215    1
  476    248   249   241    1
  477    249   243   241    1
  478    251   250   245    1
  479    247   251   245    1
  480    221   252   217    1
  481    252   248   217    1
  482    254   223   219    1
  483    250   254   219    1
  484    252   253   248    1
  485    253   249   248    1
  486    255   254   250    1
  487    251   255   250    1
  488    225   256   221    1
  489    256   252   221    1
  490    258   227   223    1
  491    254   258   223    1
  492    256   257   252    1
  493    257   253   252    1
  494    259   258   254    1
  495    255   259   254    1
  496    229   260   225    1
  497    260   256   225    1
  498    262   231   227    1
  499    258   262   227    1
  500    260   261   256    1
  501    261   257   256    1
  502    263   262   258    1
  503    259   263   258    1
  504    233   264   229    1
  505    264   260   229    1
  506    266   235   231    1
  507    262   266   231    1
  508    264   265   260    1
  509    265   261   260    1
  510    267   266   262    1
  511    263   267   262    1
  512    237   268   233    1
  513    268   264   233    1
  514    270   239   235    1
  515    266   270   235    1
  516    268   269   264    1
  517    269   265   264    1
  518    271   270   266    1
  519    267   271   266    1
  520    210   240   237    1
  521    240   268   237    1
  522    244   214   239    1
  523    270   244   239    1
  524    240   242   268    1
  525    242   269   268    1
  526    246   244   270    1
  527    271   246   270    1
  528    243   273   242    1
  529    273   272   242    1
  530    277   247   246    1
  531    276   277   246    1
  532    273   275   272    1
  533    275   274   272    1
  534    279   277   276    1
  535    278   279   276    1
  536    249   280   243    1
  537    280   273   243    1
  538    282   251   247    1
  539    277   282   247    1
  540    280   281   273    1
  541    281   275   273    1
  542    283   282   277    1
  543    279   283   277    1
  544    253   284   249    1
  545    284   280   249    1
  546    286   255   251    1
  547    282   286   251    1
  548    284   285   280    1
  549    285   281   280    1
  550    287   286   282    1
  551    283   287   282    1
  552    257   288   253    1
  553    288   284   253    1
  554    290   259   255    1
  555    286   290   255    1
  556    288   289   284    1
  557    289   285   284    1
  558    291   290   286    1
  559    287   291   286    1
  560    261   292   257    1
  561    292   288   257    1
  562    294   263   259    1
  563    290   294   259    1
  564    292   293   288    1
  565    293   289   288    1
  566    295   294   290    1
  567    291   295   290    1
  568    265   296   261    1
  569    296   292   261    1
  570    298   267   263    1
  571    294   298   263    1
  572    296   297   292    1
  573    297   293   292    1
  574    299   298   294    1
  575    295   299   294    1
  576    269   300   265    1
  577    300   296   265    1
  578    302   271   267    1
  579    298   302   267    1
  580    300   301   296    1
  581    301   297   296    1
  582    303   302   298    1
  583    299   303   298    1
  584    242   272   269    1
  585    272   300   269    1
  586    276   246   271    1
  587    302   276   271    1
  588    272   274   300    1
  589    274   301   300    1
  590    278   276   302    1
  591    303   278   302    1
  592    275   305   274    1
  593    305   304   274    1
  594    309   279   278    1
  595    308   309   278    1
  596    305   307   304    1
  597    307   306   304    1
  598    311   309   308    1
  599    310   311   308    1
  600    281   312   275    1
  601    312   305   275    1
  602    314   283   279    1
  603    309   314   279    1
  604    312   313   305    1
  605    313   307   305    1
  606    315   314   309    1
  607    311   315   309    1
  608    285   316   281    1
  609    316   312   281    1
  610    318   287   283    1
  611    314   318   283    1
  612    316   317   312    1
  613    317   313   312    1
  614    319   318   314    1
  615    315   319   314    1
  616    289   320   285    1
  617    320   316   285    1
  618    322   291   287    1
  619    318   322   287    1
  620    320   321   316    1
  621    321   317   316    1
  622    323   322   318    1
  623    319   323   318    1
  624    293   324   289    1
  625    324   320   289    1
  626    326   295   291    1
  627    322   326   291    1
  628    324   325   320    1
  629    325   321   320    1
  630    327   326   322    1
  631    323   327   322    1
  632    297   328   293    1
  633    328   324   293    1
  634    330   299   295    1
  635    326   330   295    1
  636    328   329   324    1
  637    329   325   324    1
  638    331   330   326    1
  639    327   331   326    1
  640    301   332   297    1
  641    332   328   297    1
  642    334   303   299    1
  643    330   334   299    1
  644    332   333   328    1
  645    333   329   328    1
  646    335   334   330    1
  647    331   335   330    1
  648    274   304   301    1
  649    304   332   301    1
  650    308   278   303    1
  651    334   308   303    1
  652    304   306   332    1
  653    306   333   332    1
  654    310   308   334    1
  655    335   310   334    1
  656    337   336   342    1
  657    337   339   336    1
  658    339   338   336    1
  659    343   337   342    1
  660    345   343   342    1
  661    344   345   342    1
  662    339   341   338    1
  663    341   340   338    1
  664    347   345   344    1
  665    346   347   344    1
  666    348   337   343    1
  667    348   349   337    1
  668    349   339   337    1
  669    351   348   343    1
  670    352   351   343    1
  671    345   352   343    1
  672    349   350   339    1
  673    350   341   339    1
  674    353   352   345    1
  675    347   353   345    1
  676    354   348   351    1
  677    354   355   348    1
  678    355   349   348    1
  679    357   354   351    1
  680    358   357   351    1
  681    352   358   351    1
  682    355   356   349    1
  683    356   350   349    1
  684    359   358   352    1
  685    353   359   352    1
  686    360   354   357    1
  687    360   361   354    1
  688    361   355   354    1
  689    363   360   357    1
  690    364   363   357    1
  691    358   364   357    1
  692    361   362   355    1
  693    362   356   355    1
  694    365   364   358    1
  695    359   365   358    1
  696    366   360   363    1
  697    366   367   360    1
  698    367   361   360    1
  699    369   366   363    1
  700    370   369   363    1
  701    364   370   363    1
  702    367   368   361    1
  703    368   362   361    1
  704    371   370   364    1
  705    365   371   364    1
  706    372   366   369    1
  707    372   373   366    1
  708    373   367   366    1
  709    375   372   369    1
  710    376   375   369    1
  711    370   376   369    1
  712    373   374   367    1
  713    374   368   367    1
  714    377   376   370    1
  715    371   377   370    1
  716    378   372   375    1
  717    378   379   372    1
  718    379   373   372    1
  719    381   378   375    1
  720    382   381   375    1
  721    376   382   375    1
  722    379   380   373    1
  723    380   374   373    1
  724    383   382   376    1
  725    377   383   376    1
  726    336   378   381    1
  727    336   338   378    1
  728    338   379   378    1
  729    342   336   381    1
  730    344   342   381    1
  731    382   344   381    1
  732    338   340   379    1
  733    340   380   379    1
  734    346   344   382    1
  735    383   346   382    1
  736    341   385   340    1
  737    385   384   340    1
  738    389   347   346    1
  739    388   389   346    1
  740    385   387   384    1
  741    387   386   384    1
  742    391   389   388    1
  743    390   391   388    1
  744    350   392   341    1
  745    392   385   341    1
  746    394   353   347    1
  747    389   394   347    1
  748    392   393   385    1
  749    393   387   385    1
  750    395   394   389    1
  751    391   395   389    1
  752    356   396   350    1
  753    396   392   350    1
  754    398   359   353    1
  755    394   398   353    1
  756    396   397   392    1
  757    397   393   392    1
  758    399   398   394    1
  759    395   399   394    1
  760    362   400   356    1
  761    400   396   356    1
  762    402   365   359    1
  763    398   402   359    1
  764    400   401   396    1
  765    401   397   396    1
  766    403   402   398    1
  767    399   403   398    1
  768    368   404   362    1
  769    404   400   362    1
  770    406   371   365    1
  771    402   406   365    1
  772    404   405   400    1
  773    405   401   400    1
  774    407   406   402    1
  775    403   407   402    1
  776    374   408   368    1
  777    408   404   368    1
  778    410   377   371    1
  779    406   410   371    1
  780    408   409   404    1
  781    409   405   404    1
  782    411   410   406    1
  783    407   411   406    1
  784    380   412   374    1
  785    412   408   374    1
  786    414   383   377    1
  787    410   414   377    1
  788    412   413   408    1
  789    413   409   408    1
  790    415   414   410    1
  791    411   415   410    1
  792    340   384   380    1
  793    384   412   380    1
  794    388   346   383    1
  795    414   388   383    1
  796    384   386   412    1
  797    386   413   412    1
  798    390   388   414    1
  799    415   390   414    1
  800    387   417   386    1
  801    417   416   386    1
  802    421   391   390    1
  803    420   421   390    1
  804    417   419   416    1
  805    419   418   416    1
  806    423   421   420    1
  807    422   423   420    1
  808    393   424   387    1
  809    424   417   387    1
  810    426   395   391    1
  811    421   426   391    1
  812    424   425   417    1
  813    425   419   417    1
  814    427   426   421    1
  815    423   427   421    1
  816    397   428   393    1
  817    428   424   393    1
  818    430   399   395    1
  819    426   430   395    1
  820    428   429   424    1
  821    429   425   424    1
  822    431   430   426    1
  823    427   431   426    1
  824    401   432   397    1
  825    432   428   397    1
  826    434   403   399    1
  827    430   434   399    1
  828    432   433   428    1
  829    433   429   428    1
  830    435   434   430    1
  831    431   435   430    1
  832    405   436   401    1
  833    436   432   401    1
  834    438   407   403    1
  835    434   438   403    1
  836    436   437   432    1
  837    437   433   432    1
  838    439   438   434    1
  839    435   439   434    1
  840    409   440   405    1
  841    440   436   405    1
  842    442   411   407    1
  843    438   442   407    1
  844    440   441   436    1
  845    441   437   436    1
  846    443   442   438    1
  847    439   443   438    1
  848    413   444   409    1
  849    444   440   409    1
  850    446   415   411    1
  851    442   446   411    1
  852    444   445   440    1
  853    445   441   440    1
  854    447   446   442    1
  855    443   447   442    1
  856    386   416   413    1
  857    416   444   413    1
  858    420   390   415    1
  859    446   420   415    1
  860    416   418   444    1
  861    418   445   444    1
  862    422   420   446    1
  863    447   422   446    1
  864    419   449   418    1
  865    449   448   418    1
  866    453   423   422    1
  867    452   453   422    1
  868    449   451   448    1
  869    451   450   448    1
  870    455   453   452    1
  871    454   455   452    1
  872    425   456   419    1
  873    456   449   419    1
  874    458   427   423    1
  875    453   458   423    1
  876    456   457   449    1
  877    457   451   449    1
  878    459   458   453    1
  879    455   459   453    1
  880    429   460   425    1
  881    460   456   425    1
  882    462   431   427    1
  883    458   462   427    1
  884    460   461   456    1
  885    461   457   456    1
  886    463   462   458    1
  887    459   463   458    1
  888    433   464   429    1
  889    464   460   429    1
  890    466   435   431    1
  891    462   466   431    1
  892    464   465   460    1
  893    465   461   460    1
  894    467   466   462    1
  895    463   467   462    1
  896    437   468   433    1
  897    468   464   433    1
  898    470   439   435    1
  899    466   470   435    1
  900    468   469   464    1
  901    469   465   464    1
  902    471   470   466    1
  903    467   471   466    1
  904    441   472   437    1
  905    472   468   437    1
  906    474   443   439    1
  907    470   474   439    1
  908    472   473   468    1
  909    473   469   468    1
  910    475   474   470    1
  911    471   475   470    1
  912    445   476   441    1
  913    476   472   441    1
  914    478   447   443    1
  915    474   478   443    1
  916    476   477   472    1
  917    477   473   472    1
  918    479   478   474    1
  919    475   479   474    1
  920    418   448   445    1
  921    448   476   445    1
  922    452   422   447    1
  923    478   452   447    1
  924    448   450   476    1
  925    450   477   476    1
  926    454   452   478    1
  927    479   454   478    1
  928    451   481   450    1
  929    481   480   450    1
  930    485   455   454    1
  931    484   485   454    1
  932    481   483   480    1
  933    483   482   480    1
  934    487   485   484    1
  935    486   487   484    1
  936    457   488   451    1
  937    488   481   451    1
  938    490   459   455    1
  939    485   490   455    1
  940    488   489   481    1
  941    489   483   481    1
  942    491   490   485    1
  943    487   491   485    1
  944    461   492   457    1
  945    492   488   457    1
  946    494   463   459    1
  947    490   494   459    1
  948    492   493   488    1
  949    493   489   488    1
  950    495   494   490    1
  951    491   495   490    1
  952    465   496   461    1
  953    496   492   461    1
  954    498   467   463    1
  955    494   498   463    1
  956    496   497   492    1
  957    497   493   492    1
  958    499   498   494    1
  959    495   499   494    1
  960    469   500   465    1
  961    500   496   465    1
  962    502   471   467    1
  963    498   502   467    1
  964    500   501   496    1
  965    501   497   496    1
  966    503   502   498    1
  967    499   503   498    1
  968    473   504   469    1
  969    504   500   469    1
  970    506   475   471    1
  971    502   506   471    1
  972    504   505   500    1
  973    505   501   500    1
  974    507   506   502    1
  975    503   507   502    1
  976    477   508   473    1
  977    508   504   473    1
  978    510   479   475    1
  979    506   510   475    1
  980    508   509   504    1
  981    509   505   504    1
  982    511   510   506    1
  983    507   511   506    1
  984    450   480   477    1
  985    480   508   477    1
  986    484   454   479    1
  987    510   484   479    1
  988    480   482   508    1
  989    482   509   508    1
  990    486   484   510    1
  991    511   486   510    1
  992    483   513   482    1
  993    513   512   482    1
  994    517   487   486    1
  995    516   517   486    1
  996    513   515   512    1
  997    515   514   512    1
  998    519   517   516    1
  999    518   519   516    1
 1000    489   520   483    1
 1001    520   513   483    1
 1002    522   491   487    1
 1003    517   522   487    1
 1004    520   521   513    1
 1005    521   515   513    1
 1006    523   522   517    1
 1007    519   523   517    1
 1008    493   524   489    1
 1009    524   520   489    1
 1010    526   495   491    1
 1011    522   526   491    1
 1012    524   525   520    1
 1013    525   521   520    1
 1014    527   526   522    1
 1015    523   527   522    1
 1016    497   528   493    1
 1017    528   524   493    1
 1018    530   499   495    1
 1019    526   530   495    1
 1020    528   529   524    1
 1021    529   525   524    1
 1022    531   530   526    1
 1023    527   531   526    1
 1024    501   532   497    1
 1025    532   528   497    1
 1026    534   503   499    1
 1027    530   534   499    1
 1028    532   533   528    1
 1029    533   529   528    1
 1030    535   534   530    1
 1031    531   535   530    1
 1032    505   536   501    1
 1033    536   532   501    1
 1034    538   507   503    1
 1035    534   538   503    1
 1036    536   537   532    1
 1037    537   533   532    1
 1038    539   538   534    1
 1039    535   539   534    1
 1040    509   540   505    1
 1041    540   536   505    1
 1042    542   511   507    1
 1043    538   542   507    1
 1044    540   541   536    1
 1045    541   537   536    1
 1046    543   542   538    1
 1047    539   543   538    1
 1048    482   512   509    1
 1049    512   540   509    1
 1050    516   486   511    1
 1051    542   516   511    1
 1052    512   514   540    1
 1053    514   541   540    1
 1054    518   516   542    1
 1055    543   518   542    1
 1056    515   545   514    1
 1057    545   544   514    1
 1058    549   519   518    1
 1059    548   549   518    1
 1060    545   547   544    1
 1061    547   546   544    1
 1062    551   549   548    1
 1063    550   551   548    1
 1064    521   552   515    1
 1065    552   545   515    1
 1066    554   523   519    1
 1067    549   554   519    1
 1068    552   553   545    1
 1069    553   547   545    1
 1070    555   554   549    1
 1071    551   555   549    1
 1072    525   556   521    1
 1073    556   552   521    1
 1074    558   527   523    1
 1075    554   558   523    1
 1076    556   557   552    1
 1077    557   553   552    1
 1078    559   558   554    1
 1079    555   559   554    1
 1080    529   560   525    1
 1081    560   556   525    1
 1082    562   531   527    1
 1083    558   562   527    1
 1084    560   561   556    1
 1085    561   557   556    1
 1086    563   562   558    1
 1087    559   563   558    1
 1088    533   564   529    1
 1089    564   560   529    1
 1090    566   535   531    1
 1091    562   566   531    1
 1092    564   565   560    1
 1093    565   561   560    1
 1094    567   566   562    1
 1095    563   567   562    1
 1096    537   568   533    1
 1097    568   564   533    1
 1098    570   539   535    1
 1099    566   570   535    1
 1100    568   569   564    1
 1101    569   565   564    1
 1102    571   570   566    1
 1103    567   571   566    1
 1104    541   572   537    1
 1105    572   568   537    1
 1106    574   543   539    1
 1107    570   574   539    1
 1108    572   573   568    1
 1109    573   569   568    1
 1110    575   574   570    1
 1111    571   575   570    1
 1112    514   544   541    1
 1113    544   572   541    1
 1114    548   518   543    1
 1115    574   548   543    1
 1116    544   546   572    1
 1117    546   573   572    1
 1118    550   548   574    1
 1119    575   550   574    1
 1120    547   577   546    1
 1121    577   576   546    1
 1122    581   551   550    1
 1123    580   581   550    1
 1124    577   579   576    1
 1125    579   578   576    1
 1126    583   581   580    1
 1127    582   583   580    1
 1128    553   584   547    1
 1129    584   577   547    1
 1130    586   555   551    1
 1131    581   586   551    1
 1132    584   585   577    1
 1133    585   579   577    1
 1134    587   586   581    1
 1135    583   587   581    1
 1136    557   588   553    1
 1137    588   584   553    1
 1138    590   559   555    1
 1139    586   590   555    1
 1140    588   589   584    1
 1141    589   585   584    1
 1142    591   590   586    1
 1143    587   591   586    1
 1144    561   592   557    1
 1145    592   588   557    1
 1146    594   563   559    1
 1147    590   594   559    1
 1148    592   593   588    1
 1149    593   589   588    1
 1150    595   594   590    1
 1151    591   595   590    1
 1152    565   596   561    1
 1153    596   592   561    1
 1154    598   567   563    1
 1155    594   598   563    1
 1156    596   597   592    1
 1157    597   593   592    1
 1158    599   598   594    1
 1159    595   599   594    1
 1160    569   600   565    1
 1161    600   596   565    1
 1162    602   571   567    1
 1163    598   602   567    1
 1164    600   601   596    1
 1165    601   597   596    1
 1166    603   602   598    1
 1167    599   603   598    1
 1168    573   604   569    1
 1169    604   600   569    1
 1170    606   575   571    1
 1171    602   606   571    1
 1172    604   605   600    1
 1173    605   601   600    1
 1174    607   606   602    1
 1175    603   607   602    1
 1176    546   576   573    1
 1177    576   604   573    1
 1178    580   550   575    1
 1179    606   580   575    1
 1180    576   578   604    1
 1181    578   605   604    1
 1182    582   580   606    1
 1183    607   582   606    1
 1184    579   609   578    1
 1185    609   608   578    1
 1186    613   583   582    1
 1187    612   613   582    1
 1188    609   611   608    1
 1189    611   610   608    1
 1190    615   613   612    1
 1191    614   615   612    1
 1192    585   616   579    1
 1193    616   609   579    1
 1194    618   587   583    1
 1195    613   618   583    1
 1196    616   617   609    1
 1197    617   611   609    1
 1198    619   618   613    1
 1199    615   619   613    1
 1200    589   620   585    1
 1201    620   616   585    1
 1202    622   591   587    1
 1203    618   622   587    1
 1204    620   621   616    1
 1205    621   617   616    1
 1206    623   622   618    1
 1207    619   623   618    1
 1208    593   624   589    1
 1209    624   620   589    1
 1210    626   595   591    1
 1211    622   626   591    1
 1212    624   625   620    1
 1213    625   621   620    1
 1214    627   626   622    1
 1215    623   627   622    1
 1216    597   628   593    1
 1217    628   624   593    1
 1218    630   599   595    1
 1219    626   630   595    1
 1220    628   629   624    1
 1221    629   625   624    1
 1222    631   630   626    1
 1223    627   631   626    1
 1224    601   632   597    1
 1225    632   628   597    1
 1226    634   603   599    1
 1227    630   634   599    1
 1228    632   633   628    1
 1229    633   629   628    1
 1230    635   634   630    1
 1231    631   635   630    1
 1232    605   636   601    1
 1233    636   632   601    1
 1234    638   607   603    1
 1235    634   638   603    1
 1236    636   637   632    1
 1237    637   633   632    1
 1238    639   638   634    1
 1239    635   639   634    1
 1240    578   608   605    1
 1241    608   636   605    1
 1242    612   582   607    1
 1243    638   612   607    1
 1244    608   610   636    1
 1245    610   637   636    1
 1246    614   612   638    1
 1247    639   614   638    1
 1248    611   641   610    1
 1249    641   640   610    1
 1250    645   615   614    1
 1251    644   645   614    1
 1252    641   643   640    1
 1253    643   642   640    1
 1254    647   645   644    1
 1255    646   647   644    1
 1256    617   648   611    1
 1257    648   641   611    1
 1258    650   619   615    1
 1259    645   650   615    1
 1260    648   649   641    1
 1261    649   643   641    1
 1262    651   650   645    1
 1263    647   651   645    1
 1264    621   652   617    1
 1265    652   648   617    1
 1266    654   623   619    1
 1267    650   654   619    1
 1268    652   653   648    1
 1269    653   649   648    1
 1270    655   654   650    1
 1271    651   655   650    1
 1272    625   656   621    1
 1273    656   652   621    1
 1274    658   627   623    1
 1275    654   658   623    1
 1276    656   657   652    1
 1277    657   653   652    1
 1278    659   658   654    1
 1279    655   659   654    1
 1280    629   660   625    1
 1281    660   656   625    1
 1282    662   631   627    1
 1283    658   662   627    1
 1284    660   661   656    1
 1285    661   657   656    1
 1286    663   662   658    1
 1287    659   663   658    1
 1288    633   664   629    1
 1289    664   660   629    1
 1290    666   635   631    1
 1291    662   666   631    1
 1292    664   665   660    1
 1293    665   661   660    1
 1294    667   666   662    1
 1295    663   667   662    1
 1296    637   668   633    1
 1297    668   664   633    1
 1298    670   639   635    1
 1299    666   670   635    1
 1300    668   669   664    1
 1301    669   665   664    1
 1302    671   670   666    1
 1303    667   671   666    1
 1304    610   640   637    1
 1305    640   668   637    1
 1306    644   614   639    1
 1307    670   644   639    1
 1308    640   642   668    1
 1309    642   669   668    1
 1310    646   644   670    1
 1311    671   646   670    1
 1312    307   673   306    1
 1313    673   672   306    1
 1314    677   311   310    1
 1315    676   677   310    1
 1316    673   675   672    1
 1317    675   674   672    1
 1318    679   677   676    1
 1319    678   679   676    1
 1320    313   680   307    1
 1321    680   673   307    1
 1322    682   315   311    1
 1323    677   682   311    1
 1324    680   681   673    1
 1325    681   675   673    1
 1326    683   682   677    1
 1327    679   683   677    1
 1328    317   684   313    1
 1329    684   680   313    1
 1330    686   319   315    1
 1331    682   686   315    1
 1332    684   685   680    1
 1333    685   681   680    1
 1334    687   686   682    1
 1335    683   687   682    1
 1336    321   688   317    1
 1337    688   684   317    1
 1338    690   323   319    1
 1339    686   690   319    1
 1340    688   689   684    1
 1341    689   685   684    1
 1342    691   690   686    1
 1343    687   691   686    1
 1344    325   692   321    1
 1345    692   688   321    1
 1346    694   327   323    1
 1347    690   694   323    1
 1348    692   693   688    1
 1349    693   689   688    1
 1350    695   694   690    1
 1351    691   695   690    1
 1352    329   696   325    1
 1353    696   692   325    1
 1354    698   331   327    1
 1355    694   698   327    1
 1356    696   697   692    1
 1357    697   693   692    1
 1358    699   698   694    1
 1359    695   699   694    1
 1360    333   700   329    1
 1361    700   696   329    1
 1362    702   335   331    1
 1363    698   702   331    1
 1364    700   701   696    1
 1365    701   697   696    1
 1366    703   702   698    1
 1367    699   703   698    1
 1368    306   672   333    1
 1369    672   700   333    1
 1370    676   310   335    1
 1371    702   676   335    1
 1372    672   674   700    1
 1373    674   701   700    1
 1374    678   676   702    1
 1375    703   678   702    1
 1376    643   705   642    1
 1377    705   704   642    1
 1378    709   647   646    1
 1379    708   709   646    1
 1380    705   707   704    1
 1381    707   706   704    1
 1382    703   709   708    1
 1383    678   703   708    1
 1384    649   710   643    1
 1385    710   705   643    1
 1386    712   651   647    1
 1387    709   712   647    1
 1388    710   711   705    1
 1389    711   707   705    1
 1390    699   712   709    1
 1391    703   699   709    1
 1392    653   713   649    1
 1393    713   710   649    1
 1394    715   655   651    1
 1395    712   715   651    1
 1396    713   714   710    1
 1397    714   711   710    1
 1398    695   715   712    1
 1399    699   695   712    1
 1400    657   716   653    1
 1401    716   713   653    1
 1402    718   659   655    1
 1403    715   718   655    1
 1404    716   717   713    1
 1405    717   714   713    1
 1406    691   718   715    1
 1407    695   691   715    1
 1408    661   719   657    1
 1409    719   716   657    1
 1410    721   663   659    1
 1411    718   721   659    1
 1412    719   720   716    1
 1413    720   717   716    1
 1414    722   721   718    1
 1415    691   722   718    1
 1416    665   723   661    1
 1417    723   719   661    1
 1418    725   667   663    1
 1419    721   725   663    1
 1420    723   724   719    1
 1421    724   720   719    1
 1422    726   725   721    1
 1423    722   726   721    1
 1424    669   727   665    1
 1425    727   723   665    1
 1426    729   671   667    1
 1427    725   729   667    1
 1428    727   728   723    1
 1429    728   724   723    1
 1430    730   729   725    1
 1431    726   730   725    1
 1432    642   704   669    1
 1433    704   727   669    1
 1434    708   646   671    1
 1435    729   708   671    1
 1436    704   706   727    1
 1437    706   728   727    1
 1438    678   708   729    1
 1439    730   678   729    1
 1440    675   732   674    1
 1441    732   731   674    1
 1442    736   679   678    1
 1443    735   736   678    1
 1444    732   734   731    1
 1445    734   733   731    1
 1446    738   736   735    1
 1447    737   738   735    1
 1448    681   739   675    1
 1449    739   732   675    1
 1450    741   683   679    1
 1451    736   741   679    1
 1452    739   740   732    1
 1453    740   734   732    1
 1454    742   741   736    1
 1455    738   742   736    1
 1456    685   743   681    1
 1457    743   739   681    1
 1458    745   687   683    1
 1459    741   745   683    1
 1460    743   744   739    1
 1461    744   740   739    1
 1462    746   745   741    1
 1463    742   746   741    1
 1464    689   747   685    1
 1465    747   743   685    1
 1466    749   691   687    1
 1467    745   749   687    1
 1468    747   748   743    1
 1469    748   744   743    1
 1470    750   749   745    1
 1471    746   750   745    1
 1472    693   751   689    1
 1473    751   747   689    1
 1474    753   695   691    1
 1475    749   753   691    1
 1476    751   752   747    1
 1477    752   748   747    1
 1478    754   753   749    1
 1479    750   754   749    1
 1480    697   755   693    1
 1481    755   751   693    1
 1482    757   699   695    1
 1483    753   757   695    1
 1484    755   756   751    1
 1485    756   752   751    1
 1486    758   757   753    1
 1487    754   758   753    1
 1488    701   759   697    1
 1489    759   755   697    1
 1490    761   703   699    1
 1491    757   761   699    1
 1492    759   760   755    1
 1493    760   756   755    1
 1494    762   761   757    1
 1495    758   762   757    1
 1496    674   731   701    1
 1497    731   759   701    1
 1498    735   678   703    1
 1499    761   735   703    1
 1500    731   733   759    1
 1501    733   760   759    1
 1502    737   735   761    1
 1503    762   737   761    1
 1504    707   764   706    1
 1505    764   763   706    1
 1506    761   703   678    1
 1507    735   761   678    1
 1508    764   766   763    1
 1509    766   765   763    1
 1510    762   761   735    1
 1511    737   762   735    1
 1512    711   767   707    1
 1513    767   764   707    1
 1514    757   699   703    1
 1515    761   757   703    1
 1516    767   768   764    1
 1517    768   766   764    1
 1518    758   757   761    1
 1519    762   758   761    1
 1520    714   769   711    1
 1521    769   767   711    1
 1522    753   695   699    1
 1523    757   753   699    1
 1524    769   770   767    1
 1525    770   768   767    1
 1526    754   753   757    1
 1527    758   754   757    1
 1528    717   771   714    1
 1529    771   769   714    1
 1530    749   691   695    1
 1531    753   749   695    1
 1532    771   772   769    1
 1533    772   770   769    1
 1534    750   749   753    1
 1535    754   750   753    1
 1536    720   773   717    1
 1537    773   771   717    1
 1538    775   722   691    1
 1539    749   775   691    1
 1540    773   774   771    1
 1541    774   772   771    1
 1542    776   775   749    1
 1543    750   776   749    1
 1544    724   777   720    1
 1545    777   773   720    1
 1546    779   726   722    1
 1547    775   779   722    1
 1548    777   778   773    1
 1549    778   774   773    1
 1550    780   779   775    1
 1551    776   780   775    1
 1552    728   781   724    1
 1553    781   777   724    1
 1554    783   730   726    1
 1555    779   783   726    1
 1556    781   782   777    1
 1557    782   778   777    1
 1558    784   783   779    1
 1559    780   784   779    1
 1560    706   763   728    1
 1561    763   781   728    1
 1562    735   678   730    1
 1563    783   735   730    1
 1564    763   765   781    1
 1565    765   782   781    1
 1566    737   735   783    1
 1567    784   737   783    1
 1568    734   786   733    1
 1569    786   785   733    1
 1570    790   738   737    1
 1571    789   790   737    1
 1572    786   788   785    1
 1573    788   787   785    1
 1574    787   788   791    1
 1575    792   790   789    1
 1576    791   792   789    1
 1577    791   788   792    1
 1578    740   793   734    1
 1579    793   786   734    1
 1580    795   742   738    1
 1581    790   795   738    1
 1582    793   794   786    1
 1583    794   788   786    1
 1584    788   794   792    1
 1585    796   795   790    1
 1586    792   796   790    1
 1587    792   794   796    1
 1588    744   797   740    1
 1589    797   793   740    1
 1590    799   746   742    1
 1591    795   799   742    1
 1592    797   798   793    1
 1593    798   794   793    1
 1594    794   798   796    1
 1595    800   799   795    1
 1596    796   800   795    1
 1597    796   798   800    1
 1598    748   801   744    1
 1599    801   797   744    1
 1600    803   750   746    1
 1601    799   803   746    1
 1602    801   802   797    1
 1603    802   798   797    1
 1604    798   802   800    1
 1605    804   803   799    1
 1606    800   804   799    1
 1607    800   802   804    1
 1608    752   805   748    1
 1609    805   801   748    1
 1610    807   754   750    1
 1611    803   807   750    1
 1612    805   806   801    1
 1613    806   802   801    1
 1614    802   806   804    1
 1615    808   807   803    1
 1616    804   808   803    1
 1617    804   806   808    1
 1618    756   809   752    1
 1619    809   805   752    1
 1620    811   758   754    1
 1621    807   811   754    1
 1622    809   810   805    1
 1623    810   806   805    1
 1624    806   810   808    1
 1625    812   811   807    1
 1626    808   812   807    1
 1627    808   810   812    1
 1628    760   813   756    1
 1629    813   809   756    1
 1630    815   762   758    1
 1631    811   815   758    1
 1632    813   814   809    1
 1633    814   810   809    1
 1634    810   814   812    1
 1635    816   815   811    1
 1636    812   816   811    1
 1637    812   814   816    1
 1638    733   785   760    1
 1639    785   813   760    1
 1640    789   737   762    1
 1641    815   789   762    1
 1642    785   787   813    1
 1643    787   814   813    1
 1644    814   787   816    1
 1645    791   789   815    1
 1646    816   791   815    1
 1647    816   787   791    1
 1648    766   818   765    1
 1649    818   817   765    1
 1650    815   762   737    1
 1651    789   815   737    1
 1652    818   820   817    1
 1653    820   819   817    1
 1654    819   820   791    1
 1655    816   815   789    1
 1656    791   816   789    1
 1657    791   820   816    1
 1658    768   821   766    1
 1659    821   818   766    1
 1660    811   758   762    1
 1661    815   811   762    1
 1662    821   822   818    1
 1663    822   820   818    1
 1664    820   822   816    1
 1665    812   811   815    1
 1666    816   812   815    1
 1667    816   822   812    1
 1668    770   823   768    1
 1669    823   821   768    1
 1670    807   754   758    1
 1671    811   807   758    1
 1672    823   824   821    1
 1673    824   822   821    1
 1674    822   824   812    1
 1675    808   807   811    1
 1676    812   808   811    1
 1677    812   824   808    1
 1678    772   825   770    1
 1679    825   823   770    1
 1680    803   750   754    1
 1681    807   803   754    1
 1682    825   826   823    1
 1683    826   824   823    1
 1684    824   826   808    1
 1685    804   803   807    1
 1686    808   804   807    1
 1687    808   826   804    1
 1688    774   827   772    1
 1689    827   825   772    1
 1690    829   776   750    1
 1691    803   829   750    1
 1692    827   828   825    1
 1693    828   826   825    1
 1694    826   828   804    1
 1695    830   829   803    1
 1696    804   830   803    1
 1697    804   828   830    1
 1698    778   831   774    1
 1699    831   827   774    1
 1700    833   780   776    1
 1701    829   833   776    1
 1702    831   832   827    1
 1703    832   828   827    1
 1704    828   832   830    1
 1705    834   833   829    1
 1706    830   834   829    1
 1707    830   832   834    1
 1708    782   835   778    1
 1709    835   831   778    1
 1710    837   784   780    1
 1711    833   837   780    1
 1712    835   836   831    1
 1713    836   832   831    1
 1714    832   836   834    1
 1715    838   837   833    1
 1716    834   838   833    1
 1717    834   836   838    1
 1718    765   817   782    1
 1719    817   835   782    1
 1720    789   737   784    1
 1721    837   789   784    1
 1722    817   819   835    1
 1723    819   836   835    1
 1724    836   819   838    1
 1725    791   789   837    1
 1726    838   791   837    1
 1727    838   819   791    1
# Generated by tetgen uterus_scaffold_1.ele 
